<?xml version="1.0"?>
<svg xmlns="http://www.w3.org/2000/svg" xmlns:xlink="http://www.w3.org/1999/xlink" xmlns:svgjs="http://svgjs.com/svgjs" version="1.1" width="512" height="512" x="0" y="0" viewBox="0 0 24 24" style="enable-background:new 0 0 512 512" xml:space="preserve"><g><path xmlns="http://www.w3.org/2000/svg" d="M0,3v8H11V0H3A3,3,0,0,0,0,3Z" fill="#a1c4fd" data-original="#000000"/><path xmlns="http://www.w3.org/2000/svg" d="M0,21a3,3,0,0,0,3,3h8V13H0Z" fill="#a1c4fd" data-original="#000000"/><path xmlns="http://www.w3.org/2000/svg" d="M13,13V24h8a3,3,0,0,0,3-3V13Z" fill="#a1c4fd" data-original="#000000"/><polygon xmlns="http://www.w3.org/2000/svg" points="17 11 19 11 19 7 23 7 23 5 19 5 19 1 17 1 17 5 13 5 13 7 17 7 17 11" fill="#a1c4fd" data-original="#000000"/></g></svg>
