<?xml version="1.0"?>
<svg xmlns="http://www.w3.org/2000/svg" xmlns:xlink="http://www.w3.org/1999/xlink" xmlns:svgjs="http://svgjs.com/svgjs" version="1.1" width="512" height="512" x="0" y="0" viewBox="0 0 24 24" style="enable-background:new 0 0 512 512" xml:space="preserve"><g><path xmlns="http://www.w3.org/2000/svg" d="m16.5 14.5a1.5 1.5 0 0 1 -1.5 1.5h-1.5v1.5a1.5 1.5 0 0 1 -3 0v-1.5h-1.5a1.5 1.5 0 0 1 0-3h1.5v-1.5a1.5 1.5 0 0 1 3 0v1.5h1.5a1.5 1.5 0 0 1 1.5 1.5zm5.5-6.343v10.343a5.506 5.506 0 0 1 -5.5 5.5h-9a5.506 5.506 0 0 1 -5.5-5.5v-13a5.506 5.506 0 0 1 5.5-5.5h6.343a5.464 5.464 0 0 1 3.889 1.611l2.657 2.657a5.464 5.464 0 0 1 1.611 3.889zm-3 10.343v-9.5h-4a2 2 0 0 1 -2-2v-4h-5.5a2.5 2.5 0 0 0 -2.5 2.5v13a2.5 2.5 0 0 0 2.5 2.5h9a2.5 2.5 0 0 0 2.5-2.5z" fill="#84fab0" data-original="#000000"/></g></svg>
