<svg version="1.1" xmlns="http://www.w3.org/2000/svg" viewBox="0 0 1116.2086364384033 542.5431560959694" width="1116.2086364384033" height="542.5431560959694">
  <!-- svg-source:excalidraw -->
  
  <defs>
    <style>
      @font-face {
        font-family: "Virgil";
        src: url("https://excalidraw.com/Virgil.woff2");
      }
      @font-face {
        font-family: "Cascadia";
        src: url("https://excalidraw.com/Cascadia.woff2");
      }
    </style>
  </defs>
  <g stroke-linecap="round"><g transform="translate(11.568166538551452 251.4638445252666) rotate(0 0.05333700411020459 140.6622436068207)"><path d="M-0.34 1.01 C-0.53 47.9, -0.28 234.51, -0.41 280.84 M1.67 0.49 C1.23 47.09, -1.48 232.6, -1.57 279.15" stroke="#000000" stroke-width="1" fill="none"></path></g></g><g stroke-linecap="round"><g transform="translate(11.104577342512187 532.7282851049517) rotate(0 290.4554762148205 -0.9254270146228691)"><path d="M1.01 -0.41 C97.9 -0.54, 484.51 -1.14, 580.84 -1.13 M0.07 -1.67 C96.93 -1.66, 483.45 -0.59, 580.33 -0.19" stroke="#000000" stroke-width="1" fill="none"></path></g></g><g stroke-linecap="round" transform="translate(70.47577037636944 431.827971876396) rotate(0 30 30)"><path d="M1.89 17.54 C1.89 17.54, 1.89 17.54, 1.89 17.54 M1.89 17.54 C1.89 17.54, 1.89 17.54, 1.89 17.54 M0.68 24.19 C8.04 17.7, 10.81 13.27, 19.78 4.08 M1.23 24.17 C7.79 16.48, 13.78 10.27, 17.52 4.85 M2.45 29.72 C7.2 23.5, 14.78 14.07, 22.59 4.51 M1.14 30.24 C9.59 21.6, 16.65 12.1, 23.83 5.27 M0.44 35.84 C11.84 26.88, 20.6 13.05, 30.2 4.69 M0.36 36.8 C9.62 28.37, 17.65 17.41, 30.71 3.17 M1.45 42.46 C14.03 28.36, 22.02 17.4, 35.76 2.11 M2.14 40.75 C9.47 32.4, 18.74 23.27, 38.48 -0.06 M3.9 45.29 C15.39 32.53, 23.83 21, 38.7 2.95 M6.08 42.77 C12.83 35.85, 20.45 26.15, 41.07 2.64 M6.24 46.12 C16.44 35.5, 24.16 28.24, 43.73 3.41 M8.37 47.43 C18.35 35.56, 27.19 25.55, 43.55 6.24 M12.17 50.13 C26.25 35.19, 40.37 18.61, 46.24 9.95 M9.59 49.28 C18.56 39.22, 26.87 30.86, 47.43 7.56 M14.46 53.44 C20.39 44.83, 31.82 32.32, 50.69 10.54 M12.39 54.15 C22.17 43.58, 30.14 34.27, 51.66 9.33 M16.83 56.18 C29.2 39.42, 42.29 24.33, 52.57 12.49 M15.99 57.09 C26.56 42.4, 40.01 28.52, 54.34 11.8 M19.14 60.09 C32.72 39.97, 47.26 24.63, 56.14 14.99 M19.1 57.59 C30.63 45.38, 41 34.03, 57.2 16.04 M25.27 60.27 C34.62 48.17, 42.86 37.18, 57.74 17.45 M24.58 58.31 C36.78 45.72, 47.4 33.16, 58.56 20.11 M29.62 61.32 C40.23 49.16, 48.83 39.26, 58.85 24.79 M29.6 58.81 C40.27 46.65, 50.1 35.96, 59.22 25.06 M32.9 60.06 C39.15 53.59, 47.33 43.01, 59.36 29.5 M34.17 59.21 C41.86 51.36, 48.99 41.92, 61.33 28.86 M45.37 53.39 C50.46 49.28, 57.64 41.09, 62.05 34.22 M44.07 55.71 C48.9 48.98, 56.72 40.96, 61.68 33.67 M13.89 55.66 C13.89 55.66, 13.89 55.66, 13.89 55.66 M13.89 55.66 C13.89 55.66, 13.89 55.66, 13.89 55.66 M19.99 57.64 C17.93 53.06, 13.86 48.85, 1.67 37.93 M22.7 58.11 C15.52 51.83, 11.94 48.36, 0.64 38.83 M29.05 59.58 C21.47 51.53, 10.91 42.94, 4.13 37.08 M30.12 57.96 C23.03 51.86, 15.46 45.86, 3.82 35.87 M36.29 58.15 C28.42 53.91, 20.4 43.81, 3.98 29.66 M35.86 58.39 C23.92 49.03, 13.71 39.87, 2.95 30.96 M40.25 57.37 C26.81 44.33, 14.18 32.5, 3.23 27.79 M38.01 56.71 C28.95 47.98, 19.89 38.34, 4.38 26.87 M42.52 55.8 C32.56 44.41, 19.24 32.74, 2.31 19.85 M43.26 54.55 C28.09 42.89, 14.61 29.45, 3.91 20.45 M45.37 53.89 C33.18 43.46, 23.32 33.43, 3.82 14.32 M45.26 51.88 C34.27 42.32, 23.41 32.58, 4.26 16.16 M51.22 52.9 C39.56 41.59, 30.73 32.8, 7.42 11.52 M51.81 51.86 C41.12 41.26, 32.09 33.99, 6.69 12.65 M53.28 47.6 C35.73 32.15, 17.97 19.9, 10.03 8.88 M52.21 48.18 C42.74 39.26, 33.08 29.57, 10.86 9.8 M52.31 41.88 C38.89 30.64, 23.81 18.31, 14 5.35 M53.75 42.54 C45.23 35.53, 36.47 26.51, 11.81 5.88 M54.28 39.96 C47.34 30.56, 38.36 24.02, 17.38 3.82 M56.06 38.62 C40.75 27.51, 26.52 13.35, 15.85 3.8 M56.02 36.95 C48.61 27.69, 35.14 16.27, 16.97 -0.29 M58.52 36.41 C50.33 28.92, 42.1 21.48, 18.44 2.46 M61.46 31.24 C49.16 24.24, 43.67 16.93, 23.16 -0.68 M59.19 31.4 C47.66 21.33, 36.48 13.17, 22.62 0.86 M56.23 24.41 C46.67 14.49, 40.2 7.63, 27.98 1.79 M57.16 24.23 C46.16 15.02, 34.38 4.83, 29.9 0.88 M56.26 16.87 C52.92 15.68, 44.61 10.05, 32.88 -1.16 M55.8 17.16 C50.04 13.5, 44.54 6.53, 33.66 -1.24" stroke="#12b886" stroke-width="0.5" fill="none"></path><path d="M16.47 4.04 C21.95 1, 30.83 -0.5, 37.17 0.88 C43.5 2.25, 50.77 7.14, 54.47 12.29 C58.17 17.43, 59.93 25.28, 59.36 31.74 C58.79 38.2, 55.36 46.35, 51.05 51.03 C46.75 55.7, 39.68 58.99, 33.53 59.79 C27.37 60.59, 19.58 59.4, 14.11 55.85 C8.64 52.31, 2.78 44.87, 0.72 38.5 C-1.33 32.14, -1.74 23.83, 1.79 17.67 C5.31 11.51, 17.68 4.42, 21.89 1.54 C26.1 -1.33, 27.11 -0.08, 27.05 0.44 M20.09 3.03 C25.97 0.5, 35.64 0.71, 41.83 2.48 C48.03 4.26, 54.05 8.25, 57.25 13.67 C60.45 19.09, 62.11 28.53, 61.02 34.99 C59.92 41.46, 55.72 48.12, 50.68 52.45 C45.64 56.78, 37.65 60.76, 30.75 60.96 C23.86 61.17, 14.42 58.1, 9.3 53.69 C4.17 49.28, 0.74 41.14, -0.01 34.48 C-0.76 27.82, 1.29 19.4, 4.78 13.72 C8.27 8.04, 18.34 2.42, 20.94 0.38 C23.55 -1.67, 20.57 0.66, 20.41 1.46" stroke="#000000" stroke-width="1" fill="none"></path></g><g stroke-linecap="round" transform="translate(170.47577037636944 391.8279718763961) rotate(0 10 10)"><path d="M0.6 5.82 C0.6 5.82, 0.6 5.82, 0.6 5.82 M0.6 5.82 C0.6 5.82, 0.6 5.82, 0.6 5.82 M0.49 13.25 C2.23 9.38, 5.21 7.81, 7.61 3.98 M0.48 12.21 C1.78 10.2, 3.96 7.93, 8.08 3.39 M2.15 14.26 C8.81 9.12, 12.57 4.3, 14.36 2.63 M2.61 16.4 C6.67 11.38, 9.91 6.37, 15.04 2.46 M4.87 19.02 C11.93 12.64, 14.31 8.17, 19.28 3.48 M5.79 18.96 C11.49 13.4, 14.76 7.76, 17.84 3.64 M10.82 21.35 C10.87 16.87, 13.64 12.2, 22.32 5.11 M9.29 19.39 C14.31 15.76, 18.52 10.81, 20.36 6.13 M14.33 22.42 C15.59 18.83, 17.62 14.09, 21.87 10.09 M12.56 21.63 C15.67 19.46, 16.8 17.38, 21.66 10.9 M4.73 17.42 C4.73 17.42, 4.73 17.42, 4.73 17.42 M4.73 17.42 C4.73 17.42, 4.73 17.42, 4.73 17.42 M11.8 19.05 C10.21 16.49, 7.53 12.95, 3.34 8.98 M11.25 18.17 C7.44 14.45, 4.58 11.54, 1.79 9.35 M15.83 15.42 C12.86 14.46, 6.3 9.18, 2.32 2.49 M16.51 17.48 C12.04 14.42, 8.68 11.42, 1.18 4.75 M18.61 14.57 C12.52 9.06, 7.95 3.45, 5.06 2 M19.47 13.45 C14.79 11.56, 10.86 7.99, 4.4 2.46 M22.08 9.12 C16.19 7.37, 13.93 4.56, 8.34 -0.94 M20.08 10.61 C15.83 7.03, 12.18 2.94, 9.18 -0.81" stroke="#7950f2" stroke-width="0.5" fill="none"></path><path d="M6.7 1.27 C8.57 0.39, 10.86 0.46, 12.85 0.88 C14.83 1.31, 17.4 2.26, 18.61 3.81 C19.82 5.35, 20.28 7.95, 20.1 10.16 C19.91 12.37, 19.07 15.36, 17.51 17.07 C15.95 18.79, 12.83 20.37, 10.72 20.44 C8.61 20.51, 6.61 18.95, 4.83 17.51 C3.06 16.08, 0.78 13.73, 0.05 11.82 C-0.69 9.91, -0.69 7.87, 0.41 6.04 C1.51 4.21, 5.62 1.87, 6.63 0.85 C7.64 -0.18, 6.37 -0.1, 6.47 -0.08 M10.92 1.47 C12.85 1.43, 15.56 2.01, 16.8 3.34 C18.04 4.66, 18.07 7.28, 18.35 9.43 C18.63 11.57, 19.36 14.4, 18.49 16.19 C17.62 17.98, 14.9 19.82, 13.13 20.15 C11.36 20.48, 9.67 19.06, 7.86 18.18 C6.06 17.29, 3.7 16.33, 2.3 14.85 C0.9 13.37, -0.49 11.16, -0.52 9.3 C-0.54 7.43, 0.67 5.14, 2.14 3.65 C3.6 2.17, 7.16 1.09, 8.27 0.37 C9.38 -0.35, 8.46 -0.91, 8.8 -0.68" stroke="#000000" stroke-width="1" fill="none"></path></g><g stroke-linecap="round" transform="translate(350.47577037636944 391.8279718763961) rotate(0 20 20)"><path d="M5.28 7.24 C5.28 7.24, 5.28 7.24, 5.28 7.24 M5.28 7.24 C5.28 7.24, 5.28 7.24, 5.28 7.24 M1.48 19 C5.93 12.73, 14.17 4.2, 16.88 -0.01 M-0.26 19.18 C4.69 14.22, 9.17 8.08, 15.89 2.34 M-0.01 25.67 C5.8 18.19, 12.01 10.19, 20.52 3.59 M2.36 23.75 C8.49 15.4, 14.62 9.53, 20.34 3.27 M4.02 29.83 C10.06 19.32, 18.07 12.42, 23.75 5.64 M3.95 28.89 C10.78 19.5, 17.42 12.23, 23.92 3.12 M5.63 31.49 C13.09 21.17, 20.25 13.56, 27.61 5.64 M3.45 33.47 C14.1 22.99, 23.18 11.38, 28.74 4.29 M8.56 34.3 C18.03 21.69, 25.69 11.61, 31.63 3.88 M7.42 35.42 C16.09 24.63, 24.91 14.91, 32.78 5.37 M10.96 35.5 C18.63 28.72, 26.5 17.23, 34.98 7 M11.49 36.39 C16.7 30.36, 21.5 25, 36.8 8.45 M15.7 40.87 C22.49 32.48, 28.13 24.13, 36.94 13.98 M14.35 38.49 C23.62 29.54, 33.74 17.43, 37.51 11.95 M16.35 42.84 C24.55 33.82, 28.54 29.4, 38.82 14.05 M18.51 41.19 C26.39 32.02, 34.12 23.15, 41.19 16.24 M24.89 38.52 C29.11 33.54, 33.49 27.92, 40.52 21.19 M23.71 39.14 C29.86 33.49, 34.48 28.08, 41.01 21.02 M3.79 32.23 C3.79 32.23, 3.79 32.23, 3.79 32.23 M3.79 32.23 C3.79 32.23, 3.79 32.23, 3.79 32.23 M18.43 39.22 C12.75 34.82, 7.28 29.21, 1.83 23.31 M18.23 39.23 C13.42 36.32, 9.6 32.95, 1.18 23.64 M24.15 38.5 C15.72 33.09, 6.57 25.76, 0.95 18.68 M23.28 37.18 C17.11 34.21, 11.7 29.85, -0.57 18.88 M26.32 38.36 C18.35 26.96, 6.8 20.61, 1.38 16.59 M28.31 36.89 C20.47 29.32, 13.03 23.61, 2.46 14.63 M31.97 37 C25.77 30.56, 18.59 24.02, 4.46 11.42 M30.9 36.24 C25.05 29.14, 16.62 22.42, 4.03 10.26 M33.75 32.92 C27.25 23.05, 19.39 17.71, 4.84 6.8 M34.4 31.62 C23.09 24.05, 13.53 13.94, 4.8 6.65 M37.43 28.76 C26.82 18.73, 14.84 8.09, 7.46 5.51 M36.07 28.5 C29.74 23.08, 20.14 15.07, 9.03 3.76 M41.25 27.8 C33.78 21.93, 26.26 15.2, 11.2 1.92 M40.26 25.73 C32.16 19.12, 24.27 12.34, 10.95 1.93 M40.42 23.12 C32.03 12.75, 24.62 6.5, 16.84 -1.53 M39.49 21.47 C32.09 14.84, 22.36 6.76, 16.4 0.13 M40.3 14.65 C32.58 7.34, 23.14 4.19, 18.71 -1.79 M39.48 16.05 C34.88 10.31, 29.18 7.3, 19.28 -2.73" stroke="#be4bdb" stroke-width="0.5" fill="none"></path><path d="M17.41 0.33 C21.46 -0.61, 27.42 1.01, 30.91 3.25 C34.41 5.49, 37.22 9.67, 38.36 13.77 C39.5 17.87, 39.23 23.88, 37.75 27.85 C36.26 31.82, 33 35.49, 29.47 37.57 C25.93 39.65, 20.79 41.2, 16.51 40.31 C12.23 39.42, 6.64 35.79, 3.79 32.23 C0.93 28.66, -0.87 23.11, -0.6 18.92 C-0.33 14.73, 2.31 10.27, 5.41 7.08 C8.51 3.9, 15.93 0.81, 18.02 -0.21 C20.11 -1.23, 18.05 0.6, 17.95 0.97 M29.64 2.38 C33.62 3.36, 37.33 6.14, 39.21 9.84 C41.08 13.53, 41.89 20.26, 40.89 24.55 C39.89 28.84, 36.78 32.87, 33.21 35.6 C29.63 38.33, 24.18 40.99, 19.43 40.91 C14.69 40.83, 8.04 38.39, 4.74 35.14 C1.45 31.89, -0.24 26.02, -0.34 21.43 C-0.44 16.84, 1.48 11.28, 4.14 7.6 C6.81 3.92, 11.56 0.49, 15.62 -0.63 C19.69 -1.75, 26.62 0.32, 28.54 0.87 C30.46 1.43, 27.2 2.18, 27.13 2.69" stroke="#000000" stroke-width="1" fill="none"></path></g><g stroke-linecap="round" transform="translate(290.47577037636944 291.82797187639596) rotate(0 30 30)"><path d="M11.94 6.4 C11.94 6.4, 11.94 6.4, 11.94 6.4 M11.94 6.4 C11.94 6.4, 11.94 6.4, 11.94 6.4 M0.51 24.67 C5.93 21.33, 9.11 15.8, 17.32 4.75 M0.69 24.81 C5.98 19.08, 10.1 14.68, 19.67 4.7 M4.09 28.34 C11.99 18.97, 19.35 10.84, 27.43 2.88 M2.18 30.27 C8 21.96, 16.31 14.57, 27.1 2.31 M4.52 34.92 C10.32 26.47, 19.67 16.76, 34 1.79 M3.57 36.16 C8.5 28.26, 15.55 19.62, 31.48 1.99 M2.34 40.14 C9.68 29.49, 19.84 21.02, 37.97 3.72 M4.31 41.04 C11.75 32.68, 18.04 22.58, 36.62 3.35 M4.33 45.33 C9.94 34.89, 18.22 26.65, 38.77 4.92 M5.45 45.13 C15.84 32.57, 27.19 18.15, 40.26 4.61 M5.93 47.31 C15.76 38.7, 20.82 29.81, 42.84 4.1 M6.82 47.96 C18.88 33.46, 31.71 21.72, 44.29 5.68 M12.44 51.14 C27.07 32.51, 41.72 15.62, 50.78 8.6 M10.06 49.82 C19.85 41.75, 26.26 31.99, 48.74 6.14 M14.81 54.49 C26.95 36.25, 43.67 17.99, 51.14 9.35 M13.16 53.85 C22.44 42.42, 32.13 31.35, 53.33 8.86 M16.07 54.37 C31.09 37.49, 45.37 23.17, 53.59 12.81 M16.69 55.51 C30.19 39.94, 43.95 24.63, 53.42 13.64 M18.55 57.28 C28.64 45.4, 39.9 34.32, 57.32 16.84 M19.78 58.43 C29.52 47.11, 39.59 36.27, 56.17 15.88 M24.98 58.45 C35.34 44.74, 44.99 33.58, 56.96 18.98 M24.99 58.35 C35.63 46.87, 45.71 35.59, 57.29 20.5 M30.3 59.72 C41.03 46.28, 50.33 36.56, 60.34 22.83 M28.98 58.77 C41.98 45.55, 53.13 32.82, 60.54 25.08 M36.2 59.79 C40.05 50.19, 48.99 43.29, 64.29 27.51 M34.72 59.87 C43.03 49.38, 52.76 39.2, 62.32 27.02 M41.53 60.61 C49.7 50.09, 57.34 40.84, 61.87 34.1 M40.76 60.64 C47.43 50.83, 54.81 42.45, 60.72 34.72 M3.29 43.47 C3.29 43.47, 3.29 43.47, 3.29 43.47 M3.29 43.47 C3.29 43.47, 3.29 43.47, 3.29 43.47 M21.32 55.2 C16.88 50.96, 11.91 46.38, 3.38 36.67 M21.06 55.18 C14.43 46.64, 5.61 41.59, 1.62 36.71 M30.53 56.42 C23.14 49.74, 15.1 42.01, 1 30.49 M28.46 55.73 C19.55 47.59, 10.03 38.1, 1 31.08 M41.01 58.69 C23.81 47.29, 10.68 36.23, -1.89 25.5 M39.36 59.37 C26.22 45.86, 11.61 35.24, -0.23 25.36 M41.55 57.28 C25.54 42.64, 14.05 29.94, 2.83 20.86 M42.96 57 C32.43 48.77, 24.99 40.65, 1.89 20.95 M46.98 55.08 C34.14 42.86, 21.7 35.13, 4.68 18.34 M46.55 53.97 C31.19 41.75, 17.79 28.9, 3.87 18.17 M50.51 51.38 C39.23 41.64, 26.26 31.79, 6.73 14 M49.69 51.65 C41.42 44.24, 33.11 35.99, 7.64 15.7 M51.63 50.33 C38.88 37.93, 24.56 24.24, 8.38 11.45 M50.85 49.56 C36.12 34.89, 20.25 21.92, 9.14 10.55 M54.91 44.74 C43.38 34.22, 26.68 20.71, 13.17 6.3 M56.01 45.92 C44.67 38.56, 35.43 29.87, 10.92 8.23 M58.56 42.69 C50.12 36.38, 37.85 25.23, 14.58 6.16 M58.01 43.98 C45.3 32.4, 33.55 22.31, 13.71 5.44 M57.99 40.02 C50.65 32.81, 40.65 25.23, 18.16 4.94 M59.85 39.15 C46.3 27.69, 33.41 16.61, 17.3 4.15 M61.13 32.75 C50.84 26.26, 42.35 19.33, 20.47 0.99 M60.87 35.28 C46.61 22.53, 33.07 9.94, 23.34 2.38 M59.76 30.42 C46.92 17.73, 33.75 7.03, 27.75 -0.64 M59.76 28.61 C53.18 21.25, 44.61 15.42, 26.7 0.24 M59.03 26.52 C54.46 17.7, 49.97 15.29, 32.19 -1.54 M60.94 23.92 C54.1 19.4, 48.38 11.96, 31.6 -0.69 M56.73 12.72 C51.45 9.92, 46.93 7.05, 42.07 4.28 M55.75 15.14 C50.76 10.83, 47.61 7.19, 42.4 2.78" stroke="#fa5252" stroke-width="0.5" fill="none"></path><path d="M31.21 0.52 C37.25 0.19, 45.67 3.07, 50.44 7.15 C55.22 11.23, 58.95 18.56, 59.87 25.01 C60.79 31.45, 59.41 40.17, 55.97 45.84 C52.53 51.5, 45.32 57.12, 39.23 59.01 C33.13 60.91, 25.41 59.81, 19.41 57.21 C13.41 54.61, 6.45 48.94, 3.23 43.43 C0.01 37.91, -1.37 30.28, 0.07 24.12 C1.51 17.96, 6.38 10.59, 11.88 6.47 C17.39 2.34, 29.05 0.37, 33.1 -0.63 C37.14 -1.63, 36.15 -0.33, 36.14 0.45 M33.04 1.31 C38.71 1.42, 45.22 5.58, 49.63 10.14 C54.05 14.69, 58.79 22.37, 59.54 28.67 C60.28 34.96, 57.52 43.09, 54.09 47.91 C50.65 52.73, 44.89 56.1, 38.93 57.59 C32.96 59.08, 24.4 59.17, 18.29 56.83 C12.19 54.49, 5.37 49.12, 2.28 43.57 C-0.8 38.02, -1.7 29.8, -0.21 23.53 C1.28 17.25, 5.94 9.96, 11.23 5.91 C16.52 1.86, 27.92 -0.04, 31.54 -0.79 C35.15 -1.53, 32.77 0.84, 32.94 1.46" stroke="#000000" stroke-width="1" fill="none"></path></g><g stroke-linecap="round" transform="translate(190.47577037636944 311.82797187639596) rotate(0 60 60)"><path d="M6.67 30.97 C6.67 30.97, 6.67 30.97, 6.67 30.97 M6.67 30.97 C6.67 30.97, 6.67 30.97, 6.67 30.97 M5.99 40.02 C11.79 31.79, 15.42 27.13, 27.94 12.03 M4.9 40.16 C10.36 32.4, 17.61 25.4, 29.87 9.97 M3.4 49.24 C12.27 34.6, 24.75 24.78, 36.49 7.97 M3.13 48.47 C12.06 35.98, 24.42 24.39, 37.73 7.54 M-2.02 58.8 C14.8 40.26, 34.21 18.18, 43.78 5.08 M0.07 58.29 C7.63 47.24, 16.83 37.29, 44.68 6.79 M1.97 62.67 C19.72 40.74, 41.75 16.19, 51.69 2.11 M1 61.34 C12.31 49.08, 21.8 38.77, 51.5 3.03 M2.95 66.33 C20.18 43.93, 41.02 21.17, 56.69 3.76 M1.92 65.26 C18.38 49.69, 33.61 31.12, 57.35 3.04 M3.4 71.14 C18.1 54.91, 30.87 41.42, 62.89 5.49 M4.77 71.84 C16.6 53.66, 31.74 37.34, 61.56 4.6 M5.34 73.97 C26.67 53, 43.19 31.98, 68.6 2.6 M4.82 75.41 C22.36 55.78, 41.42 34.35, 67.96 3.4 M8.23 80.55 C32.46 51.09, 55.2 22.95, 70.93 4.77 M6.24 79.96 C22.11 62.81, 35.4 44.86, 72.07 4.33 M4.72 88.25 C29.89 60.71, 52.86 29.77, 76.21 4.13 M6.66 86.69 C23.84 65.19, 43.21 44.29, 77.36 5.37 M7.85 89.35 C31.75 64.97, 54.99 36.65, 81.25 5.62 M7.99 89.07 C27.68 68.18, 46.49 47.49, 81.15 6.66 M9.71 92.95 C32.72 69.68, 54.68 44.18, 86.5 8.46 M11.85 91.55 C30.9 69.45, 49.75 47.74, 85.55 7.85 M15.15 97.22 C30.55 75.08, 48.72 55.3, 89.23 8.05 M15 95.58 C31.04 75.56, 48.57 56.73, 89.31 8.69 M16.36 97.71 C45.1 66.22, 70.24 38.92, 93.35 12.71 M16.62 98.68 C40.35 72.37, 62.58 45.62, 93.39 11.6 M18 101.43 C40.73 75.62, 61.86 52.95, 96.72 12.3 M19.17 102.33 C48.78 68.71, 77.26 34.96, 94.94 15.08 M20.49 106.91 C45.72 76.49, 73.78 46.06, 99.5 16.02 M22.39 104.8 C47.37 78.61, 69.65 49.43, 99.48 17.22 M23.76 106.75 C41.82 88.18, 61.28 69.39, 102.83 21.17 M24.8 107.48 C50.94 76.76, 77.52 46.94, 102.14 19.37 M27.19 111.47 C55.69 79.54, 82.9 49.96, 105.22 19.56 M26.29 111.52 C52.94 82.14, 76.78 53.99, 105.91 22.16 M31.35 113.74 C50.61 92.62, 67.6 70.05, 109.2 22.23 M31.67 111.82 C49.97 89.92, 70.74 66.7, 108.92 23.19 M34.02 112.82 C59.16 86.38, 86.67 57.08, 111.07 28.31 M35.33 114.27 C53.29 93.59, 69.85 73.89, 109.96 27.52 M38.56 115.74 C62.23 89.9, 85.09 61.92, 111.44 33.34 M39.38 114.72 C59.98 91.01, 81.5 67.32, 111.7 32.83 M44.53 118.7 C65.83 92.56, 88.68 63.56, 115.76 36.02 M42.94 117.15 C68.3 90.68, 91.73 60.97, 114.99 35.98 M47.47 117.62 C68.07 94.15, 88.64 69, 114.24 41.62 M47.7 117.96 C67.28 96.37, 88.61 72.27, 115.43 39.13 M50.77 119.38 C75.56 88.49, 102.42 60.94, 116.93 45.21 M52.46 120.09 C76.31 91.46, 101.39 64.07, 118.21 42.83 M58.25 120.75 C69.95 104.45, 85.95 87.25, 119.63 49.25 M57.45 119.61 C80.34 91.83, 102.46 67.4, 118.76 48.33 M61.31 119.88 C77.75 101.57, 96.66 82.82, 117.09 53.18 M62.18 118.09 C76.52 105.77, 88.59 91.73, 119.62 54.98 M70.75 119.35 C84.04 101.52, 94.49 85.26, 119.49 59.94 M69.02 117.41 C82.67 101.28, 96.45 84.86, 117.67 61.53 M73.35 116.79 C81.92 106.22, 91.42 94.25, 120.31 67.04 M74.44 117.09 C83.95 104.27, 95 92.87, 117.71 66.96 M79 116.63 C94.56 99.74, 110.43 86.01, 116.86 73.15 M79.92 117.93 C89.36 105.71, 99.15 96.47, 119.7 71.89 M91.19 109.92 C100.17 101.11, 106.05 93.51, 120.8 78.63 M91.1 110.54 C101.58 99.45, 111.62 85.76, 119.02 76.85 M102.25 104.29 C104.58 99.15, 107.26 96.06, 110.54 93.72 M101.16 104.89 C104.87 100.98, 109.05 96.95, 111.31 93.41 M24.85 108.6 C24.85 108.6, 24.85 108.6, 24.85 108.6 M24.85 108.6 C24.85 108.6, 24.85 108.6, 24.85 108.6 M35.73 114.57 C28.01 104.83, 20.26 100.84, 8.25 91.43 M35.21 113.12 C25.54 105.27, 17.82 96.17, 9.34 88.93 M48.22 116.27 C34.79 105.91, 20.57 94.65, 9.42 82.47 M47.94 118.47 C33.4 105.05, 18.74 94.3, 8.1 83.05 M52.8 118.06 C39.01 105.43, 24.85 93.03, 7.67 74.58 M52.75 117.48 C41.29 105.03, 28.12 95.44, 6.46 75.76 M58.14 117.52 C37.13 96.07, 15.71 81.01, 5.19 71.25 M57.09 116.93 C39.11 99.62, 19.31 82.2, 4.78 69.54 M65.26 114.31 C44.57 98.26, 25.01 84.82, 2.48 64.98 M64.39 116.38 C44.57 99.34, 25.15 80.7, 2.79 62.62 M69.73 115.91 C45.46 96.19, 22.11 76.68, 2.81 57.66 M68.98 114.66 C43.67 94.42, 20.55 74.61, 1.82 57.14 M76.17 116.77 C58.52 99.97, 42.63 88.2, 1.44 50.47 M74.27 114.79 C53.88 97.52, 32.95 77.64, 2.7 51.73 M79.38 116.07 C55.13 92.88, 31.4 72.36, 4.45 48.37 M80.66 114.57 C54.07 90.71, 26.19 68.03, 4.34 47.92 M85.27 111.62 C52.48 84.29, 22.13 59.13, 3.04 41.88 M84.14 112.21 C57.49 89.9, 30.86 66.12, 4.72 42.59 M87.65 112.23 C68.94 93.45, 48.74 77.9, 5.66 40.2 M87.81 111.52 C61.44 86.88, 36.14 65.26, 6.76 38.93 M89.53 108.96 C62.27 85.09, 32.89 56.69, 7.22 33.04 M90.9 108.91 C63.34 85.19, 34.83 60, 6.23 35.04 M95.91 107.52 C62.8 80.02, 31.61 51.53, 7.5 29.81 M96.29 106.58 C69.34 82.52, 42.64 59.95, 7.92 28.89 M98.89 102.81 C75.26 82.32, 48.89 59.37, 9.65 25.99 M99.34 104.88 C66.15 75.24, 34.19 47.9, 10.79 27.47 M104.19 101.37 C73.61 74.75, 40.43 51.52, 15.28 24.43 M103.08 101.47 C72.19 77.55, 42.5 51.97, 12.84 23.9 M107.25 98.51 C71.29 72.34, 37.46 40.95, 17.72 19.73 M106.13 100.3 C83.87 79.36, 62.15 62.18, 15.07 20.54 M105.75 95.52 C74.03 69.05, 41.25 40.48, 20.71 18.02 M107.81 95.53 C84.89 77.26, 62.1 57.42, 19.87 18.62 M111.98 92.02 C90.89 75.84, 71.51 60.19, 21.29 16.9 M110.34 91.76 C77.78 65.13, 46.29 36.65, 22.65 16.89 M110.57 89.28 C94.38 73.29, 73.73 56.31, 25.52 13.11 M111.22 90.01 C86.54 66.38, 60.3 45.16, 25.29 13.12 M115.67 87.21 C96.81 69.45, 78.13 50.73, 27.42 10.42 M114.17 84.6 C93.44 67.07, 72.06 48.51, 27.75 10.76 M117.12 83.61 C99.26 67.43, 79.6 51.21, 29.88 9.47 M115.99 81.12 C85.89 55.07, 56.2 29.03, 30.76 8.53 M116.4 78.58 C100.76 63.16, 83.08 44.98, 35.91 6.8 M118.24 78.64 C99.82 61.67, 80.69 45.53, 33.72 6.31 M119.81 72.39 C102.86 57.22, 82.2 43.62, 40.98 4.81 M119.16 74.34 C99.51 55.79, 76.72 37.85, 38.85 4.77 M119.41 67.28 C102.41 52.31, 87.37 39.7, 44.54 3.49 M118.27 69.13 C92.94 45.07, 66.13 22.11, 43.32 3.98 M117.75 63.85 C92.85 41.45, 66.07 16.97, 48.17 2.88 M119.88 62.81 C94.53 42.84, 68.65 19.58, 47.22 1.6 M117.23 56.36 C96.37 40.69, 74.69 22.63, 54.52 -1.07 M118.14 57.11 C101.57 43.42, 83.76 28.83, 53.17 -0.49 M120.83 53.06 C102.76 40.41, 91.67 27.93, 56.28 -2.7 M118.52 52.86 C101.47 37.89, 85.13 23.04, 56.97 -0.53 M116.56 46.16 C99.56 31.57, 77.87 11.38, 64.83 -2.21 M117.89 47.68 C99.46 29.93, 81.59 14.72, 63.07 0.22 M115.09 37.51 C105.53 29.28, 96.1 22.59, 69.41 -0.4 M114.99 38.53 C97.57 24.19, 81.02 8.17, 71.36 0.61 M108.8 29.74 C103.53 21.85, 96.4 16.47, 80.12 -0.29 M109.12 28.53 C100.36 20.37, 88.69 9.79, 78.94 0.7" stroke="#fa5252" stroke-width="0.5" fill="none"></path><path d="M83.22 4.8 C91.56 7.33, 99.58 14.39, 105.33 21.54 C111.09 28.7, 115.66 38.66, 117.73 47.71 C119.8 56.77, 119.99 66.89, 117.75 75.88 C115.52 84.87, 110.75 94.89, 104.33 101.64 C97.91 108.39, 88.18 113.53, 79.23 116.38 C70.28 119.23, 59.65 120.03, 50.62 118.76 C41.59 117.49, 32.45 114.22, 25.06 108.79 C17.68 103.35, 10.62 94.47, 6.31 86.17 C2 77.87, -0.91 68.23, -0.8 58.98 C-0.7 49.73, 2.11 38.86, 6.92 30.68 C11.73 22.5, 20.01 14.82, 28.05 9.91 C36.09 5.01, 45.15 1.64, 55.16 1.24 C65.16 0.85, 82.13 5.85, 88.06 7.55 C93.99 9.26, 91.3 10.55, 90.73 11.46 M46.64 2 C54.89 -0.9, 66.95 -0.51, 76.22 1.75 C85.49 4, 95.28 9.23, 102.25 15.53 C109.21 21.84, 115.11 30.71, 118 39.58 C120.89 48.45, 121.41 59.22, 119.59 68.73 C117.77 78.23, 112.61 88.96, 107.1 96.6 C101.59 104.24, 94.79 110.49, 86.51 114.56 C78.24 118.63, 67.06 121.64, 57.46 120.99 C47.86 120.35, 36.98 115.52, 28.89 110.71 C20.79 105.89, 13.85 99.52, 8.9 92.13 C3.94 84.73, -0.39 75.53, -0.87 66.32 C-1.34 57.12, 2.36 45.46, 6.03 36.88 C9.7 28.31, 14.03 20.81, 21.14 14.9 C28.26 8.98, 44.42 3.61, 48.74 1.4 C53.06 -0.82, 46.86 0.6, 47.06 1.6" stroke="#000000" stroke-width="1" fill="none"></path></g><g stroke-linecap="round" transform="translate(230.47577037636944 411.82797187639596) rotate(0 40 40.00000000000003)"><path d="M7.89 16.13 C7.89 16.13, 7.89 16.13, 7.89 16.13 M7.89 16.13 C7.89 16.13, 7.89 16.13, 7.89 16.13 M3.64 26.07 C9.37 20.89, 14.24 13.35, 22.8 7.48 M2.94 27.99 C8.73 20.9, 14.77 13.53, 22.4 6.38 M1.93 37.12 C10.92 24.12, 19.94 16.11, 28.69 6.72 M0.57 38.17 C9.57 26.19, 19.5 15.92, 27.49 6.45 M2.74 44.01 C13.4 28.6, 23.77 17.41, 33.49 3.04 M1.9 41.45 C12.99 27.84, 23.77 15.75, 33.23 5.12 M0.69 48.28 C17.42 32.44, 31.12 14.37, 38.79 4.26 M2.58 46.81 C16.91 29.55, 30.06 13.78, 38.71 3.29 M2.99 52.59 C17.36 34.36, 32.02 18.36, 44.52 3.04 M3.97 50.23 C17.52 36.16, 30.83 19.63, 45.51 2.01 M6.13 54.17 C15.82 42.97, 24.67 33.11, 53.48 2.05 M5.55 56.86 C19.53 40.15, 33.25 23.44, 50.94 3.42 M5.55 59.51 C24.63 41.03, 45.4 16.2, 53.18 4.92 M5.42 61.43 C18.4 46.37, 29.59 33.57, 53.72 4.39 M10.86 62.29 C27.75 42.65, 44.33 23.61, 59.5 8.62 M9.24 62.84 C24.73 44.7, 40.68 26.06, 58.38 6.63 M10.36 64.61 C28.17 46.81, 43.04 29.49, 63.33 7.24 M11.58 65.2 C31.93 42.15, 51.47 19.97, 61.72 9.18 M16.13 68.14 C33.9 49.48, 49.92 31.66, 65 9.88 M14.8 69.63 C28.68 52.23, 42.83 34.76, 65.98 10.02 M18.47 72.53 C29.46 59.29, 42.4 44.98, 70.07 9.83 M18.24 72.42 C35.08 52.35, 51.73 31.88, 70.44 11.97 M21.81 73.16 C31.17 63.57, 42.15 50.43, 70.56 17.05 M19.9 75.5 C40.3 51.76, 58.67 30.59, 71.43 16.9 M24.45 78.05 C38.57 59.54, 53.5 43.98, 75.26 19.27 M23.02 79.05 C34.65 65.48, 46.23 51.33, 74.4 19.53 M26.36 80.52 C41.91 63.92, 52.35 48.75, 76.36 22.03 M27.59 78.88 C42.29 62.06, 56.26 47.13, 75.36 23.19 M32.44 78.44 C47.54 62.27, 66.17 40.96, 76.53 25.54 M32.44 79.42 C51.18 58.43, 68.86 37.25, 77.72 27.44 M35.53 78.6 C50.33 67.1, 58.59 51.31, 81.45 29.92 M38.03 80.81 C48.78 68.29, 59.39 55.56, 79.61 30.95 M43.63 79.46 C53.46 68.79, 63.67 56.99, 77.6 38.14 M42.42 81.33 C53.73 66.02, 65.68 52.71, 79.45 37.24 M45.72 82.03 C58.78 70.53, 67.15 56.08, 79.98 44.36 M46.89 81.03 C58.85 66.44, 70.15 54.22, 78.43 44.68 M54.1 79.82 C62.07 69.9, 67.89 65.86, 78.72 49.76 M55.08 79.39 C60.5 72.13, 65.09 65.11, 78.96 51.07 M20.46 75.55 C20.46 75.55, 20.46 75.55, 20.46 75.55 M20.46 75.55 C20.46 75.55, 20.46 75.55, 20.46 75.55 M27.25 78.06 C23.01 73.6, 17.88 69.15, 5.39 59.46 M28.18 77.01 C20.82 70.28, 11.96 62.37, 5.73 57.87 M35.43 76.05 C27.83 71.03, 16.62 62.75, 7.1 52.42 M35.3 77.88 C27.61 72.88, 21.25 65.21, 4.57 52.65 M42.1 80.54 C34.22 71.23, 28.48 65.08, 4.65 43.78 M42.46 79.31 C30.7 69.01, 19.63 57.1, 2.61 45.47 M46.91 76.91 C30.1 59.17, 9.34 43.81, -1.33 37.35 M46.45 76.1 C28.79 61.25, 10.74 44.83, 0.73 36.55 M49.44 76.67 C32.59 58.16, 13.67 41.73, 1.29 31.09 M50.71 75.41 C31.76 59.09, 13.94 43.21, 1.02 31.96 M55.44 74.78 C42.02 63.23, 26.72 52.16, 1.58 30.56 M53.34 72.84 C35.68 56.38, 16.39 39.98, 3.06 28.83 M56.7 70.12 C44.29 61.95, 31.91 50.34, 5.73 23.84 M57.74 70.59 C46.1 59.39, 30.85 48.41, 5.83 24.93 M62.06 70.05 C47.96 57.19, 37.12 47.34, 4.32 19.52 M63.41 70.71 C46.42 56.49, 31.66 43.08, 5.8 20.43 M68.04 70.19 C47.66 47.56, 23.27 29.97, 6.13 17.14 M67.38 68.68 C52.44 55.69, 37.42 42.37, 8.49 17.05 M69.31 63.08 C51.75 50.12, 38.34 37.49, 11.47 14.44 M68.43 64.7 C51.64 50.01, 35.81 35.5, 10.61 12.98 M72.62 63.82 C50.18 45.02, 31.16 25.75, 13.47 9.87 M71.81 61.1 C51.17 43.52, 29.15 24.21, 13.09 12.19 M76.53 60.78 C59.5 46.4, 44.21 33.48, 18.39 8.44 M74.77 59.74 C51.39 39.78, 29.91 18.85, 16.23 7.92 M77.72 54.7 C58.1 37.54, 39.7 24.26, 17.98 6.89 M75.64 54.89 C63.98 43.3, 50.85 32.42, 19.79 6.61 M77.09 53.89 C57.62 32.5, 36.7 16.03, 21.96 4.22 M79.71 53.07 C58.65 33.62, 36.73 16.44, 22.3 4.17 M78.81 47.47 C59.14 27.71, 40.48 11.07, 25.68 2.21 M79.03 48.04 C60.47 30.84, 42.11 13.2, 26.41 1.16 M79.89 43.12 C61.19 25.86, 44.57 13.47, 33.6 2.63 M79.82 43.27 C68.63 33.55, 58.53 23.2, 31.28 1.76 M80.45 35.68 C63.79 22.99, 50.11 10.84, 35.15 0.41 M79.51 38.28 C67.09 26.15, 52.97 14.34, 38.1 -0.34 M81.86 34.3 C73.19 26.36, 62.18 19.01, 44.76 0.81 M80.6 32.48 C65.38 18.52, 51.19 5.9, 43.01 -1.09 M81.23 26.33 C73.24 19.82, 64.23 13.5, 47.47 -1.36 M82.01 28.79 C70.05 17.95, 58.01 7.34, 48.38 -0.08 M74.55 18.43 C73.6 15.04, 70.21 11.32, 64.75 8.37 M75.67 17.65 C72.12 14.27, 69.83 12.4, 63.76 7.46" stroke="#15aabf" stroke-width="0.5" fill="none"></path><path d="M48.26 0.2 C55.1 0.78, 62.82 5.33, 68.02 10.43 C73.23 15.54, 77.9 23.58, 79.51 30.82 C81.12 38.07, 80.08 47.19, 77.69 53.9 C75.29 60.61, 70.89 66.86, 65.13 71.09 C59.38 75.31, 50.57 78.46, 43.18 79.25 C35.78 80.03, 27.02 79.03, 20.74 75.8 C14.46 72.56, 8.98 66.3, 5.48 59.82 C1.98 53.34, -0.71 44.23, -0.26 36.9 C0.19 29.56, 3.89 21.36, 8.17 15.8 C12.45 10.25, 17.57 5.57, 25.42 3.57 C33.26 1.57, 49.09 3.13, 55.23 3.79 C61.36 4.44, 62.36 7.16, 62.21 7.48 M58.5 5.73 C65 8.04, 72.34 13.34, 76.04 19.44 C79.73 25.54, 81.45 34.81, 80.69 42.34 C79.92 49.87, 76.09 58.58, 71.45 64.62 C66.81 70.65, 59.74 76.07, 52.86 78.55 C45.98 81.02, 37.17 81.31, 30.17 79.46 C23.17 77.61, 15.67 72.47, 10.89 67.45 C6.11 62.43, 2.84 56.26, 1.51 49.34 C0.17 42.42, 0.28 33.01, 2.86 25.93 C5.45 18.86, 11.53 11.26, 17.02 6.88 C22.51 2.51, 28.79 0.21, 35.81 -0.3 C42.83 -0.81, 55.08 2.61, 59.15 3.8 C63.21 4.98, 60.46 6.19, 60.2 6.8" stroke="#000000" stroke-width="1" fill="none"></path></g><g stroke-linecap="round" transform="translate(450.47577037636944 431.827971876396) rotate(0 30 30)"><path d="M10.9 6.82 C10.9 6.82, 10.9 6.82, 10.9 6.82 M10.9 6.82 C10.9 6.82, 10.9 6.82, 10.9 6.82 M3.2 22.79 C7.38 16.96, 10.82 12.5, 18.97 4.12 M0.94 23.56 C6.12 19.6, 10.22 14.45, 18.2 3.42 M1.42 28.51 C12.66 18.79, 22.3 6.74, 25.92 3.29 M2.66 29.26 C9.82 21.5, 16.75 12.57, 25.67 1.93 M3.13 35.47 C13.95 23.11, 26.11 6.66, 31.9 2.66 M3.63 33.96 C13.78 20.77, 25.96 7.66, 32.56 1.81 M2.12 40.45 C9.77 32.46, 19.81 21.18, 35.2 1.42 M4.85 38.27 C14.71 26.05, 27.37 11.76, 36.34 3.31 M2.44 44.3 C12.38 32.34, 24.66 22.8, 38.32 3.13 M4.8 43.99 C16.84 30.03, 30.92 13.77, 39.39 4.11 M6.82 45.51 C14.13 37.08, 21.1 30.4, 44.56 7.08 M6.64 48.35 C15.72 38.79, 22.37 31.2, 43.38 6.51 M9.32 52.06 C23.05 35.51, 40.37 15.4, 45.16 7.33 M10.51 49.67 C18.37 39.98, 27 31.12, 47.02 7.2 M13.12 53.4 C24.46 36.53, 40.18 21.72, 51.84 11.49 M14.09 52.19 C22.55 43.59, 31.16 33.3, 50.38 9.86 M14.99 55.35 C25.2 45.08, 33.6 37.36, 53.31 11.35 M16.77 54.66 C25.04 45.47, 33.5 36.61, 54.14 12.57 M18.57 57.85 C26.24 50.67, 34.73 40.59, 53.8 18.89 M19.62 58.9 C26.91 48.27, 35.2 39.63, 55.76 17.56 M23.45 56.54 C35.28 45.44, 43.5 35.07, 56.87 21.59 M24.27 59.2 C35.03 45.1, 45.73 34.42, 58.08 21.36 M28.5 59.36 C39.86 47.8, 47.02 37.72, 57.35 26.04 M28.86 59.62 C35.39 51.59, 43.16 43.1, 58.98 24.14 M32.94 59.54 C43.84 49.74, 54.1 36.81, 59.79 29.7 M34.9 58.89 C42.77 50.19, 49.4 42.04, 60.47 28.27 M39.57 59.73 C47.91 50.67, 54.32 42.28, 61.06 34.53 M39.19 59.17 C47.61 49.34, 55.3 40.56, 59.11 35.76 M52.38 51.47 C53.36 48.76, 56.59 46.99, 58.1 44.06 M51.76 51.44 C52.81 49.28, 55.24 47.34, 58.25 44.06 M17.87 57.18 C17.87 57.18, 17.87 57.18, 17.87 57.18 M17.87 57.18 C17.87 57.18, 17.87 57.18, 17.87 57.18 M25.11 58.67 C16.88 51.62, 9.98 46.45, 4.45 43.18 M24.8 57.46 C18.92 53.45, 15.16 49.89, 6.02 41.97 M31 56.5 C21.62 46.92, 11.26 40.84, 4.95 34.63 M29.97 57.8 C22.78 50.56, 14.49 44.09, 5.66 35.81 M37.04 60.53 C28.83 51.36, 20.07 42.21, 5.92 29.76 M38.19 59.62 C26.18 47.72, 13.77 38.02, 5.34 30.74 M39.14 55.22 C27.69 44.06, 13.23 32.56, 2.36 20.92 M40.74 55.83 C25.86 42.54, 12.16 30.15, 2.91 21.24 M43.67 52.31 C28.69 40.57, 13.82 26.15, 3.62 17.35 M44.11 54.15 C29.37 42.13, 16.87 29.42, 4.81 18.29 M48.02 50.17 C33.39 40.09, 23.12 31.46, 7.54 14.71 M47.29 51.3 C39.41 44.15, 29.57 36.74, 5.86 14.57 M51.38 48.19 C37.86 40.67, 25.26 26.74, 10.16 11.21 M52.22 49.1 C35.75 34.24, 18.89 19.7, 7.79 11.56 M56.12 45.32 C38.24 35.39, 26.57 20.41, 9.41 8.97 M53.92 45.84 C39.66 34.53, 27.2 21.06, 10.54 8.5 M59.49 43.79 C47.92 34.64, 36.61 24.95, 11.55 4.34 M57.96 43.77 C40.06 28.06, 23.43 12.73, 13.49 5.61 M57.57 38.36 C42.91 25.04, 28.96 15.29, 18.61 4.5 M59.04 41.11 C42.17 27.44, 27.46 13.35, 16.61 2.4 M59.23 34.04 C49.51 26.77, 38 16.46, 20.82 0.57 M58.69 35.57 C51.54 27.28, 41.89 19.39, 21.56 1.61 M59.53 32.57 C54.98 24.47, 44.52 16.7, 24.53 0.1 M61.44 31.65 C49.14 20.74, 38.74 11.96, 25.4 1.45 M59.14 25.03 C48.56 14.86, 38.6 4.8, 29.19 0.13 M59.93 24.95 C48.18 15.46, 37.57 6.54, 30.24 -0.53 M55.45 15.36 C52.33 12.47, 47.86 10, 45.09 5.71 M54.92 14.77 C52.89 13.18, 50.35 10.81, 43.43 5.09" stroke="#be4bdb" stroke-width="0.5" fill="none"></path><path d="M30.95 0.19 C36.84 0.16, 44.78 4.24, 49.56 8.6 C54.35 12.95, 58.65 19.92, 59.66 26.33 C60.67 32.73, 59.21 41.67, 55.64 47.02 C52.06 52.37, 44.54 56.76, 38.21 58.43 C31.89 60.1, 23.45 59.44, 17.7 57.03 C11.94 54.62, 6.5 49.63, 3.7 43.95 C0.9 38.27, -0.33 29.18, 0.91 22.96 C2.14 16.73, 4.94 10.22, 11.1 6.59 C17.26 2.96, 32.12 1.49, 37.88 1.18 C43.64 0.88, 45.55 4.12, 45.66 4.77 M37.78 0.34 C43.87 1.38, 51.31 5.67, 55.15 10.96 C59 16.25, 61.56 25.4, 60.85 32.05 C60.15 38.71, 55.46 46.38, 50.93 50.89 C46.4 55.4, 39.71 58.54, 33.69 59.1 C27.66 59.66, 19.96 57.78, 14.77 54.24 C9.58 50.69, 4.58 43.9, 2.55 37.83 C0.51 31.77, 0.48 23.48, 2.56 17.85 C4.65 12.22, 9.33 6.87, 15.07 4.07 C20.82 1.26, 33.56 1.32, 37.05 1.03 C40.54 0.73, 36.43 2.08, 36 2.29" stroke="#000000" stroke-width="1" fill="none"></path></g><g stroke-linecap="round" transform="translate(390.47577037636944 271.82797187639596) rotate(0 50 50)"><path d="M14.1 16.23 C14.1 16.23, 14.1 16.23, 14.1 16.23 M14.1 16.23 C14.1 16.23, 14.1 16.23, 14.1 16.23 M4.74 35.51 C11.32 27.25, 17.12 16.85, 26.85 8.37 M4.34 34.41 C12.08 25.19, 18.88 17.77, 24.94 10.3 M4.73 41.54 C11.09 32.05, 15.71 26.12, 37.78 2.87 M3.53 41.27 C12.99 28.93, 22 19.96, 36.83 4.12 M3.62 44.65 C13 35.45, 21.6 28.9, 38.87 4.32 M3.36 46.74 C13.55 35.36, 21.32 25.52, 40.85 5.23 M3.02 52.67 C19.29 34.43, 33.78 20.6, 45.46 4.23 M2.94 51.7 C13.76 42.19, 21.97 30.9, 46.58 4.04 M2.84 58.24 C15.23 43.99, 24.98 33.49, 49.68 3.2 M3.83 57.21 C18.85 41.23, 35.29 24.18, 50.57 3.85 M5.9 64.04 C19.07 49.07, 33.03 32.04, 58.82 4.01 M3.36 65.41 C25.99 39.13, 44.75 16.03, 56.44 2.68 M4.94 67.66 C27.52 43.95, 50.65 15.51, 64.47 3.59 M5.48 67.13 C19.81 52.19, 32.87 38.73, 62.82 2.95 M9.29 73.62 C22.06 57.93, 34.38 40.82, 65.72 3.46 M8.17 71.64 C25.14 53.66, 41.65 33.1, 66.34 4.6 M11.81 73.76 C25.17 60.28, 38.2 44.76, 68.87 5.62 M10.2 75.7 C25.02 58.88, 37.97 44.25, 70.09 6.76 M11.51 78.66 C29.38 59.19, 49.17 38.87, 74.63 7.54 M12.49 78.8 C29.73 59.48, 47.98 39.48, 74.65 7.44 M14.62 80.88 C39.25 55.38, 64.3 28.63, 78.65 10.32 M14.99 83.02 C37.8 56.02, 61.45 28.75, 77.33 9.37 M15.77 87.34 C43.53 56.17, 66.79 27.57, 82.58 12.66 M16.63 87.19 C31.51 69.98, 45.03 54.21, 81.1 12.74 M21.11 88.8 C31.53 75.44, 44.58 58.52, 86.59 14.98 M20.26 89.06 C42.84 62.39, 67.28 34.17, 85.83 15.01 M24.18 89.3 C43.39 67.65, 62.36 44.47, 88.55 17.95 M23.19 90.46 C37.05 75.77, 49.77 59.96, 87.25 16.17 M25.66 91.3 C53.73 62.17, 77.17 35.88, 89.78 21.09 M26.86 93.2 C43.47 74.91, 61.18 54.12, 89.52 21.07 M32.55 93.42 C51.94 69.6, 75.03 47.37, 94.2 24.78 M30.72 94.45 C54.47 66.83, 77.85 39.48, 92.13 24.09 M32.64 97.1 C52.02 77.24, 69.39 56.08, 96.21 27.63 M34.49 96.21 C47.29 82.98, 59.81 67.11, 94.56 28.32 M38.95 98.8 C62.78 73.8, 85.65 46.49, 95.74 31.97 M37.41 99.12 C50.38 82.86, 64.24 68.79, 97.15 31.69 M41.63 99.67 C53.05 84.68, 68.97 71.76, 99.5 36.27 M41.87 100.98 C59.95 80.59, 77.93 58.86, 99.07 35.16 M45.68 100.24 C60.38 84.39, 75.43 67.68, 102.01 38.31 M45.98 101.06 C65.49 77.88, 85.43 55.75, 101.19 38.57 M50.82 102.14 C71.37 79.79, 89.59 58.69, 100.25 46.67 M51.17 100.55 C67.6 83.46, 84.2 64.56, 99.46 45.9 M58.67 101.76 C70.8 83.71, 87.65 65.48, 100.54 49.08 M56.14 101.99 C73.47 80.41, 92.85 60.76, 101.64 50.27 M65.08 98.17 C72.89 86.77, 81.01 77.46, 101.96 55.7 M63.04 99.86 C78.26 83.18, 90.92 68.01, 101.41 56.99 M74.06 92.83 C82.62 84.72, 86.53 81.36, 99.36 64.51 M76.12 92.02 C84.15 82.77, 90.98 72.88, 101.22 63.64 M14.85 85.04 C14.85 85.04, 14.85 85.04, 14.85 85.04 M14.85 85.04 C14.85 85.04, 14.85 85.04, 14.85 85.04 M31.91 97.8 C25.78 90.07, 14.97 78.69, 8.49 75.68 M33.39 96.06 C26.38 89.65, 20.22 83.82, 8.5 73.86 M40.59 95.01 C25.29 82.63, 11.83 70.78, 1.73 66.52 M40.69 96.1 C28.57 86.39, 17.69 77.44, 3.63 63.93 M44.46 95.28 C33.36 86.74, 21.06 77.77, 6.5 58.35 M45.94 96.2 C33.7 84.65, 18.94 73.51, 5.35 61.19 M50.8 96.84 C41.44 89.08, 30.83 78.39, 4.15 55.6 M53.16 96.75 C35.09 82.42, 19.28 67.4, 3.24 53.82 M59.16 96.76 C45.93 84.89, 32.49 73.65, 3.9 48.1 M58.29 95.31 C40.2 80.19, 22.11 65.12, 5.48 49.14 M64.18 94.82 C45.03 78.87, 21.01 60.19, 2.33 45.81 M63.79 97.14 C40.72 77.01, 17.11 57.35, 5.07 44.07 M69.85 94.05 C46.82 74.8, 20.79 55.03, 3.76 35.9 M67.69 93.52 C43.01 71.08, 18.4 51.02, 1.96 37 M70.19 93.15 C56.49 80.63, 43.3 66.69, 4.03 35.21 M72.01 92.87 C56.02 77.75, 38.12 62.56, 5.69 33.89 M74.18 90.48 C59.56 76.52, 42.32 61.59, 8.29 31.69 M74.51 90.43 C62.83 78.92, 47.47 65.78, 6.85 30.48 M77.14 87.82 C64.29 73.92, 46.1 60.02, 10.07 26.68 M77.87 86.76 C54.66 66.3, 30.34 44.74, 9.03 26.27 M83.56 86.93 C64.41 72.25, 48.4 57.75, 12.38 22.2 M81.23 86.06 C55.23 61.49, 28.2 37.61, 9.67 22.51 M84.34 84.05 C69.63 67.85, 53.58 52.72, 14.23 20.76 M87.3 83.3 C58.24 60.27, 31.6 38.11, 13.35 19.77 M90.18 81.17 C62.61 56.35, 31.14 32.23, 14.49 14.6 M88.43 79.27 C71.66 64.79, 56.2 50.73, 13.4 15.86 M88.36 75.06 C72.09 59.45, 51.85 43.76, 19.9 14.79 M89.27 76.34 C65.84 55.96, 41.9 33.98, 18.78 14.68 M93.79 74.56 C68.72 52.29, 44.76 32.72, 21.4 9.9 M92.55 73.43 C76.45 60.16, 61.47 46.31, 22.11 11.58 M96.08 69.13 C81.28 55.21, 63.05 40.69, 24.95 9.04 M93.94 69.28 C70.63 48.16, 44.17 27.14, 25.31 10.14 M97.89 63.95 C77.59 48.45, 58.96 31.25, 27.6 7.78 M97.16 65.32 C82.44 52.91, 68.07 39.95, 29.45 6.79 M100.42 63.18 C77.62 41.61, 55.4 23.39, 33.04 5.34 M99.3 63.56 C78.92 44.93, 58.02 27.79, 33.05 5.75 M99.03 59.11 C85.67 48.25, 73.89 34.87, 35.91 1.75 M101.17 59.55 C86.32 45, 69.78 32.57, 36.2 2.88 M102.02 56.04 C81.54 39.47, 61.3 19.39, 40.61 2.39 M101.91 54.93 C82.01 37.77, 64.27 21.1, 40.18 -0.06 M101.25 50.08 C85.44 35.35, 73.74 22.35, 44.17 1.81 M100.32 48.96 C89.8 37.99, 75.94 27.27, 46.01 -0.84 M102.36 41.06 C89.01 32.05, 79.01 22.24, 51.18 1.03 M100.98 43.12 C87.93 32.29, 75.82 20.61, 50.31 0.19 M100.42 37.72 C87.01 26.99, 75.56 17.13, 56.5 -1.42 M98.52 36.07 C82.74 23.47, 69.13 10.99, 55.64 -0.05 M93.16 24.2 C81.82 17.14, 69.93 4.57, 62.24 1.11 M92.79 24.85 C84.82 18.11, 74.53 9.63, 64.36 0.88" stroke="#12b886" stroke-width="0.5" fill="none"></path><path d="M62.46 0.66 C70.35 1.99, 79.5 8.04, 85.45 14.07 C91.39 20.11, 95.85 28.95, 98.13 36.89 C100.42 44.84, 101.26 53.83, 99.17 61.72 C97.07 69.62, 91.59 78.15, 85.56 84.28 C79.53 90.42, 70.9 96.15, 62.97 98.54 C55.05 100.93, 46.03 100.86, 38 98.61 C29.97 96.35, 20.72 90.94, 14.79 84.99 C8.85 79.03, 4.63 70.62, 2.41 62.88 C0.19 55.14, -0.52 46.35, 1.47 38.53 C3.46 30.71, 8.36 21.99, 14.35 15.95 C20.34 9.91, 28.25 4.53, 37.4 2.3 C46.56 0.07, 63.06 1.81, 69.3 2.59 C75.55 3.37, 75.15 6.12, 74.87 6.99 M65.11 1.65 C72.64 3.57, 80.35 10.06, 85.74 16.38 C91.14 22.69, 95.68 31.49, 97.47 39.54 C99.26 47.6, 98.85 57.03, 96.51 64.69 C94.17 72.34, 89.18 79.69, 83.45 85.47 C77.72 91.26, 70.03 97.37, 62.12 99.41 C54.22 101.46, 43.95 100.46, 36.04 97.75 C28.13 95.05, 20.68 89.29, 14.69 83.19 C8.69 77.09, 2.18 69.24, 0.08 61.14 C-2.01 53.04, -0.71 42.32, 2.13 34.61 C4.97 26.9, 11.03 20.57, 17.14 14.88 C23.26 9.19, 30.74 2.47, 38.83 0.46 C46.92 -1.54, 61.45 2.62, 65.68 2.86 C69.91 3.1, 64.81 1.1, 64.22 1.9" stroke="#000000" stroke-width="1" fill="none"></path></g><g stroke-linecap="round" transform="translate(110.47577037636944 291.82797187639596) rotate(0 40 40)"><path d="M7.94 17.51 C7.94 17.51, 7.94 17.51, 7.94 17.51 M7.94 17.51 C7.94 17.51, 7.94 17.51, 7.94 17.51 M3.58 28.16 C9.01 22.76, 17.26 15.22, 25.17 4.42 M3.63 28.64 C7.52 24.23, 12.8 18.96, 23.86 4.93 M-2.43 39.67 C11.72 27.59, 22.7 14.91, 27.09 6 M-0.62 39.47 C9.46 28.12, 19.46 17.41, 27.01 6.97 M-0.92 45.71 C12.14 28.96, 24.15 16.03, 32.7 7.34 M-0.06 43.33 C13.85 29.26, 26.35 16.38, 33.38 5.64 M3.1 50.18 C8.6 37.53, 19.2 30.24, 38.42 6.4 M1.49 47.43 C14.78 32.86, 27.03 19.47, 40.61 3.88 M1.95 54.19 C12.34 39.13, 25.34 28.18, 45.36 1.95 M3.57 53 C16.1 37.68, 29.53 22.13, 47.49 3.26 M3.81 56.71 C23.23 40.91, 37.68 20.2, 52.6 4.45 M5.3 57.63 C21.47 38.33, 38 20.92, 50.02 3.59 M7.92 62.56 C19.16 45.63, 33.38 30.48, 56.85 5.49 M5.38 62.15 C17.79 47.68, 28.4 35.59, 54.79 6.21 M7.81 66.3 C27.83 43.42, 49.97 20.54, 60.54 6.73 M8.93 64.2 C25.29 47.03, 40.74 28.87, 59.7 7.63 M10.47 68.24 C22 56.23, 32.58 44.42, 62.2 11.39 M11.45 67.11 C25.23 52.9, 38.25 39.06, 62.16 8.89 M14.85 70.54 C37.33 46.21, 54.55 23.65, 67.67 12.33 M15.03 69.68 C31.58 50.61, 49.17 29.7, 66.98 10.36 M20.38 71.73 C38.14 51.98, 52.12 32.2, 70.04 15.64 M19.57 71.58 C38.05 50.46, 56.92 27.36, 70.03 13.13 M23.55 73.56 C42.43 52.71, 59.92 34.38, 70.71 17.4 M21.07 73.93 C33.7 60.52, 46.43 46.86, 71.97 16.54 M23 78.3 C43.03 57.06, 61.76 33.28, 75.3 19.78 M25.48 77.37 C39.9 59.78, 55.32 41.38, 74 22.1 M29.42 78.01 C38.72 66.5, 48.31 53.53, 75.52 23.59 M28.3 79.19 C41.8 63.05, 54.33 49.38, 76.3 24.76 M35.45 80.21 C47.73 62.12, 60.53 49.47, 76.35 28.6 M33.18 79.64 C47.44 62.15, 63.44 45.5, 79.06 29.07 M39.47 78.32 C46.66 70.57, 56.18 57.46, 79.87 32.34 M39.43 80.29 C55 60.72, 70.64 42.04, 80.94 30.72 M42.84 82.06 C57.09 63.38, 71.08 48.99, 81.2 37.71 M42.02 81.15 C54.1 67.46, 66.08 53.27, 80.77 37.94 M49.03 80.71 C55.7 73.55, 63.79 64.09, 80.86 46.43 M46.37 81.71 C59.28 69.14, 69.47 56.37, 78.62 45.78 M55.41 77.92 C65.15 69.9, 68.52 60.84, 78.08 53.73 M56.93 76.53 C65.08 67.72, 74.07 57.42, 78.82 52.47 M4.96 61.36 C4.96 61.36, 4.96 61.36, 4.96 61.36 M4.96 61.36 C4.96 61.36, 4.96 61.36, 4.96 61.36 M26.33 74.01 C21.33 67.7, 15.52 65.82, 3.15 56.37 M25.2 73.84 C18.44 67.52, 12.4 63.03, 3.74 55.33 M33.78 75.18 C24.82 69.12, 15.45 58.12, 2.19 48.45 M33.84 75.03 C23.8 66.54, 16.54 58.88, 1.12 49.03 M39.73 78.35 C29.27 68.05, 17.26 57.32, -1.8 40.1 M41.47 77.28 C28.52 65.78, 18.53 57.54, -0.36 40.76 M46 75.92 C29.85 62.55, 16.49 51.82, -0.58 37.53 M48.2 78.19 C31.85 64.64, 16.23 50.83, 1.2 36.19 M50.61 74.88 C36.85 63.63, 23.69 54.58, 1.16 34.51 M50.72 74.32 C33.13 59.01, 16.01 44.66, 3.66 33.98 M56.76 73.09 C38.76 56.48, 20.47 43.28, 5.84 28.15 M55.04 73.26 C44.61 64.66, 35 54.87, 3.58 28.31 M61.18 69.97 C49.38 62.18, 36.04 50.52, 4.39 24.61 M59.52 71.14 C48.59 62.55, 35.48 50.33, 5.32 24.42 M62.64 70.88 C49.28 54.04, 31.22 41.74, 7.43 19.69 M63.13 68.78 C41.02 50.05, 19.56 32.28, 6.98 19.97 M65.34 66.93 C46.95 49.69, 28.28 33.68, 9.75 15.25 M67.56 68.25 C50.28 53.71, 33.01 37.88, 8.55 17.23 M68.12 65.52 C52.42 50.1, 36.06 33.85, 10.7 12.36 M70.11 65.22 C58.57 53.79, 44.73 43.74, 11.06 14.97 M72.41 62.09 C52.18 43.92, 31.78 29.35, 15.37 9.84 M72.4 61.46 C56.2 46.69, 40.44 33.02, 15.46 10.89 M75.16 57.9 C52.7 40.64, 29.36 21.21, 18.58 8.02 M74.99 58.48 C55.53 41.92, 37.67 27.01, 17.34 10.05 M74.25 54.64 C57.75 35.23, 37.53 18.58, 21.78 6.54 M75.52 54.8 C64.33 44.21, 53.01 34.78, 21.52 6.5 M77.72 51.44 C68.51 40.44, 56.96 33.69, 25.49 5.53 M77.68 50.84 C58.54 33.54, 39.3 18.22, 25.23 3.27 M76.64 47.48 C63.95 32.19, 51.25 23.38, 27.51 0.05 M78.77 46.29 C64.27 33.27, 50.89 23.57, 28.06 2.52 M77.16 40.95 C66 29.61, 52.1 14.58, 33.09 -0.74 M79.47 40.82 C64.14 27.37, 51.22 16.83, 32.81 1.56 M77.59 36.39 C66.04 22.09, 53.65 13.22, 36.58 0.96 M79.65 36.22 C69.89 28.4, 58.85 18.2, 36.88 -0.89 M80.9 29.05 C67.32 21.23, 53.73 9.44, 43.22 -2.73 M78.58 30.55 C67.46 20.97, 56.35 10.81, 42.77 -0.17 M80.62 27.41 C73.06 17.25, 61.73 12.34, 47.69 -1.42 M81.57 27.43 C70.03 16.57, 58.73 7.58, 48.36 -2.01" stroke="#e64980" stroke-width="0.5" fill="none"></path><path d="M45.61 1.08 C52.54 1.62, 61.11 5.46, 66.69 10.32 C72.26 15.17, 77.25 23.3, 79.06 30.21 C80.88 37.12, 79.91 45.13, 77.56 51.79 C75.21 58.45, 70.35 65.45, 64.97 70.16 C59.6 74.86, 52.34 79.08, 45.31 80.01 C38.28 80.93, 29.5 78.81, 22.8 75.72 C16.1 72.63, 9.01 67.58, 5.1 61.48 C1.18 55.38, -1.11 46.4, -0.68 39.13 C-0.26 31.86, 3.36 23.67, 7.63 17.86 C11.91 12.05, 17.36 6.75, 24.96 4.26 C32.56 1.77, 47.83 2.56, 53.25 2.92 C58.67 3.28, 57.81 5.74, 57.49 6.41 M30.65 1.6 C37.03 -0.59, 46.94 -0.19, 54 2.08 C61.06 4.36, 68.51 9.55, 73.02 15.25 C77.52 20.94, 80.65 29, 81.02 36.25 C81.39 43.49, 79.09 52.12, 75.23 58.73 C71.37 65.34, 64.15 72.34, 57.85 75.92 C51.55 79.5, 44.48 80.75, 37.42 80.22 C30.36 79.7, 21.52 77.43, 15.48 72.77 C9.45 68.1, 3.69 59.2, 1.21 52.25 C-1.26 45.29, -1.02 37.62, 0.61 31.05 C2.25 24.48, 5.57 17.81, 11 12.84 C16.44 7.86, 29.85 2.84, 33.22 1.19 C36.6 -0.46, 31.2 2.33, 31.25 2.95" stroke="#000000" stroke-width="1" fill="none"></path></g><g transform="translate(10.47577037636944 211.82797187639596) rotate(0 128.5 12.5)"><text x="0" y="18" font-family="Virgil, Segoe UI Emoji" font-size="20px" fill="#000000" text-anchor="start" style="white-space: pre;" direction="ltr">Indice de Calidad del Aire</text></g><g stroke-linecap="round"><g transform="translate(519.9855538670056 49.76800687785271) rotate(0 0.5729201059186835 140.14060853905977)"><path d="M-0.39 0.84 C-0.23 47.16, 0.15 232.68, 0.32 279.02 M1.61 0.23 C1.69 47.19, -0.22 233.48, -0.46 280.05" stroke="#000000" stroke-width="1" fill="none"></path></g></g><g stroke-linecap="round"><g transform="translate(519.5219646709659 331.0324474575382) rotate(0 290.52110578963527 -0.3031021429218015)"><path d="M0.84 0.32 C97.16 0.48, 482.68 0.72, 579.02 0.6 M-0.18 -0.56 C96.41 -0.72, 484.33 -1.41, 581.22 -1.2" stroke="#000000" stroke-width="1" fill="none"></path></g></g><g transform="translate(518.8931577048236 10) rotate(0 64 12.5)"><text x="0" y="18" font-family="Virgil, Segoe UI Emoji" font-size="20px" fill="#000000" text-anchor="start" style="white-space: pre;" direction="ltr">Temperatura</text></g><g stroke-linecap="round"><g transform="translate(559.7941340085092 297.1576695912829) rotate(0 271.34705890802064 -113.06945094453793)"><path d="M-0.98 0.6 C32.03 -6.19, 137.2 -11.24, 198.88 -40.41 C260.56 -69.58, 311.62 -143.39, 369.09 -174.45 C426.55 -205.5, 514.6 -218.17, 543.67 -226.74 M0.71 -0.13 C34 -6.77, 139.22 -10.17, 201 -39.09 C262.78 -68, 314.32 -142.54, 371.39 -173.62 C428.45 -204.71, 514.45 -216.42, 543.4 -225.59" stroke="#c92a2a" stroke-width="1" fill="none"></path></g></g><g stroke-linecap="round"><g transform="translate(559.6472531306529 290) rotate(0 273.0108128938578 -99.3573838377092)"><path d="M0.6 -1.12 C43.81 -4.48, 193.18 2.18, 259.59 -21.13 C326 -44.45, 351.28 -111.25, 399.05 -141 C446.83 -170.74, 521.58 -189.86, 546.27 -199.62 M-0.54 0.9 C42.45 -2.26, 191.43 3.32, 258.43 -20.19 C325.43 -43.71, 353.43 -110.38, 401.45 -140.2 C449.48 -170.02, 522.44 -189.21, 546.56 -199.13" stroke="#862e9c" stroke-width="1" fill="none"></path></g></g><g stroke-linecap="round"><g transform="translate(680.2817873888432 290.892426130902) rotate(0 208.85012287683782 -70.74126053341664)"><path d="M-1.12 -0.41 C35.52 -4, 165.51 -4.36, 218.87 -20.95 C272.22 -37.53, 285.68 -80.23, 319 -99.91 C352.33 -119.59, 402.18 -132.51, 418.82 -139.03 M0.49 -1.67 C37.57 -5.19, 167.5 -3.76, 220.98 -19.9 C274.46 -36.05, 288.46 -78.35, 321.38 -98.54 C354.29 -118.74, 401.93 -133.88, 418.45 -141.07" stroke="#2b8a3e" stroke-width="1" fill="none"></path></g></g><g stroke-linecap="round"><g transform="translate(658.8931577048236 270) rotate(0 220.66025854505602 -90.33870241981137)"><path d="M-0.41 -1.13 C19.33 -24.45, 72.3 -110.99, 119.05 -141 C165.81 -171, 226.44 -177.82, 280.09 -181.18 C333.74 -184.53, 414.15 -164.84, 440.97 -161.12 M1.58 0.88 C21.63 -22.21, 74.97 -109.75, 121.27 -139.98 C167.57 -170.21, 225.96 -177.04, 279.37 -180.48 C332.78 -183.92, 414.95 -163.76, 441.73 -160.6" stroke="#364fc7" stroke-width="1" fill="none"></path></g></g><g stroke-linecap="round"><g transform="translate(560.6417633923486 290.9256667816669) rotate(0 267.99811401796535 -91.54464063525444)"><path d="M-1.13 -0.95 C18.89 -24.19, 72.35 -110.23, 119 -139.91 C165.66 -169.59, 209.13 -192.36, 278.82 -179.03 C348.51 -165.69, 493.71 -79.73, 537.13 -59.91 M0.47 1.17 C20.95 -21.83, 74.42 -107.98, 121.19 -138.32 C167.96 -168.66, 211.83 -193.59, 281.1 -180.86 C350.36 -168.13, 493.89 -82.2, 536.79 -61.94" stroke="#e67700" stroke-width="1" fill="none"></path></g></g><g stroke-linecap="round"><g transform="translate(559.1872186635221 274.50772003936936) rotate(0 270.27690000403663 -112.52134541108602)"><path d="M-0.95 -1 C19.14 -24.34, 73.15 -103.74, 120.09 -141.18 C167.03 -178.62, 210.57 -231.93, 280.68 -225.63 C350.78 -219.33, 497.41 -123.71, 540.72 -103.39 M0.76 1.1 C20.73 -22.04, 72.58 -102.59, 119.19 -140.26 C165.8 -177.93, 210.04 -230.72, 280.42 -224.9 C350.81 -219.08, 498.32 -125.69, 541.5 -105.36" stroke="#0b7285" stroke-width="1" fill="none"></path></g></g></svg>