<svg width="533" height="410" viewBox="0 0 533 410" fill="none" xmlns="http://www.w3.org/2000/svg">
<path d="M255.467 395.79L19.6144 253.496C12.0991 249.199 5.66314 242.127 12.9519 237.49L249.697 98.2426C253.242 95.9986 258.638 94.5299 262.249 96.665L509.881 243.337C517.396 247.785 518.742 260.228 511.214 264.675L286.567 395.559C281.851 398.353 276.501 399.845 271.047 399.885C265.593 399.926 260.223 398.514 255.467 395.79Z" fill="#CC483E"/>
<path opacity="0.32" d="M111.61 236.66C111.85 236.211 105.294 234.865 105.534 234.416C105.84 233.315 101.643 233.056 101.936 231.982C90.8898 226.991 88.6113 225.263 80.2165 217.022L27.3296 253.864C37.9896 260.568 48.8095 267.11 59.7493 273.338L120.258 236.524C120.445 235.681 111.384 238.795 111.61 237.966C111.486 237.771 111.42 237.545 111.42 237.313C111.42 237.081 111.486 236.854 111.61 236.66V236.66Z" fill="url(#paint0_linear_1_5)"/>
<path opacity="0.32" d="M469.906 269.653C470.119 269.258 464.456 268.102 464.669 267.722C464.936 266.783 461.311 266.579 461.565 265.627C452.037 261.33 450.079 259.834 442.91 252.694L397.312 284.49C406.532 290.27 415.82 295.914 425.294 301.286L469.386 272.998C469.546 272.273 469.72 271.548 469.906 270.822C469.79 270.65 469.728 270.446 469.728 270.238C469.728 270.029 469.79 269.825 469.906 269.653Z" fill="url(#paint1_linear_1_5)"/>
<path d="M394.42 212.289C394.42 212.289 393.341 264.417 391.755 265.899C390.169 267.382 383.36 217.852 383.36 217.852" fill="#844040"/>
<path d="M449.665 276.983C466.194 276.983 479.593 268.97 479.593 259.086C479.593 249.202 466.194 241.189 449.665 241.189C433.137 241.189 419.738 249.202 419.738 259.086C419.738 268.97 433.137 276.983 449.665 276.983Z" fill="#FF912E"/>
<path d="M419.738 259.086V253.918L422.989 258.052L419.738 259.086Z" fill="#E0944F"/>
<path d="M479.607 253.918V259.086H475.796L478.581 254.938L479.607 253.918Z" fill="#E0944F"/>
<path d="M449.665 271.815C466.194 271.815 479.593 263.802 479.593 253.918C479.593 244.034 466.194 236.021 449.665 236.021C433.137 236.021 419.738 244.034 419.738 253.918C419.738 263.802 433.137 271.815 449.665 271.815Z" fill="#FFB92C"/>
<path d="M464.856 251.524C465.066 251.944 465.149 252.417 465.096 252.884L464.976 253.36H459.513C459.563 253.206 459.599 253.046 459.619 252.884C459.598 252.521 459.483 252.169 459.286 251.864C458.977 251.322 458.512 250.89 457.954 250.627C457.158 250.202 456.279 249.965 455.382 249.933C454.551 249.871 453.718 250.001 452.943 250.314C452.179 250.65 451.886 251.103 452.064 251.674C452.32 252.334 452.716 252.929 453.223 253.415C453.812 254.028 454.364 254.678 454.876 255.36C455.117 255.653 455.273 256.011 455.325 256.391C455.377 256.771 455.323 257.158 455.169 257.508C454.566 258.523 453.617 259.274 452.504 259.616C450.665 260.395 448.698 260.81 446.707 260.84C444.562 260.913 442.42 260.605 440.378 259.929L437.233 261.289L433.542 259.453L436.594 258.093C436.043 257.714 435.55 257.256 435.128 256.733C434.815 256.365 434.571 255.941 434.408 255.482C434.305 255.156 434.242 254.818 434.222 254.476C434.184 254.241 434.184 254.003 434.222 253.768L434.328 253.496H439.792C439.735 253.684 439.69 253.874 439.658 254.068C439.683 254.524 439.836 254.963 440.098 255.332C440.536 256.03 441.167 256.579 441.91 256.91C442.897 257.418 443.978 257.705 445.082 257.753C446.081 257.821 447.083 257.659 448.013 257.277C448.768 256.942 449.052 256.488 448.866 255.917C448.595 255.252 448.18 254.657 447.653 254.176C447.053 253.57 446.496 252.92 445.988 252.232C445.747 251.933 445.597 251.57 445.554 251.187C445.512 250.803 445.579 250.415 445.748 250.069C446.399 249.04 447.385 248.279 448.533 247.921C450.299 247.193 452.185 246.814 454.089 246.805C456.106 246.734 458.118 247.052 460.019 247.744L463.15 246.384L466.575 248.288L463.43 249.648C464.059 250.134 464.551 250.782 464.856 251.524V251.524Z" fill="#EA8B24"/>
<path d="M449.719 269.163C463.598 269.163 474.85 262.435 474.85 254.136C474.85 245.836 463.598 239.108 449.719 239.108C435.839 239.108 424.588 245.836 424.588 254.136C424.588 262.435 435.839 269.163 449.719 269.163Z" stroke="#F7931E" stroke-width="6.09" stroke-miterlimit="10"/>
<path d="M449.665 267.123C466.194 267.123 479.593 259.11 479.593 249.226C479.593 239.342 466.194 231.329 449.665 231.329C433.137 231.329 419.738 239.342 419.738 249.226C419.738 259.11 433.137 267.123 449.665 267.123Z" fill="#FF912E"/>
<path d="M419.738 249.226V244.058L422.989 248.193L419.738 249.226Z" fill="#E0944F"/>
<path d="M479.607 244.058V249.226H475.796L478.581 245.078L479.607 244.058Z" fill="#E0944F"/>
<path d="M449.665 261.955C466.194 261.955 479.593 253.943 479.593 244.058C479.593 234.174 466.194 226.161 449.665 226.161C433.137 226.161 419.738 234.174 419.738 244.058C419.738 253.943 433.137 261.955 449.665 261.955Z" fill="#FFB92C"/>
<path d="M464.856 241.719C465.066 242.138 465.149 242.612 465.096 243.079L464.976 243.555H459.513C459.563 243.4 459.599 243.241 459.619 243.079C459.598 242.715 459.483 242.363 459.286 242.059C458.977 241.516 458.512 241.084 457.954 240.822C457.158 240.396 456.279 240.159 455.382 240.128C454.551 240.066 453.718 240.196 452.943 240.509C452.179 240.844 451.886 241.298 452.064 241.869C452.32 242.529 452.716 243.123 453.223 243.609C453.812 244.223 454.364 244.872 454.876 245.554C455.117 245.848 455.273 246.205 455.325 246.586C455.377 246.966 455.323 247.353 455.169 247.703C454.566 248.718 453.617 249.469 452.504 249.811C450.665 250.59 448.698 251.005 446.707 251.035C444.562 251.108 442.42 250.799 440.378 250.124L437.233 251.484L433.542 249.648L436.594 248.288C436.043 247.909 435.55 247.451 435.128 246.928C434.815 246.559 434.571 246.135 434.408 245.677C434.305 245.35 434.242 245.012 434.222 244.67C434.184 244.436 434.184 244.197 434.222 243.963L434.328 243.691H439.792C439.735 243.878 439.69 244.069 439.658 244.262C439.683 244.718 439.836 245.157 440.098 245.527C440.536 246.224 441.167 246.773 441.91 247.105C442.897 247.613 443.978 247.9 445.082 247.948C446.081 248.016 447.083 247.853 448.013 247.472C448.768 247.136 449.052 246.683 448.866 246.112C448.605 245.477 448.215 244.907 447.72 244.439C447.12 243.833 446.563 243.183 446.054 242.494C445.814 242.196 445.663 241.833 445.621 241.449C445.578 241.066 445.646 240.678 445.815 240.332C446.466 239.303 447.452 238.542 448.599 238.183C450.366 237.455 452.251 237.077 454.156 237.068C456.173 236.996 458.185 237.315 460.086 238.006L463.217 236.646L466.642 238.55L463.497 239.91C464.092 240.386 464.56 241.009 464.856 241.719V241.719Z" fill="#EA8B24"/>
<path d="M449.719 259.303C463.598 259.303 474.85 252.575 474.85 244.276C474.85 235.976 463.598 229.248 449.719 229.248C435.839 229.248 424.588 235.976 424.588 244.276C424.588 252.575 435.839 259.303 449.719 259.303Z" stroke="#F7931E" stroke-width="2.03" stroke-miterlimit="10"/>
<path d="M437.966 259.589C454.495 259.589 467.894 251.576 467.894 241.692C467.894 231.808 454.495 223.795 437.966 223.795C421.437 223.795 408.038 231.808 408.038 241.692C408.038 251.576 421.437 259.589 437.966 259.589Z" fill="#FF912E"/>
<path d="M408.038 241.692V236.524L411.289 240.658L408.038 241.692Z" fill="#E0944F"/>
<path d="M467.894 236.524V241.692H464.096L466.881 237.544L467.894 236.524Z" fill="#E0944F"/>
<path d="M437.966 254.421C454.495 254.421 467.894 246.408 467.894 236.524C467.894 226.64 454.495 218.627 437.966 218.627C421.437 218.627 408.038 226.64 408.038 236.524C408.038 246.408 421.437 254.421 437.966 254.421Z" fill="#FFB92C"/>
<path d="M453.143 234.131C453.353 234.55 453.437 235.023 453.383 235.49L453.263 235.966H447.8C447.85 235.812 447.886 235.652 447.907 235.49C447.885 235.127 447.77 234.775 447.573 234.47C447.265 233.928 446.799 233.496 446.241 233.233C445.445 232.808 444.566 232.571 443.669 232.539C442.839 232.477 442.005 232.607 441.231 232.92C440.467 233.256 440.174 233.709 440.351 234.28C440.607 234.94 441.003 235.535 441.51 236.021C442.099 236.634 442.651 237.284 443.163 237.966C443.405 238.259 443.561 238.617 443.612 238.997C443.664 239.377 443.61 239.764 443.456 240.114C442.853 241.129 441.904 241.88 440.791 242.222C438.952 243.001 436.985 243.416 434.995 243.446C432.849 243.519 430.707 243.211 428.665 242.535L425.52 243.895L421.829 242.059L424.881 240.699C424.331 240.32 423.837 239.862 423.415 239.339C423.102 238.971 422.858 238.547 422.696 238.088C422.592 237.762 422.53 237.424 422.509 237.082C422.471 236.847 422.471 236.609 422.509 236.374L422.616 236.102H428.079C428.022 236.29 427.978 236.48 427.946 236.674C427.97 237.13 428.123 237.569 428.385 237.938C428.823 238.636 429.454 239.185 430.198 239.516C431.184 240.024 432.265 240.311 433.369 240.359C434.369 240.428 435.371 240.265 436.3 239.883C437.055 239.548 437.34 239.094 437.153 238.523C436.882 237.858 436.467 237.263 435.941 236.782C435.384 236.198 434.868 235.576 434.395 234.919C434.155 234.621 434.004 234.258 433.961 233.874C433.919 233.491 433.986 233.103 434.155 232.757C434.806 231.728 435.793 230.967 436.94 230.608C438.706 229.881 440.592 229.502 442.497 229.493C444.513 229.421 446.525 229.74 448.426 230.431L451.558 229.071L454.982 230.975L451.837 232.335C452.412 232.814 452.86 233.431 453.143 234.131Z" fill="#EA8B24"/>
<path d="M438.019 251.769C451.899 251.769 463.15 245.041 463.15 236.742C463.15 228.442 451.899 221.714 438.019 221.714C424.14 221.714 412.888 228.442 412.888 236.742C412.888 245.041 424.14 251.769 438.019 251.769Z" stroke="#F7931E" stroke-width="2.03" stroke-miterlimit="10"/>
<path d="M164.231 118.588V210.63L138.273 225.794L108.958 208.114V116.072" fill="#FF734D"/>
<path d="M164.231 118.588L134.103 101.085L108.958 116.072L138.273 133.738L164.231 118.588Z" fill="#FFB5A4"/>
<path d="M138.273 133.738V225.794L108.958 208.114V116.072L138.273 133.738Z" fill="#F78B72"/>
<path d="M108.146 135.614L138.274 153.117V226.011L112.316 241.162L83.0015 223.482V150.601L108.146 135.614Z" fill="#68E1FD"/>
<path opacity="0.49" d="M138.274 153.117L108.146 135.614L83.0015 150.601L112.316 168.267L138.274 153.117Z" fill="white"/>
<path opacity="0.2" d="M112.316 168.267V241.162L83.0015 223.482V150.601L112.316 168.267Z" fill="black"/>
<path d="M112.316 207.638V241.597L86.3593 256.76L57.0443 239.081V205.122" fill="#FFAD4A"/>
<path d="M112.316 207.638L82.2019 190.136L57.0443 205.122L86.3593 222.788L112.316 207.638Z" fill="#FFDD99"/>
<path d="M86.3593 222.788V256.76L57.0443 239.081V205.122L86.3593 222.788Z" fill="#FFC36C"/>
<path d="M209.362 165.561C210.415 168.648 206.791 228.677 208.523 229.479C210.255 230.282 219.503 166.214 219.503 166.214" fill="#844040"/>
<path opacity="0.32" d="M324.744 309.078C324.85 309.078 393.594 264.39 393.66 264.444L279.065 193.182L223.993 173.082L165.896 210.44C181.14 219.769 308.5 301.707 324.744 309.078Z" fill="url(#paint2_linear_1_5)"/>
<path opacity="0.32" d="M190.201 328.539C197.05 330.688 207.39 341.786 214.426 343.227C218.73 344.111 224.979 350.326 229.323 350.666L246.779 331.912L297.307 293.561L261.57 268.293L167.229 312.968C178.555 321.427 176.969 324.405 190.201 328.539Z" fill="url(#paint3_linear_1_5)"/>
<path d="M254.361 252.803C249.271 249.172 243.275 247.186 236.812 248.641C229.923 250.192 223.953 254.612 216.931 255.7C215.825 255.876 211.388 255.577 210.708 256.23C191.16 275.106 245.793 273.08 245.793 273.08C251.123 268.646 256.08 264.281 261.343 259.807C259.758 256.176 257.079 254.748 254.361 252.803Z" fill="#F8997C"/>
<path d="M228.644 280.165L226.698 337.121C226.618 339.283 229.91 339.283 229.99 337.121L231.935 280.165C232.002 278.017 228.724 278.017 228.644 280.165Z" fill="#844040"/>
<path d="M269.605 310.642C259.655 300.669 250.15 290.297 241.089 279.526C239.757 277.881 237.398 280.261 238.757 281.906C247.809 292.704 257.315 303.076 267.273 313.022C268.792 314.532 271.124 312.152 269.605 310.642Z" fill="#844040"/>
<path d="M217.197 274.902C209.478 289.78 202.202 304.89 195.371 320.23C194.505 322.188 197.33 323.888 198.209 321.93C205.032 306.599 212.307 291.489 220.036 276.602C221.075 274.685 218.237 272.998 217.197 274.902Z" fill="#844040"/>
<path d="M260.437 258.134C257.145 262.731 252.514 266.148 247.205 267.898C239.73 270.183 228.884 269.109 224.953 261.248C217.81 246.969 224.513 229.085 216.958 215.2C216.079 213.437 214.846 211.884 213.34 210.639C211.834 209.395 210.088 208.489 208.216 207.978C203.326 206.904 199.982 210.589 198.209 214.941C195.025 222.734 195.145 232.431 195.305 240.781C195.316 247.467 195.802 254.144 196.757 260.759C196.757 260.759 201.327 288.597 236.945 281.158C243.102 280.036 249.022 277.832 254.441 274.644C257.208 273.045 259.636 270.9 261.583 268.334C263.755 265.124 262.316 261.33 260.437 258.134Z" fill="#68E1FD"/>
<path d="M252.189 175.258C252.189 175.258 233.747 256.488 236.932 258.637C240.116 260.786 262.702 182.737 262.702 182.737" fill="#844040"/>
<path d="M325.583 245.146C326.636 248.233 323.011 308.262 324.744 309.065C326.476 309.867 335.723 245.799 335.723 245.799" fill="#844040"/>
<path d="M201.327 169.301L201.168 163.127L203.473 166.431L201.994 169.423" fill="#D37800"/>
<path d="M408.331 214.125L408.251 207.217L405.613 208.087L406.972 213.881" fill="#D37800"/>
<path d="M205.511 162.746L260.597 130.283C262.55 129.133 264.765 128.527 267.02 128.527C269.274 128.527 271.49 129.133 273.442 130.283L404.027 207.258C405.334 208.026 406.419 209.132 407.173 210.464C407.927 211.796 408.324 213.307 408.324 214.846C408.324 216.385 407.927 217.896 407.173 219.229C406.419 220.561 405.334 221.667 404.027 222.435L348.848 254.952C346.981 256.052 344.862 256.631 342.706 256.631C340.549 256.631 338.431 256.052 336.563 254.952L205.471 177.705C204.187 176.944 203.121 175.851 202.382 174.536C201.642 173.221 201.255 171.73 201.259 170.214C201.263 168.698 201.658 167.209 202.405 165.898C203.151 164.587 204.223 163.5 205.511 162.746V162.746Z" fill="#D37800"/>
<path d="M205.405 155.157L260.49 122.695C262.443 121.544 264.658 120.938 266.913 120.938C269.168 120.938 271.383 121.544 273.336 122.695L403.921 199.669C405.227 200.437 406.312 201.543 407.066 202.875C407.821 204.207 408.218 205.719 408.218 207.258C408.218 208.796 407.821 210.308 407.066 211.64C406.312 212.972 405.227 214.078 403.921 214.846L348.742 247.363C346.874 248.463 344.756 249.043 342.599 249.043C340.442 249.043 338.324 248.463 336.456 247.363L205.365 170.117C204.08 169.355 203.014 168.262 202.275 166.947C201.536 165.632 201.148 164.141 201.152 162.625C201.156 161.109 201.552 159.621 202.298 158.31C203.045 156.999 204.116 155.911 205.405 155.157V155.157Z" fill="#FCA930"/>
<path d="M301.971 211.8C302.877 212.031 329.581 228.555 329.581 228.555L368.649 205.925L341.853 189.605L301.971 211.8Z" fill="white"/>
<path d="M325.343 210.44C326.249 210.671 352.953 227.195 352.953 227.195L392.022 204.592L365.225 188.272L325.343 210.44Z" fill="#68E1FD"/>
<path d="M285.088 284.844C285.088 284.844 284.795 289.93 286.341 291.344C287.887 292.759 296.188 288.815 298.333 290.216C300.479 291.616 289.992 301.789 286.341 302.36C282.69 302.931 279.185 297.519 279.185 297.519V305.189L274.975 307.637L271.83 305.746L272.749 284.844H285.088Z" fill="#8787D1"/>
<path d="M270.857 288.584C275.281 292.473 280.052 292.351 285.515 289.944C289.512 282.845 294.123 239.625 284.182 232.743C273.522 225.332 256.986 226.651 254.214 227.467L213.573 234.267C210.455 239.706 218.717 268.048 236.759 268.837C254.801 269.626 266.327 262.703 266.327 262.703L270.857 288.584Z" fill="#124577"/>
<path d="M255.054 170.062C253.119 170.933 251.518 172.429 250.497 174.319L250.43 174.469C247.565 176.849 247.125 181.269 244.087 183.363C244.087 183.445 241.236 185.498 241.196 185.58C241.156 185.661 241.476 181.581 241.462 181.622C240.476 184.342 239.517 187.144 238.664 189.945C238.797 190.028 238.94 190.092 239.09 190.136L238.771 190.299L238.491 190.462C238.454 190.602 238.385 190.732 238.29 190.84C238.195 190.949 238.077 191.034 237.945 191.088C237.828 191.496 237.831 191.931 237.952 192.338C238.072 192.746 238.306 193.109 238.624 193.384C238.943 193.658 239.333 193.833 239.746 193.887C240.16 193.94 240.58 193.87 240.956 193.685L250.15 189.102C251.374 188.834 252.576 188.475 253.748 188.028C253.748 187.048 253.895 186.069 253.988 185.09C254.716 183.951 255.154 182.643 255.261 181.287C255.368 179.931 255.141 178.569 254.601 177.325C254.646 177.259 254.7 177.199 254.761 177.148V177.039C255.522 176.496 256.17 175.804 256.666 175.003C257.162 174.203 257.498 173.309 257.652 172.374C257.839 171.001 256.52 169.369 255.054 170.062Z" fill="#F7931E"/>
<path d="M243.368 178.916C243.368 178.916 253.841 185.552 254.934 191.088C254.934 191.088 247.579 207.407 248.072 208.046C256.386 219.116 231.455 201.042 231.455 201.042C231.455 201.042 236.505 185.566 243.368 178.916Z" fill="#68E1FD"/>
<path d="M267.22 182.982C268.086 190.367 258.851 200.662 254.961 202.634C249.631 205.354 247.552 182.724 224.1 182.819C222.581 182.819 214.986 179.514 210.988 189.714C206.991 199.914 210.988 229.153 213.653 234.253C215.998 238.754 231.642 249.553 253.961 237.993L254.294 227.453C254.294 227.453 267.473 227.167 274.442 217.267C280.944 208.046 284.809 194.147 284.196 187.348C278.919 185.063 272.403 181.241 267.22 182.982Z" fill="#68E1FD"/>
<path d="M243.368 178.916C243.368 178.916 253.841 185.552 254.934 191.088C254.934 191.088 247.579 207.407 248.072 208.046C256.386 219.116 231.455 201.042 231.455 201.042C231.455 201.042 236.505 185.566 243.368 178.916Z" fill="#8787D1"/>
<path d="M257.466 150.9L285.288 157.17L280.585 196.99L253.855 188.136" fill="#68E1FD"/>
<path d="M286.181 173.979C286.109 173.662 285.971 173.365 285.777 173.107C285.582 172.849 285.336 172.637 285.054 172.485C284.772 172.333 284.462 172.244 284.144 172.225C283.825 172.206 283.507 172.257 283.21 172.374C283.082 171.804 282.767 171.295 282.317 170.933C281.955 170.656 281.519 170.497 281.067 170.478C280.615 170.458 280.168 170.579 279.785 170.824C279.541 170.964 279.32 171.143 279.132 171.354L278.999 171.191C278.693 170.826 278.287 170.564 277.833 170.438C277.379 170.312 276.899 170.328 276.454 170.484C276.192 170.608 275.956 170.784 275.761 171.001C275.502 169.7 275.173 168.415 274.775 167.152C274.402 165.887 273.789 163.562 272.256 163.276C271.257 163.086 270.791 163.834 270.591 164.718C270.331 165.318 270.293 165.995 270.484 166.622C270.551 167.481 270.671 168.335 270.844 169.178C270.977 170.375 271.11 171.586 271.217 172.782C271.01 172.777 270.809 172.855 270.657 173C269.928 173.549 269.388 174.321 269.118 175.203C268.847 176.086 268.859 177.034 269.152 177.909C269.817 180.425 270.737 182.864 271.897 185.185C271.944 185.288 272.012 185.38 272.096 185.454C272.18 185.529 272.279 185.586 272.385 185.62C272.491 185.654 272.603 185.666 272.714 185.655C272.825 185.643 272.932 185.608 273.029 185.552L273.149 186.001C273.201 186.197 273.317 186.369 273.478 186.487C273.639 186.606 273.835 186.665 274.033 186.654C274.231 186.643 274.42 186.562 274.567 186.426C274.714 186.29 274.811 186.106 274.841 185.906V185.743C274.928 185.812 275.028 185.863 275.135 185.892L275.201 186.858C275.268 187.756 276.534 187.756 276.854 187.008L276.933 187.715C277.04 188.708 278.586 188.599 278.626 187.62V186.831C278.768 186.825 278.906 186.788 279.033 186.722C279.159 186.656 279.271 186.564 279.359 186.45C279.511 186.644 279.73 186.771 279.972 186.804C280.085 186.9 280.222 186.962 280.368 186.984C280.514 187.005 280.662 186.985 280.798 186.926V187.144C280.872 187.378 281.029 187.575 281.239 187.696C281.449 187.817 281.696 187.853 281.93 187.796C281.93 187.892 281.93 187.987 281.93 188.096C281.93 189.211 283.663 189.36 283.636 188.232C283.636 185.992 283.578 183.753 283.463 181.513C283.558 181.467 283.644 181.402 283.716 181.323C285.501 179.528 287.034 176.509 286.181 173.979ZM276.987 172.293C277.057 172.246 277.136 172.215 277.219 172.203C277.302 172.191 277.387 172.199 277.466 172.225C277.422 172.293 277.387 172.366 277.36 172.442H276.84C276.882 172.385 276.931 172.335 276.987 172.293V172.293Z" fill="#F7931E"/>
<path d="M239.997 162.12C239.997 162.365 241.449 177.325 238.171 180.616C234.893 183.907 226.179 182.547 224.007 178.943C221.835 175.339 219.196 170.593 221.501 165.017C223.807 159.441 239.597 158.448 239.997 162.12Z" fill="#F7931E"/>
<path d="M267.22 182.982C268.086 190.367 258.851 200.662 254.961 202.634C249.631 205.354 247.552 182.724 224.1 182.819C222.581 182.819 214.986 179.514 210.988 189.714C206.991 199.914 210.988 229.153 213.653 234.253C215.998 238.754 231.642 249.553 253.961 237.993L254.294 227.453C254.294 227.453 267.473 227.167 274.442 217.267C280.944 208.046 284.809 194.147 284.196 187.348C278.919 185.063 272.403 181.241 267.22 182.982Z" fill="#8787D1"/>
<path d="M265.381 224.869C259.298 227.098 252.658 227.18 246.524 225.101C240.39 223.023 235.117 218.904 231.549 213.405C231.082 212.67 229.923 213.405 230.403 214.085C234.121 219.841 239.623 224.16 246.028 226.351C252.433 228.543 259.374 228.481 265.74 226.175C266.5 225.889 266.194 224.57 265.381 224.869Z" fill="#124577"/>
<path d="M252.202 200.104C251.012 197.261 249.245 194.707 247.019 192.611C244.46 190.231 241.302 188.721 238.637 186.504C238.104 186.056 237.305 186.831 237.865 187.293C240.383 189.388 243.341 190.856 245.86 193.019C248.221 195.117 250.085 197.735 251.31 200.675C251.549 201.314 252.482 200.757 252.202 200.104Z" fill="#124577"/>
<path d="M243.847 157.483C243.301 151.091 232.814 149.717 226.831 150.207C220.849 150.697 214.959 155.348 212.88 164.881C210.801 174.414 213.013 174.21 210.868 178.481C208.723 182.751 204.899 179.841 204.419 187.851C203.939 195.861 207.723 195.031 205.058 198.731C202.393 202.43 198.396 202.538 200.741 209.502C203.086 216.465 228.724 224.747 236.425 218.056C244.127 211.365 234.746 204.551 234.267 200.376C233.787 196.201 236.785 194.651 236.425 189.388C236.066 184.125 230.269 184.437 231.469 179.12L231.602 178.508C229.603 177.243 227.111 173.422 229.656 171.708C230.156 171.369 230.75 171.206 231.349 171.243C231.948 171.279 232.518 171.514 232.974 171.912C233.707 169.342 234.853 167.383 237.292 167.111C238.517 166.921 244.607 166.214 243.847 157.483Z" fill="#75361A"/>
<path d="M262.023 261.384C261.882 261.023 261.653 260.705 261.357 260.46C261.062 260.214 260.711 260.05 260.336 259.982C259.961 259.914 259.575 259.944 259.215 260.071C258.855 260.197 258.533 260.415 258.278 260.704C255.274 264.054 251.453 266.532 247.205 267.885C239.73 270.17 228.884 269.095 224.953 261.235C217.837 247.009 224.473 229.207 217.064 215.336C215.791 212.84 213.869 210.75 211.508 209.298C204.845 205.367 200.368 209.665 198.183 214.914C194.998 222.707 195.118 232.403 195.278 240.754C195.297 247.45 195.791 254.135 196.757 260.759C196.757 260.759 201.327 288.597 236.945 281.158C243.102 280.036 249.022 277.832 254.441 274.644C257.208 273.045 259.636 270.9 261.583 268.334C262.232 267.31 262.612 266.134 262.689 264.917C262.766 263.701 262.537 262.485 262.023 261.384Z" fill="#68E1FD"/>
<path d="M472.091 91.0755L347.236 15.0126V121.661L472.091 193.712V91.0755Z" fill="#68E1FD"/>
<path d="M356.857 32.0666V120.723" stroke="#29ABE2" stroke-width="1.015" stroke-miterlimit="10"/>
<path d="M378.43 45.843V134.486" stroke="#29ABE2" stroke-width="1.015" stroke-miterlimit="10"/>
<path d="M412.142 66.2969V154.953" stroke="#29ABE2" stroke-width="1.015" stroke-miterlimit="10"/>
<path d="M436.514 79.815V168.458" stroke="#29ABE2" stroke-width="1.015" stroke-miterlimit="10"/>
<path d="M458.327 94.2171V182.873" stroke="#29ABE2" stroke-width="1.015" stroke-miterlimit="10"/>
<path d="M358.789 107.49C358.789 107.49 364.306 79.951 375.379 84.9421C387.131 90.2324 376.431 112.93 389.17 119.689C401.496 126.231 397.924 78.3462 412.182 83.9901C424.908 89.0356 420.177 108.374 420.177 118.261C420.177 122.831 418.672 139.762 427.373 142.346C442.617 146.875 436.301 100.269 455.942 110.849" stroke="white" stroke-width="1.015" stroke-miterlimit="10"/>
<path d="M358.789 110.632C360.106 110.632 361.174 109.311 361.174 107.681C361.174 106.051 360.106 104.73 358.789 104.73C357.472 104.73 356.404 106.051 356.404 107.681C356.404 109.311 357.472 110.632 358.789 110.632Z" fill="white"/>
<path d="M455.942 114.467C457.259 114.467 458.327 113.146 458.327 111.516C458.327 109.886 457.259 108.565 455.942 108.565C454.624 108.565 453.556 109.886 453.556 111.516C453.556 113.146 454.624 114.467 455.942 114.467Z" fill="white"/>
<path d="M401.469 97.1682C402.786 97.1682 403.854 95.8469 403.854 94.2171C403.854 92.5872 402.786 91.2659 401.469 91.2659C400.152 91.2659 399.084 92.5872 399.084 94.2171C399.084 95.8469 400.152 97.1682 401.469 97.1682Z" fill="white"/>
<path d="M420.244 117.405C421.561 117.405 422.629 116.083 422.629 114.453C422.629 112.824 421.561 111.502 420.244 111.502C418.927 111.502 417.859 112.824 417.859 114.453C417.859 116.083 418.927 117.405 420.244 117.405Z" fill="white"/>
<defs>
<linearGradient id="paint0_linear_1_5" x1="53.4333" y1="261.819" x2="97.7375" y2="227.084" gradientUnits="userSpaceOnUse">
<stop stop-color="#CC483E"/>
<stop offset="1" stop-color="#411714"/>
</linearGradient>
<linearGradient id="paint1_linear_1_5" x1="418.165" y1="291.1" x2="453.224" y2="263.619" gradientUnits="userSpaceOnUse">
<stop stop-color="#CC483E"/>
<stop offset="1" stop-color="#411714"/>
</linearGradient>
<linearGradient id="paint2_linear_1_5" x1="260.211" y1="272.264" x2="302.552" y2="199.993" gradientUnits="userSpaceOnUse">
<stop stop-color="#CC483E"/>
<stop offset="1" stop-color="#411714"/>
</linearGradient>
<linearGradient id="paint3_linear_1_5" x1="221.062" y1="313.893" x2="267.479" y2="271.685" gradientUnits="userSpaceOnUse">
<stop stop-color="#CC483E"/>
<stop offset="1" stop-color="#411714"/>
</linearGradient>
</defs>
</svg>
