<svg version="1.1" xmlns="http://www.w3.org/2000/svg" viewBox="0 0 1565.8064149493784 535.0961899043534" width="1565.8064149493784" height="535.0961899043534">
  <!-- svg-source:excalidraw -->
  
  <defs>
    <style>
      @font-face {
        font-family: "Virgil";
        src: url("https://excalidraw.com/Virgil.woff2");
      }
      @font-face {
        font-family: "Cascadia";
        src: url("https://excalidraw.com/Cascadia.woff2");
      }
    </style>
  </defs>
  <g stroke-linecap="round" transform="translate(90.42857142857156 90.07688021906637) rotate(0 97.5 65)"><path d="M0.93 -3.32 C68.23 4.32, 141.11 3.71, 195.52 1.45 M-0.75 0.34 C40.85 0.35, 79.35 -1.18, 195.33 -1.66 M192.1 1.21 C192.46 33.48, 190.92 67.46, 198.64 133.72 M196.9 -1.88 C194.11 43.3, 194.61 89.29, 196.93 129.36 M195.25 128.09 C134.59 123.64, 79.12 124.95, -2.11 126.72 M196.48 130.23 C125.24 132.09, 52.97 131.17, -0.82 129.43 M3.03 132.06 C0.87 79.27, -0.75 30.67, -3.63 2.33 M0.06 130.23 C3.28 92.12, 3.75 55.46, 0.04 1.98" stroke="#000000" stroke-width="1" fill="none"></path></g><g transform="translate(122.42857142857156 100.07688021906637) rotate(0 69.5 12.5)"><text x="0" y="18" font-family="Virgil, Segoe UI Emoji" font-size="20px" fill="#000000" text-anchor="start" style="white-space: pre;" direction="ltr">Departamento</text></g><g transform="translate(102.42857142857156 145.07688021906637) rotate(0 79.5 20)"><text x="0" y="14" font-family="Virgil, Segoe UI Emoji" font-size="16px" fill="#000000" text-anchor="start" style="white-space: pre;" direction="ltr">idNombre    int</text><text x="0" y="34" font-family="Virgil, Segoe UI Emoji" font-size="16px" fill="#000000" text-anchor="start" style="white-space: pre;" direction="ltr">nombre      varchar</text></g><g stroke-linecap="round" transform="translate(89.42857142857156 89.07688021906637) rotate(0 98.5 22)"><path d="M2.18 -1.64 C51.7 6.17, 100.89 5.44, 199.45 -0.54 M0.61 -2 C47.39 -2.2, 95.72 0.45, 196.67 -1.4 M197.76 -3.9 C199.76 6.95, 193.18 21.04, 197.13 47.54 M198.75 1.32 C195.89 10.62, 196.59 22.11, 198.79 45.09 M194.58 47.63 C117.99 40.57, 46.05 37.74, -0.39 47.96 M195.65 45.42 C124.52 48.36, 52.77 47.42, 1.95 42.05 M1.66 42.9 C-0.74 29.98, 2.73 23.35, -3.47 -2.49 M0.89 45.62 C0.73 32.37, 1.48 20.17, 1.81 0.48" stroke="#000000" stroke-width="1" fill="none"></path></g><g stroke-linecap="round" transform="translate(10 358.2197373619235) rotate(0 181.5 78)"><path d="M-0.73 1.91 C138.86 0.61, 280.41 4.76, 360.94 -2.05 M-0.77 0.65 C75.15 -4.25, 149.87 -3.35, 363.07 -0.09 M365.08 3.96 C361.46 52.41, 360.83 101, 361.53 153.61 M362.23 -0.31 C361.78 37.05, 364.46 71.29, 361.46 155.28 M364.19 158.49 C258.29 152.31, 156.19 154.16, 2.01 155.47 M362.7 157.13 C241.84 155.5, 118.6 154.47, 0.76 155.18 M0.68 155.42 C5.79 111.88, 3.1 66.08, -2.75 3.03 M-0.81 156.83 C2.18 105.7, 0.36 57.81, 1.18 -1.96" stroke="#000000" stroke-width="1" fill="none"></path></g><g transform="translate(154 369.2197373619235) rotate(0 42.5 12.5)"><text x="0" y="18" font-family="Virgil, Segoe UI Emoji" font-size="20px" fill="#000000" text-anchor="start" style="white-space: pre;" direction="ltr">Profesor</text></g><g transform="translate(20 413.7197373619235) rotate(0 167 30)"><text x="0" y="14" font-family="Virgil, Segoe UI Emoji" font-size="16px" fill="#000000" text-anchor="start" style="white-space: pre;" direction="ltr">idProfesor                        int</text><text x="0" y="34" font-family="Virgil, Segoe UI Emoji" font-size="16px" fill="#000000" text-anchor="start" style="white-space: pre;" direction="ltr">nombre                            varchar</text><text x="0" y="54" font-family="Virgil, Segoe UI Emoji" font-size="16px" fill="#000000" text-anchor="start" style="white-space: pre;" direction="ltr">Departamento_idDepartamento   int</text></g><g stroke-linecap="round" transform="translate(11 360.2197373619235) rotate(0 180 20)"><path d="M-0.82 -0.85 C85.58 3.96, 166.64 2.55, 360.19 2.09 M1.23 -0.21 C141.53 -2.74, 284.36 -3.09, 360.02 -0.33 M360.5 -2.21 C356.98 15.26, 359.44 25.97, 358.76 42.51 M361 -1.24 C360.45 14.83, 359.96 26.94, 361.39 39.95 M358.34 40.39 C289.61 38.04, 216.67 41.09, 0.91 38.88 M360.57 39.63 C235.49 35.52, 108.41 35.76, 0.15 39.73 M-1.87 39.65 C0.91 28.09, -2.19 24.28, 2.97 -1.24 M1.83 38.66 C-2.12 22.94, 0.98 9.08, 0.93 -0.06" stroke="#000000" stroke-width="1" fill="none"></path></g><g stroke-linecap="round" transform="translate(538.825894456512 346.0961899043535) rotate(0 140.99999999999994 89.5)"><path d="M-0.18 -2.74 C81.57 -0.17, 160.69 -3.59, 280.3 0.83 M-0.92 -0.01 C88.11 -4.31, 179.48 -3.78, 281.24 0.38 M282.43 1.71 C280.92 51.25, 279.93 94.22, 284.92 182.82 M283.02 1.09 C284.77 49.28, 283.54 97.22, 282.61 177.21 M283.45 180.38 C196.09 175.67, 102.32 178.54, 2.33 176.36 M283.21 177.85 C185.63 183.09, 88.33 181.67, -1.36 179.08 M3.07 182.53 C-1.04 124.63, 4.4 76.61, -1.38 -1.94 M0.65 179.04 C-0.25 120.47, -3.66 59.38, -1.65 -1.59" stroke="#000000" stroke-width="1" fill="none"></path></g><g transform="translate(647.8258944565118 348.5961899043535) rotate(0 37 12.5)"><text x="0" y="18" font-family="Virgil, Segoe UI Emoji" font-size="20px" fill="#000000" text-anchor="start" style="white-space: pre;" direction="ltr">Espacio</text></g><g transform="translate(551.825894456512 392.0961899043535) rotate(0 126.99999999999994 60)"><text x="0" y="14" font-family="Virgil, Segoe UI Emoji" font-size="16px" fill="#000000" text-anchor="start" style="white-space: pre;" direction="ltr">idEspacio               int</text><text x="0" y="34" font-family="Virgil, Segoe UI Emoji" font-size="16px" fill="#000000" text-anchor="start" style="white-space: pre;" direction="ltr">nombre                  varchar</text><text x="0" y="54" font-family="Virgil, Segoe UI Emoji" font-size="16px" fill="#000000" text-anchor="start" style="white-space: pre;" direction="ltr">numero                  int</text><text x="0" y="74" font-family="Virgil, Segoe UI Emoji" font-size="16px" fill="#000000" text-anchor="start" style="white-space: pre;" direction="ltr">descripcion              varchar</text><text x="0" y="94" font-family="Virgil, Segoe UI Emoji" font-size="16px" fill="#000000" text-anchor="start" style="white-space: pre;" direction="ltr">Profesor_idProfesor    int</text><text x="0" y="114" font-family="Virgil, Segoe UI Emoji" font-size="16px" fill="#000000" text-anchor="start" style="white-space: pre;" direction="ltr">Edificio_idEdificio       int</text></g><g stroke-linecap="round" transform="translate(536.825894456512 345.0961899043535) rotate(0 141.49999999999994 20)"><path d="M-1.75 -0.11 C93.96 3.9, 192.23 3.72, 281.71 -2.07 M-0.05 0.11 C109.06 1.72, 215.56 0.77, 282.63 -0.11 M281.73 3.61 C285.84 6.63, 281.47 21.01, 284.4 38.45 M283.84 0.14 C285.04 6.99, 282.16 16.97, 282.54 38.99 M284.93 40.59 C223.27 35.08, 166.02 38.74, -2.24 40.65 M282.66 39.17 C184.96 39.36, 85.89 39.49, -0.16 39 M3.63 43.34 C-1.2 33.7, 3.69 26.06, 1.41 0.32 M0.17 39.52 C1.25 32.86, -1.52 23.89, -1.04 -0.8" stroke="#000000" stroke-width="1" fill="none"></path></g><g stroke-linecap="round" transform="translate(991.7694039123353 384.355424069497) rotate(0 96.5 53)"><path d="M3.52 -0.21 C60.04 -1.8, 121.32 -5.24, 196.79 0.82 M-0.33 1.16 C66.73 3.18, 131.82 2.62, 193.92 1.63 M193.59 -0.62 C194.15 43.66, 197.96 80.4, 196.47 107.29 M191.39 1.81 C194.96 23.76, 195.24 45.68, 192.14 104.66 M193.69 102.3 C147.31 105.49, 98.89 110.55, 0.69 107.19 M193.55 106.46 C133.29 105.17, 77.03 108.28, 0.21 104.24 M1.93 109.41 C-2.3 64.93, 2.18 28.71, -0.4 -3.11 M1.62 107.05 C0.94 69.8, 1.92 34.82, -0.36 -1.07" stroke="#000000" stroke-width="1" fill="none"></path></g><g transform="translate(1057.7694039123353 389.855424069497) rotate(0 35 12.5)"><text x="0" y="18" font-family="Virgil, Segoe UI Emoji" font-size="20px" fill="#000000" text-anchor="start" style="white-space: pre;" direction="ltr">Edificio</text></g><g transform="translate(1006.7694039123353 431.855424069497) rotate(0 83.5 20)"><text x="0" y="14" font-family="Virgil, Segoe UI Emoji" font-size="16px" fill="#000000" text-anchor="start" style="white-space: pre;" direction="ltr">idEdificio     int</text><text x="0" y="34" font-family="Virgil, Segoe UI Emoji" font-size="16px" fill="#000000" text-anchor="start" style="white-space: pre;" direction="ltr">nombre       varchar</text></g><g stroke-linecap="round" transform="translate(990.7694039123353 383.355424069497) rotate(0 97.5 17.5)"><path d="M-1.22 -2.8 C78.03 2.74, 154.15 -1.49, 195 -1.18 M1.39 0.99 C69.77 1.02, 141 -0.41, 193.42 -0.12 M191.93 2.3 C198.95 8.92, 193.58 21.27, 196.39 36.31 M194.35 1.79 C197.11 14.01, 194.4 27.72, 194.6 35.13 M192.66 33.8 C136.94 35.49, 80.74 35.28, 1.16 36.1 M196.56 36.96 C122.55 35.13, 50.33 34.9, 0.13 34.56 M-2.04 38.28 C-1.38 26.28, 2.93 19.23, 1.97 0.6 M-1.38 33.51 C0.32 29.3, -1.5 20.47, 1.85 1.64" stroke="#000000" stroke-width="1" fill="none"></path></g><g stroke-linecap="round" transform="translate(560.1111111111112 38.20866135146326) rotate(0 124.99999999999983 72.14285714285717)"><path d="M-2.26 0.38 C101.8 -4.04, 196.01 1.91, 246.79 0 M-0.79 -0.83 C73.49 -4.26, 150.59 -3.61, 250 -1.34 M250.19 -3.09 C251.53 34.28, 251.04 72.49, 247.98 146.25 M251.16 -0.69 C251.53 32.2, 251.39 65.38, 251.8 145.9 M250.32 146.68 C196.23 139.13, 135.42 139.08, -3.19 146.97 M251.47 145.76 C196.84 139.35, 143.43 141.6, 0.8 143.52 M0.56 142.18 C4.83 90.93, 4.27 35.43, 2.43 -0.41 M0.28 144.27 C1.85 105.92, 1.36 69.22, 1.29 0.47" stroke="#000000" stroke-width="1" fill="none"></path></g><g transform="translate(580.1111111111112 52.99437563717754) rotate(0 94.00000000000006 12.5)"><text x="0" y="18" font-family="Virgil, Segoe UI Emoji" font-size="20px" fill="#000000" text-anchor="start" style="white-space: pre;" direction="ltr">Espacio_has_Nodo</text></g><g transform="translate(581.5396825396825 99.78008992289182) rotate(0 93.49999999999994 30)"><text x="0" y="14" font-family="Virgil, Segoe UI Emoji" font-size="16px" fill="#000000" text-anchor="start" style="white-space: pre;" direction="ltr">idEspacioNodo       int</text><text x="0" y="34" font-family="Virgil, Segoe UI Emoji" font-size="16px" fill="#000000" text-anchor="start" style="white-space: pre;" direction="ltr">Espacio_idEspacio   int</text><text x="0" y="54" font-family="Virgil, Segoe UI Emoji" font-size="16px" fill="#000000" text-anchor="start" style="white-space: pre;" direction="ltr">idEspacioNodo       int</text></g><g stroke-linecap="round" transform="translate(561.5396825396825 36.78008992289182) rotate(0 124.99999999999994 26.428571428571416)"><path d="M0.4 -0.01 C54.5 -2.9, 116.93 -4.15, 247.25 -2.58 M-0.5 -1.56 C90.78 -1.98, 182.57 -4.39, 251.44 -1.12 M252.03 -3.05 C247.71 21.54, 251.16 41.36, 251.25 53.77 M250.89 -0.96 C251.34 19.78, 248.93 40.64, 250.61 53.77 M249.65 51.3 C178.54 54.74, 115.04 51.58, -0.95 49.82 M248.87 51.59 C154.25 52.99, 54.84 53.89, 0.9 51.57 M-1.06 52.9 C-3.32 37.06, 1.25 19.34, -3.73 0.09 M1.4 51.96 C1.57 40.85, -1.06 28.13, -1.37 -1.9" stroke="#000000" stroke-width="1" fill="none"></path></g><g stroke-linecap="round" transform="translate(976.204755776286 53.299353156454686) rotate(0 82.85714285714289 60.714285714285694)"><path d="M-3.05 -2.89 C33.01 2.73, 68.73 1.55, 165.34 -3.65 M-0.42 -0.8 C42.06 1.82, 81.03 3.17, 165.66 0.23 M168.3 -2.97 C166.53 32.25, 159.81 55.48, 162.08 124.62 M164.45 1.1 C166.71 30.5, 165.63 56.67, 165.82 120.31 M164.09 123.14 C108.81 124.24, 48.7 119.79, -3.64 120.67 M165.46 120.27 C127.66 120.86, 87.49 119.31, 0.88 122.01 M0.41 122.89 C-0.41 83.3, 1.17 40.33, 2.13 -0.06 M-0.54 121.15 C-1.77 94.86, -0.48 69.92, -2 1.48" stroke="#000000" stroke-width="1" fill="none"></path></g><g transform="translate(1034.7761843477144 64.29935315645469) rotate(0 23.5 12.5)"><text x="0" y="18" font-family="Virgil, Segoe UI Emoji" font-size="20px" fill="#000000" text-anchor="start" style="white-space: pre;" direction="ltr">Nodo</text></g><g transform="translate(989.0618986334287 121.79935315645474) rotate(0 65 30)"><text x="0" y="14" font-family="Virgil, Segoe UI Emoji" font-size="16px" fill="#000000" text-anchor="start" style="white-space: pre;" direction="ltr">idNodo    int</text><text x="0" y="34" font-family="Virgil, Segoe UI Emoji" font-size="16px" fill="#000000" text-anchor="start" style="white-space: pre;" direction="ltr">rango     double</text><text x="0" y="54" font-family="Virgil, Segoe UI Emoji" font-size="16px" fill="#000000" text-anchor="start" style="white-space: pre;" direction="ltr"></text></g><g stroke-linecap="round" transform="translate(974.7761843477147 53.299353156454686) rotate(0 83.57142857142856 24.285714285714278)"><path d="M-2.99 2.24 C60.77 1.63, 116.54 4.14, 169.13 -3.14 M-0.83 1.4 C45.49 -0.08, 89.61 3.12, 165.72 0.2 M165.99 3.19 C165.58 13.07, 168.77 24.68, 165.56 46.32 M166.42 1.49 C168.7 9.87, 166.1 21.75, 166.38 48.62 M164.15 48.23 C99.19 53.28, 35.98 50.58, 2.19 46.56 M168.27 48.56 C131.38 48.25, 98.76 49.14, -0.86 50.17 M-2.52 45.43 C-1.97 33.49, -4.43 14.06, 3.86 -0.2 M-0.4 47.85 C1.16 39.14, 0.14 23.99, -0.01 -0.85" stroke="#000000" stroke-width="1" fill="none"></path></g><g stroke-linecap="round" transform="translate(1307.2349863779498 11.428571428571445) rotate(0 123.57142857142867 97.85714285714289)"><path d="M2.78 0.5 C70.62 1.68, 135.98 -0.85, 246.39 -0.18 M-0.45 -0.38 C86.42 1.91, 174.84 -0.01, 248.78 1.43 M244.9 -2.94 C250.16 72.33, 250.32 152.14, 250.69 196.77 M249.01 -0.54 C250.25 44.2, 249.93 93.63, 248.47 197.18 M249.11 193.52 C196.83 198.78, 146.74 193.7, 0.73 193.26 M247.19 195.3 C182.29 194.71, 120.05 194, 1.3 196.25 M-3.18 194.41 C-2.6 121.21, -1.25 48.13, -0.55 -2.32 M-1.93 196.76 C1.15 136.45, -0.16 77.63, 1.5 -1.29" stroke="#000000" stroke-width="1" fill="none"></path></g><g transform="translate(1390.092129235093 19.428571428571445) rotate(0 39 25)"><text x="0" y="18" font-family="Virgil, Segoe UI Emoji" font-size="20px" fill="#000000" text-anchor="start" style="white-space: pre;" direction="ltr">Lectura</text><text x="0" y="43" font-family="Virgil, Segoe UI Emoji" font-size="20px" fill="#000000" text-anchor="start" style="white-space: pre;" direction="ltr"></text></g><g transform="translate(1320.092129235093 71.71428571428572) rotate(0 104 60)"><text x="0" y="14" font-family="Virgil, Segoe UI Emoji" font-size="16px" fill="#000000" text-anchor="start" style="white-space: pre;" direction="ltr">idLectura        int</text><text x="0" y="34" font-family="Virgil, Segoe UI Emoji" font-size="16px" fill="#000000" text-anchor="start" style="white-space: pre;" direction="ltr">posx             double</text><text x="0" y="54" font-family="Virgil, Segoe UI Emoji" font-size="16px" fill="#000000" text-anchor="start" style="white-space: pre;" direction="ltr">posy             double</text><text x="0" y="74" font-family="Virgil, Segoe UI Emoji" font-size="16px" fill="#000000" text-anchor="start" style="white-space: pre;" direction="ltr">temp             double</text><text x="0" y="94" font-family="Virgil, Segoe UI Emoji" font-size="16px" fill="#000000" text-anchor="start" style="white-space: pre;" direction="ltr">fecha            datetime</text><text x="0" y="114" font-family="Virgil, Segoe UI Emoji" font-size="16px" fill="#000000" text-anchor="start" style="white-space: pre;" direction="ltr">Nodo_idNodo     int</text></g><g stroke-linecap="round" transform="translate(1304.377843520807 10) rotate(0 125.71428571428578 26.428571428571416)"><path d="M-1.36 2.4 C70.67 -5.79, 146 -4.81, 248.5 -2.19 M-0.7 -0.78 C71.36 4.3, 141.68 4.31, 250.87 1.12 M253.22 1.74 C253.68 18.39, 247.86 30.61, 250.21 54.74 M251.4 -0.42 C251.61 11.83, 250.72 21.63, 252.32 52.96 M251.05 51.41 C165.24 55.64, 81.19 51.83, -1.8 51.87 M250.22 54.05 C193.18 52.21, 130.85 50.33, 0.59 53.16 M2.08 55.1 C-3.02 42.65, -3.04 29.91, 3.75 -0.38 M-1.44 53.44 C1.6 35.65, -1.16 21.41, -0.2 1.61" stroke="#000000" stroke-width="1" fill="none"></path></g><g stroke-linecap="round"><g transform="translate(185.82539682539698 222.04513418732031) rotate(0 1.6788870124659638 67.02919085563826)"><path d="M-0.75 -0.66 C0.19 22.57, 1.95 114.97, 2.97 137.55 M4.04 -3.49 C4.72 19.12, 0 110.05, 0.02 133.53" stroke="#000000" stroke-width="1" fill="none"></path></g></g><g stroke-linecap="round"><g transform="translate(171.53968253968264 234.9022770444632) rotate(0 18.80974651434593 0.1341361944696473)"><path d="M0.3 1.33 C6.49 0.75, 29.31 -0.72, 35.24 -1.07 M-2.98 -0.41 C4.28 0.49, 34.55 0.94, 40.6 1.21" stroke="#000000" stroke-width="1" fill="none"></path></g></g><g stroke-linecap="round"><g transform="translate(167.25396825396842 246.61656275874893) rotate(0 22.65727448766785 2.7703492516163806)"><path d="M-0.92 1.87 C6.33 2.31, 38.05 1.18, 46.23 1.47 M3.78 0.41 C10.45 1.45, 36.95 5.32, 44.28 5.12" stroke="#000000" stroke-width="1" fill="none"></path></g></g><g stroke-linecap="round"><g transform="translate(164.39682539682553 315.61656275874896) rotate(0 23.06833922283454 1.1856176099693982)"><path d="M1.36 0.52 C8.86 0.94, 39.77 4.23, 47.48 4.1 M-1.34 -1.67 C5.71 -2.11, 38.17 -0.06, 46.2 0.53" stroke="#000000" stroke-width="1" fill="none"></path></g></g><g stroke-linecap="round"><g transform="translate(159.21111783330753 356.58582141254135) rotate(0 13.395504629668721 -18.515855008282415)"><path d="M1.03 -2.32 C5.94 -8.33, 23.51 -29.7, 28.64 -35.86 M-1.85 2.59 C2.71 -4.19, 20.57 -33.06, 26.11 -39.62" stroke="#000000" stroke-width="1" fill="none"></path></g></g><g stroke-linecap="round"><g transform="translate(210.94261820662518 354.15824016199826) rotate(0 -11.689031244250657 -18.0166503556851)"><path d="M0.46 1.66 C-3.68 -4.03, -18.29 -27.42, -22.24 -33.16 M-2.74 0.09 C-7.38 -6.56, -20.13 -31.41, -23.84 -37.69" stroke="#000000" stroke-width="1" fill="none"></path></g></g><g stroke-linecap="round"><g transform="translate(455.63569600187634 355.58144668685264) rotate(270.14629668545336 0.46824611062993426 78.97747622702803)"><path d="M-0.65 0.9 C-0.22 27.32, 1.48 131.74, 1.58 157.63 M1.21 0.33 C1.62 26.46, 0.74 129.65, 0.93 155.79" stroke="#000000" stroke-width="1" fill="none"></path></g></g><g stroke-linecap="round"><g transform="translate(367.86325133822504 433.23174298797517) rotate(270.14629668545336 21.2044832371364 0.785170959713497)"><path d="M0.93 0.19 C7.91 0.74, 35.48 1.91, 42.45 2.33 M-0.04 -0.76 C6.71 -0.47, 34.42 0.29, 41.43 0.57" stroke="#000000" stroke-width="1" fill="none"></path></g></g><g stroke-linecap="round"><g transform="translate(376.02625606455103 434.0634845100085) rotate(270.14629668545336 22.018524477629228 1.5528630718688987)"><path d="M-0.87 0.59 C6.27 1.2, 35.26 2.99, 42.72 3.26 M0.87 -0.15 C8.4 0.17, 37.85 1.03, 44.91 1.62" stroke="#000000" stroke-width="1" fill="none"></path></g></g><g stroke-linecap="round"><g transform="translate(473.69257632100926 438.8084209244897) rotate(270.14629668545336 15.252411791109864 -0.67628943272436)"><path d="M0.59 -0.06 C5.27 -0.37, 24.01 -1.21, 28.92 -1.3 M-0.56 -1.13 C4.41 -1.33, 26.1 -0.38, 31.07 -0.05" stroke="#000000" stroke-width="1" fill="none"></path></g></g><g stroke-linecap="round"><g transform="translate(507.2046386600189 465.79689894110527) rotate(270.14629668545336 5.453679311304711 -24.104939684069848)"><path d="M0.67 1.12 C1.07 -2.47, -0.25 -14.46, 1.53 -22.57 C3.31 -30.68, 9.56 -43.3, 11.34 -47.53 M-0.43 0.66 C0.4 -2.72, 1.88 -13.21, 3.7 -21.54 C5.51 -29.88, 8.94 -44.56, 10.45 -49.33" stroke="#000000" stroke-width="1" fill="none"></path></g></g><g stroke-linecap="round"><g transform="translate(519.4150038227531 450.1171752606717) rotate(270.14629668545336 -7.859661957072376 -21.317298894705658)"><path d="M0.61 0.63 C-1.99 -6.45, -13.04 -34.32, -15.81 -41.43 M-0.53 -0.08 C-3.19 -7, -13.67 -36.49, -16.33 -43.27" stroke="#000000" stroke-width="1" fill="none"></path></g></g><g stroke-linecap="round"><g transform="translate(674.301283092258 181.07144399100852) rotate(181.80500234190583 0.9453742640732798 78.63848414008106)"><path d="M0.86 -0.99 C1.37 25.42, 1.91 131.89, 2.04 158.26 M-0.15 1.11 C0.39 27.23, 1.41 130.5, 1.63 156.75" stroke="#000000" stroke-width="1" fill="none"></path></g></g><g stroke-linecap="round"><g transform="translate(652.2324898132299 325.7118511577323) rotate(181.80500234190583 21.386948222089757 1.3100514164142112)"><path d="M-0.99 1.02 C6.34 1.25, 36.47 1.97, 43.76 2.24 M0.7 0.52 C7.98 0.32, 36.53 0.38, 43.42 0.44" stroke="#000000" stroke-width="1" fill="none"></path></g></g><g stroke-linecap="round"><g transform="translate(653.6046224031993 315.69610371277633) rotate(181.80500234190583 22.20245825334291 2.40687004329709)"><path d="M1.02 1.17 C8.26 1.74, 37.02 2.42, 44.3 2.47 M0.1 0.74 C7.16 1.61, 36.27 3.82, 43.67 4.08" stroke="#000000" stroke-width="1" fill="none"></path></g></g><g stroke-linecap="round"><g transform="translate(665.2006318297117 227.8524579749467) rotate(181.80500234190583 15.225579253449496 -0.34318132781207566)"><path d="M1.17 0.6 C6.35 0.48, 25.47 0.6, 30.13 0.29 M0.32 -0.13 C5.45 -0.04, 24.05 -1.28, 29.25 -1.29" stroke="#000000" stroke-width="1" fill="none"></path></g></g><g stroke-linecap="round"><g transform="translate(679.0284821066848 228.18823219861397) rotate(181.80500234190583 5.2734652050039585 -24.13654659607741)"><path d="M0.6 0.14 C1.03 -3.8, 1.85 -14.38, 3.6 -22.47 C5.34 -30.56, 9.75 -44.02, 11.09 -48.41 M-0.54 -0.83 C-0.27 -4.14, 1.43 -13.7, 3.19 -21.39 C4.96 -29.09, 8.61 -42.59, 10.06 -47.01" stroke="#000000" stroke-width="1" fill="none"></path></g></g><g stroke-linecap="round"><g transform="translate(680.6844005150642 226.16090278442587) rotate(181.80500234190583 -8.686407994535102 -20.71527325796376)"><path d="M0.14 1.03 C-2.97 -6.14, -14.74 -35.3, -17.51 -42.46 M-1.25 0.53 C-4.09 -6.54, -12.61 -34.33, -15.26 -41.19" stroke="#000000" stroke-width="1" fill="none"></path></g></g><g stroke-linecap="round"><g transform="translate(904.4169848595532 354.062479771686) rotate(450.65138522102905 0.838274390963079 78.1019345657767)"><path d="M-0.25 -0.16 C0.22 26.02, 1.68 130.17, 1.73 156.35 M1.82 -1.29 C2.29 25.09, 1.05 130.93, 1.15 157.49" stroke="#000000" stroke-width="1" fill="none"></path></g></g><g stroke-linecap="round"><g transform="translate(951.4537884911185 431.61222095056445) rotate(450.65138522102905 21.23089589836104 0.8708693117893063)"><path d="M-0.16 0.71 C6.93 0.86, 34.75 0.45, 41.84 0.68 M-1.7 0.03 C5.84 0.33, 36.96 1.73, 44.16 1.71" stroke="#000000" stroke-width="1" fill="none"></path></g></g><g stroke-linecap="round"><g transform="translate(940.865035422029 428.8554958080104) rotate(450.65138522102905 22.282047138072812 1.3958793555300133)"><path d="M0.71 -0.75 C7.87 -0.37, 35.51 1.64, 42.74 2.11 M-0.38 1.47 C7.17 2.05, 37.62 3.23, 44.94 3.54" stroke="#000000" stroke-width="1" fill="none"></path></g></g><g stroke-linecap="round"><g transform="translate(858.7786366609187 428.7878130088494) rotate(450.65138522102905 14.514141207193461 -0.5559088578053775)"><path d="M-0.75 -0.96 C4.24 -1.14, 24.69 -0.38, 29.78 -0.34 M1.06 1.15 C5.89 0.54, 24.08 -2.16, 28.72 -2.26" stroke="#000000" stroke-width="1" fill="none"></path></g></g><g stroke-linecap="round"><g transform="translate(844.1069928445233 448.7953298870112) rotate(450.65138522102905 5.296238908787586 -24.69324120262931)"><path d="M-0.96 -0.21 C-0.59 -3.72, 0.88 -13.94, 2.96 -21.81 C5.05 -29.67, 9.98 -43.17, 11.56 -47.43 M0.73 -1.37 C0.92 -4.63, 0.55 -12.41, 2.22 -20.38 C3.9 -28.35, 8.97 -44.35, 10.78 -49.17" stroke="#000000" stroke-width="1" fill="none"></path></g></g><g stroke-linecap="round"><g transform="translate(860.5874089469535 457.56252743229345) rotate(450.65138522102905 -9.061600581165749 -20.79868520411145)"><path d="M-0.21 0.4 C-2.9 -6.44, -14.3 -35.07, -16.85 -41.99 M-1.79 -0.44 C-4.58 -6.99, -15.6 -33.37, -17.91 -40.47" stroke="#000000" stroke-width="1" fill="none"></path></g></g><g stroke-linecap="round"><g transform="translate(894.1389425778646 34.363861765114194) rotate(450.65138522102905 0.06578076868265725 77.87916695643749)"><path d="M-0.82 -1.05 C-0.79 24.97, -0.04 129.58, 0.44 155.9 M0.95 1.02 C0.76 27.15, -0.96 130.64, -0.81 156.8" stroke="#000000" stroke-width="1" fill="none"></path></g></g><g stroke-linecap="round"><g transform="translate(941.1757462094295 111.91360294399249) rotate(450.65138522102905 21.21489568102197 1.0581980873966614)"><path d="M-1.05 -0.58 C5.89 0.01, 34.16 2.36, 41.39 2.69 M0.61 1.73 C7.91 2.08, 36.67 0.98, 43.48 1.13" stroke="#000000" stroke-width="1" fill="none"></path></g></g><g stroke-linecap="round"><g transform="translate(930.5869931403402 109.15687780143847) rotate(450.65138522102905 22.08900704233747 1.1402209043696239)"><path d="M-0.58 -1.2 C7.02 -0.68, 37.41 1.68, 44.76 2.07 M1.32 0.79 C8.92 1.58, 37.48 3.3, 44.36 3.48" stroke="#000000" stroke-width="1" fill="none"></path></g></g><g stroke-linecap="round"><g transform="translate(848.5005943792296 109.08919500227753) rotate(450.65138522102905 14.268940201406735 0.04876069061673505)"><path d="M-1.2 1.06 C3.93 0.99, 24.74 -0.72, 29.74 -0.96 M0.37 0.57 C5.42 0.74, 23.54 0.98, 28.65 0.46" stroke="#000000" stroke-width="1" fill="none"></path></g></g><g stroke-linecap="round"><g transform="translate(833.8289505628347 129.09671188043927) rotate(450.65138522102905 6.048640697320366 -24.62711429217192)"><path d="M1.06 -0.25 C1.54 -3.85, 0.53 -14.65, 2.35 -22.78 C4.16 -30.9, 10.39 -44.59, 11.95 -49 M0.15 -1.43 C0.51 -4.83, -0.58 -14.12, 1.29 -21.86 C3.16 -29.61, 9.59 -43.46, 11.37 -47.9" stroke="#000000" stroke-width="1" fill="none"></path></g></g><g stroke-linecap="round"><g transform="translate(850.3093666652646 137.8639094257216) rotate(450.65138522102905 -8.003463689880732 -21.876484973164676)"><path d="M-0.25 -0.22 C-3.02 -7.33, -15.02 -34.66, -17.82 -41.6 M1.81 -1.38 C-0.5 -8.34, -12.42 -37.01, -15.73 -43.54" stroke="#000000" stroke-width="1" fill="none"></path></g></g><g stroke-linecap="round"><g transform="translate(1219.041588657543 39.86545638014829) rotate(630.7116974949662 0.8003812377232862 78.46338693921057)"><path d="M-0.24 -0.85 C-0.01 25.39, 1.49 130.32, 1.77 156.53 M1.83 1.32 C1.94 27.79, 1.37 131.76, 1.22 157.78" stroke="#000000" stroke-width="1" fill="none"></path></g></g><g stroke-linecap="round"><g transform="translate(1132.42455258424 117.06438245760185) rotate(630.7116974949662 20.590589779783272 1.0538807040659641)"><path d="M-0.85 0.75 C6.31 1.14, 34.9 2.04, 42.03 2.07 M0.91 0.11 C7.93 0.15, 34.14 -0.12, 40.79 0.18" stroke="#000000" stroke-width="1" fill="none"></path></g></g><g stroke-linecap="round"><g transform="translate(1140.3646984441577 119.65673544860957) rotate(630.7116974949662 21.913485710460918 1.1409428812756843)"><path d="M0.75 -0.56 C8.15 -0.14, 37.09 1.25, 44.13 1.66 M-0.31 1.76 C6.99 2.4, 36.38 2.64, 43.42 2.84" stroke="#000000" stroke-width="1" fill="none"></path></g></g><g stroke-linecap="round"><g transform="translate(1235.1586190470389 123.09375741162452) rotate(630.7116974949662 15.558802484586295 -0.4971785283812231)"><path d="M-0.56 0.44 C4.47 0.07, 24.3 -1.1, 29.32 -1.43 M1.34 -0.38 C6.84 -0.67, 27.14 -0.21, 31.68 -0.25" stroke="#000000" stroke-width="1" fill="none"></path></g></g><g stroke-linecap="round"><g transform="translate(1268.4766050945277 150.10652241102488) rotate(630.7116974949662 6.233787854184811 -23.994690421906434)"><path d="M0.44 -0.67 C0.62 -4.25, 0.15 -13.87, 1.88 -22.03 C3.6 -30.18, 9.19 -45.11, 10.79 -49.58 M-0.8 1.59 C-0.28 -1.77, 1.89 -12.32, 4.23 -20.72 C6.57 -29.11, 12.02 -44.26, 13.26 -48.79" stroke="#000000" stroke-width="1" fill="none"></path></g></g><g stroke-linecap="round"><g transform="translate(1281.54290434489 134.54650535486755) rotate(630.7116974949662 -8.533167824633779 -20.59917913216579)"><path d="M-0.67 -0.69 C-3.42 -7.89, -14.24 -35.87, -17.07 -42.76 M1.18 1.57 C-1.72 -5.54, -15.5 -34.58, -18.24 -41.64" stroke="#000000" stroke-width="1" fill="none"></path></g></g></svg>