<svg version="1.1" xmlns="http://www.w3.org/2000/svg" viewBox="0 0 937.7928769921095 305" width="937.7928769921095" height="305">
  <!-- svg-source:excalidraw -->
  
  <defs>
    <style>
      @font-face {
        font-family: "Virgil";
        src: url("https://excalidraw.com/Virgil.woff2");
      }
      @font-face {
        font-family: "Cascadia";
        src: url("https://excalidraw.com/Cascadia.woff2");
      }
    </style>
  </defs>
  <g stroke-linecap="round" transform="translate(321.25 81.5) rotate(0 131.875 100.625)"><path d="M0 0 C0 0, 0 0, 0 0 M0 0 C0 0, 0 0, 0 0 M-0.99 5.76 C-0.07 3.47, 0.9 2.24, 3.44 1.23 M-0.11 5.77 C1.42 4.3, 3.17 2.36, 4.19 0.1 M1.29 15.19 C3.48 11.09, 4.08 1.95, 12.13 -1.7 M-0.79 11.3 C2.03 8.71, 3.82 5.4, 11 -0.23 M-0.57 15.79 C0.19 18.59, 6.25 12.19, 12.57 1.61 M-1.82 18.82 C3.73 13.55, 9.37 6.87, 16.06 -0.47 M-3.07 20.69 C7.81 15.78, 12.83 14.21, 20.66 1.73 M1.24 22.57 C4.08 19.27, 10.81 11.74, 21.83 -0.9 M-1.02 32.07 C11.1 18.74, 15.17 15.58, 24.93 -0.19 M-0.84 32.4 C4.75 24.46, 12.41 19.02, 28.21 -1.53 M0.85 34.55 C9.66 25.32, 22.2 14.46, 33.9 -3.45 M-1.12 37.67 C12.07 21.89, 22.41 9.34, 33.88 -1.08 M0.57 45.95 C5.87 35.54, 16.67 19.35, 33.66 1.48 M-0.92 44.51 C7.74 31.36, 17.34 19.51, 34.98 2.22 M-0.64 51.12 C9.44 31.18, 21.48 19.06, 39.41 2.48 M0.09 47.25 C11.93 37.6, 22.95 27.4, 44.16 -0.25 M-3.39 52.3 C10.41 39.67, 22.29 30.7, 44.66 -0.49 M2.23 54.35 C13.78 39.54, 30.79 21.19, 49.17 -0.28 M2.96 62.79 C20.81 37.49, 35.7 17.6, 56.81 -1.82 M0.41 59.61 C12.7 44.54, 27.74 32.36, 51.87 0.35 M3.32 69.3 C14.77 50.1, 23.4 41.73, 54.28 3.37 M-1.48 68.07 C21.69 40.55, 43.43 15.85, 58.86 1.09 M-2.76 69.79 C13.13 59.21, 32.35 36.41, 62.15 -3.11 M-0.71 71.49 C15.19 57.62, 28.7 41.9, 64.49 -0.26 M3.33 75.43 C25.58 46.76, 48.58 23.31, 69.28 3.07 M0.13 77.78 C22.21 52.02, 47.97 21.7, 69.43 -0.3 M2.22 84.88 C22.38 64.1, 35.61 41.92, 71.93 2.41 M1.49 86.9 C14.78 66.47, 34.48 48.58, 75.77 -0.88 M1.72 89.99 C28.53 64.44, 47.94 31.99, 78.89 -2.8 M-0.48 92.09 C26.6 58.41, 57.4 24.36, 77.53 2.11 M3.72 98.14 C20.65 77.51, 39.85 54.11, 83.09 -2.88 M-1.62 99.78 C19.8 72.51, 45.35 46.17, 83.77 -0.07 M0.67 102.11 C19.78 78.32, 34.78 62.89, 90.75 -3.1 M2.12 103.05 C17.03 81.82, 35.26 60.73, 89.1 -1.87 M-0.05 109.97 C21.73 79.75, 47.2 53.62, 92.99 1.93 M0.56 109.04 C21.96 85.09, 47.31 55.85, 96.79 -2.18 M2.81 115.45 C32.74 77.21, 67.81 34.33, 102.96 -2.12 M-0.37 116.93 C35.65 77.9, 73.73 34.13, 101.33 -1.22 M1.58 123.57 C28.98 85.99, 52.03 56.77, 103.44 0.33 M-0.02 121.08 C22.42 93.88, 47.69 65.36, 107.45 0.67 M-1.46 129.01 C36.84 89.11, 67.97 50.66, 108.03 0.41 M-0.63 129 C30.62 91.09, 59.69 58.75, 112.73 -1.73 M-1.6 129.97 C34.41 92, 74.53 52.46, 116.04 -0.86 M-1.49 132.76 C37.56 94.13, 72.84 54.9, 117.98 -0.68 M-3.34 138.09 C43.21 85.36, 95.74 36.16, 120.94 -2.67 M0.91 138.46 C24.96 108.19, 52.36 78.51, 121.08 0.06 M2.62 144.75 C46.64 95.74, 90.58 45.7, 130.76 -2.55 M1.28 146.14 C42.03 95.88, 85.15 45.44, 128.85 -1.42 M0.41 150.96 C29.37 115.64, 52.6 89.45, 134.82 1.81 M-1.68 151.14 C47.53 101.17, 95.14 48, 133.34 -1.06 M-3.36 157.05 C37.38 114.53, 71.59 72.66, 138.03 2.87 M-1.71 159.22 C39.78 114.17, 78.24 68.75, 136.94 -0.21 M-1.47 164.98 C44.09 117.21, 84.1 65.09, 142.41 -3.1 M-0.1 165.59 C35.67 127.04, 70.03 88.9, 144 -1.37 M1.39 169.56 C45.54 110.03, 99.79 57.32, 149.37 1.87 M-0.05 169.42 C34.51 131.14, 68.17 93.33, 147.79 -0.39 M-0.83 173.86 C51.09 121.36, 99.13 60.14, 153.01 -0.75 M-0.63 177.88 C56.7 109.16, 109.94 46.03, 152.93 -1.69 M1.42 184.14 C48.56 123.87, 99.89 63.64, 160.8 2.15 M1.02 182.43 C51.15 123.29, 102.27 63.41, 157.7 0.77 M2.47 191.13 C31.52 144.83, 70.21 106.63, 166.92 -2.34 M-0.95 190.24 C37.36 146.29, 77.98 100.34, 165.94 -1.74 M1.97 195.6 C48.44 136.02, 98.82 85.07, 166.22 -0.53 M0.16 193.93 C45.94 139.95, 93.74 85.34, 170.2 -0.72 M1.26 203.18 C44.97 149.43, 90.77 97.8, 173.69 -1.47 M-0.1 202.68 C42.65 148.11, 88.65 96.45, 176.46 1.23 M5.94 206.23 C45.03 155.16, 93.64 103.83, 179.31 1.45 M2.94 202.72 C50.14 150.27, 96.98 95.16, 180.83 -0.43 M8.59 201.46 C52.83 152.73, 95.37 102.9, 187.48 1.82 M8.16 203 C51.78 150.87, 96.3 97.69, 184.28 -1.68 M11.46 202.88 C54.95 156.65, 99.31 103.16, 191.35 -1.47 M13.64 205.38 C57.77 154.91, 99.46 105.68, 191.94 -0.31 M19.82 201.9 C63.59 146.24, 112 95.27, 198.77 -1.18 M19.04 202.06 C79.31 133.52, 141.5 63.34, 196.23 -0.99 M24.14 203.6 C65.03 157.51, 107.23 112.73, 200.66 -1.02 M24.49 203.62 C88.89 125.5, 156.6 48.15, 201.27 -0.45 M29.05 201.51 C87.85 136.66, 147.84 65.26, 209.51 -0.04 M30.99 204.07 C79.78 148.41, 127.95 94.59, 206.04 1.1 M37.49 205.34 C97.31 131.63, 157.48 59.24, 208.95 0.55 M35.01 203.57 C82.88 150.06, 126.94 97.52, 213.07 -0.83 M41.45 204.06 C73.13 162.46, 112.65 119.47, 217.27 0.47 M40.82 205.6 C90.2 144.69, 140.67 86.45, 217.88 -1.35 M46.94 202.33 C102.37 144.93, 151.85 82.38, 224.52 -0.15 M45.75 204.5 C93.22 148.69, 144.27 92.37, 223.96 0.36 M51.96 203.68 C101.99 145.46, 157.54 86.36, 230.92 2.28 M49.13 202.73 C95.12 150.03, 138.79 96.32, 229.06 -0.81 M52.94 201.79 C112.37 138.33, 172.62 65.42, 234.12 1.77 M56.67 203.46 C96.5 154.06, 138.96 105.51, 233.92 -1.2 M63.3 205.04 C126.61 131.68, 192.24 52.82, 235.56 -0.9 M61.02 203.35 C126.79 131.08, 190.14 57.5, 237.28 1.04 M64.14 201.97 C125.79 140.63, 176.52 75.41, 243.61 -2.47 M65.61 203.19 C128.59 127.33, 194.08 51.34, 244.74 1.32 M72.92 204.64 C121.32 147.48, 174.61 83.27, 248.31 1.63 M71.5 203.82 C135.56 126.3, 198.71 54.83, 247.87 1.18 M75.4 201.55 C143.06 124.14, 204.51 51.08, 256.07 -0.82 M76.13 204.23 C126.18 151.94, 173.22 97.57, 255.26 -0.75 M81.75 201.01 C133.8 144.41, 182.55 92.3, 261.2 1.35 M82.08 203.79 C149.44 126.91, 215.59 51.38, 258.94 1.36 M89.79 202.82 C143.53 138.93, 196.91 73.68, 261.73 -0.44 M86.49 203.39 C126.68 160.39, 163.17 117.77, 265.47 2.08 M91.01 204.09 C163.43 130.98, 227.32 54.89, 266.07 8.75 M92.9 204.66 C144.25 144.76, 194.41 87.73, 262.79 7.23 M96.54 202.17 C138.2 163.14, 174.91 120.31, 264.6 9.54 M97.52 204.74 C134.38 162.84, 169.42 121.14, 263.9 13.65 M105.67 207.16 C140.22 158.34, 186.52 107.95, 263.74 16.86 M104.4 204.88 C162.3 138.58, 220.45 71.26, 263.07 18.59 M112.33 206.19 C141.53 165.02, 177.8 123.77, 262.8 23.55 M107.97 202.07 C164.91 138.12, 222.98 69.63, 266.35 23.73 M111.37 201.57 C144.86 169.27, 172.82 133.47, 263.59 28.3 M115.57 204.56 C166.5 138.75, 219.58 77.51, 263.04 32.68 M120.09 202 C169.63 149.46, 213.85 95.17, 267.07 37.22 M119.2 203.26 C165.15 150.16, 208.33 98.64, 265.35 37.96 M123.86 200.87 C162.97 153.09, 204.94 105.41, 266.2 41.99 M125.55 204.04 C162.52 164.34, 200.49 120.97, 265.77 44.65 M131.2 200.54 C178.18 151.74, 227.71 97.12, 263.37 49.1 M130.35 202.27 C179.31 148.82, 227.88 93.38, 263.68 48.04 M132.04 204.61 C169.22 170.72, 198.7 134.21, 263.39 57.41 M135.41 201.89 C160.69 171.33, 188.69 139.7, 263.09 53.58 M142.51 199.66 C176.66 157.94, 212.56 117.37, 267.59 62.42 M139.62 204.51 C183.27 148.22, 229.79 95.89, 262.46 62.03 M143.62 207.16 C187.22 152.24, 234.71 108.88, 262.98 70.84 M146.7 205.04 C178.72 167.55, 213.02 130.24, 265.71 66.48 M151.67 203.23 C182.52 166.45, 211.23 138.9, 267.49 70.6 M149.81 204.36 C179.9 167.15, 211.21 128.1, 262.6 75.01 M158.72 200.14 C179.99 174.93, 205.02 152.09, 266.22 76.68 M155.4 202.6 C191.21 166.03, 224.53 128.48, 262.51 81.89 M165.03 204.21 C203.2 159.56, 243.63 113.35, 262.4 85.46 M161 202.61 C200.69 157.94, 240.98 112.85, 264.83 85.5 M166.01 202.16 C197.43 168.94, 226.06 133.04, 266.58 92.34 M165.68 203.88 C195.45 169.05, 223.56 134.58, 265.52 91.58 M173.35 202.75 C198.47 171.19, 229.03 134.53, 267.53 102.16 M172.58 205.7 C192.24 181.46, 210.04 158.57, 263.55 99.13 M178.63 206.39 C194.67 178.53, 218.59 159.38, 264.68 103.02 M179.98 204.4 C199.09 178.32, 217.63 155.03, 262.7 103.84 M182.46 206.81 C203.63 179.86, 227.79 150.99, 264.5 108.2 M183.89 204.5 C207.51 175.22, 232.48 150.8, 263.43 111.54 M190.12 200.59 C215.2 172.41, 237.24 142.4, 263.52 114.49 M189.04 203.91 C208.27 180, 224.45 159.73, 263.29 118.14 M192.64 204.9 C215.28 176.12, 240.84 155.39, 265.4 123.88 M195.54 205.13 C222.39 169.19, 249.65 138.41, 265.45 122.81 M202.48 203.05 C217.42 182.47, 230.37 167.21, 263.93 125.84 M197.87 204.39 C213.83 187.74, 228.49 170.6, 263.16 127.93 M202.6 202.12 C221.62 177.24, 240.96 155.79, 263.41 131.31 M203.45 202.91 C221.21 186.11, 233.81 167.52, 263.54 136.51 M206.14 202.63 C230.31 181.22, 245.54 166.12, 263.11 138.46 M211.75 204.01 C223.61 189.66, 232.34 177.35, 265.44 139.63 M213.49 200.11 C232.01 184.55, 243.47 170.38, 268.16 143.16 M216.8 204.38 C224.8 190.33, 240.85 176.02, 265.88 146.41 M223.97 202.76 C231.96 189.38, 240.47 181.94, 262.74 156.56 M222.26 203.18 C230.99 190.76, 242.04 180.9, 262.56 151.14 M224.91 201.07 C233.21 194.17, 241.59 186.65, 261.03 159.45 M224.04 205.31 C240.44 185.33, 254.01 169.2, 264.3 159.26 M227.29 201.43 C239.68 189.91, 254.82 178.92, 267.61 164.16 M229.26 202.52 C239.55 193.66, 248.38 185.81, 264.88 166.8 M238.88 203.78 C241.99 197.86, 250.76 187.84, 265.85 168.45 M234.92 204.68 C240.83 195.69, 245.9 190.55, 262.87 169.78 M243.83 203.19 C246.29 197.08, 251.18 194.97, 264.92 177.84 M242.88 204.88 C251.56 194.62, 258.91 183.2, 266.06 176.19 M247.85 207.56 C249.24 194.6, 257.25 192.46, 260.89 187.28 M246.47 202.69 C252.77 195.96, 258.84 189.02, 263.98 183.15 M250.05 206.8 C256.52 200.8, 258.73 192.11, 267.33 187.74 M253.41 205.13 C256.6 200.26, 262.28 194.65, 264.35 188.96 M255.93 201.92 C260.03 200.76, 262.57 196.55, 265.1 197.39 M257.17 203.26 C259.85 201.89, 259.85 200.58, 264.8 194.72" stroke="#4c6ef5" stroke-width="0.5" fill="none"></path><path d="M0.46 -1.74 C89.32 1.87, 180.14 -0.82, 265.77 1.17 M0.62 1.03 C70.98 -0.35, 144.03 -1.49, 263.03 1.47 M267.06 -3.54 C257.46 47.62, 257.27 95.48, 266.93 200.24 M262.58 -1.4 C263.51 72, 265.85 148.45, 262.57 199.73 M263.77 199.83 C194.67 197.06, 129.54 202.39, 2.81 204 M264.89 201.06 C182.68 202.77, 101.09 201.85, -0.05 200.55 M-0.67 203.98 C-4.18 140.28, -5.42 84.61, -0.73 -1.39 M-0.3 200.61 C4 149.6, 2.47 100.53, -1.43 -1.66" stroke="#000000" stroke-width="1" fill="none"></path></g><g stroke-linecap="round"><g transform="translate(50.385251768813646 168.92732466432042) rotate(0 36.29505800786774 38.87012830448468)" fill-rule="evenodd"><path d="M0 0 C0 0, 0 0, 0 0 M0 0 C0 0, 0 0, 0 0 M-0.95 6.95 C2.12 4.07, 6.62 -0.8, 8.42 -4.64 M-0.1 7.06 C2.36 3.53, 5.47 -0.56, 9.24 -5.14 M-1.12 13.65 C4.47 7.4, 10.02 2.72, 13.63 -5.07 M-0.81 12.16 C4.31 6.48, 10.35 1.99, 15.59 -4.84 M-0.03 16.55 C6.28 9.17, 13.37 0.8, 21.83 -4.96 M-0.34 18.67 C4.85 10.55, 10.95 4.32, 20.75 -5.24 M0.89 25.04 C8.41 16.74, 15.85 6.77, 28.05 -4.74 M-0.38 25.82 C6.4 17.41, 12.88 9.2, 27.12 -6.19 M-1.11 29.4 C9.3 19.43, 16.71 11.3, 33.16 -5.97 M-0.21 31.16 C7.93 22.09, 16.13 11.47, 32.65 -6.55 M1.55 38.44 C9.53 26.7, 16.66 17.81, 35.3 -5.43 M-0.05 35.94 C15.25 20.35, 29.46 2.63, 36.41 -5.77 M-0.88 43.39 C7.7 31.62, 17.85 23.66, 40.28 -5.86 M-0.86 41.76 C14.27 26.05, 28.25 10.98, 41.69 -4.84 M1.13 47.15 C19.6 28.75, 38.11 8.11, 48.82 -4.85 M-1 49.49 C11.41 35.8, 22.3 21.2, 47.06 -4.58 M0.79 56.18 C13.88 39.29, 27.63 24.71, 49.65 -3.5 M-0.03 55.9 C17.96 34.19, 37 13.33, 52.27 -4.46 M-1.18 61.96 C21.47 36.08, 40.29 13.04, 57.32 -3.48 M-0.13 60.84 C14.72 43.61, 30.79 26.25, 55.78 -3.01 M1.31 68.41 C17.4 45.3, 37.61 24.75, 62.03 -3.28 M-0.41 67.38 C18.33 45.33, 38.01 23.04, 61.44 -4.34 M1.46 74.61 C16.56 56.3, 30.25 39.47, 67.45 -3.34 M-0.42 74.24 C21.19 50.49, 41.61 26.12, 66.03 -2.55 M1.4 78.19 C19.13 59.24, 36.89 38.71, 69.82 -0.34 M-0.52 79.92 C16.58 58.13, 35.23 37.43, 69.2 -2.26 M3.38 81.04 C21.17 61.95, 37.33 41.21, 75.17 1.01 M2.04 82.08 C26.91 54.94, 50.95 27.36, 74.42 0.22 M8.27 84.54 C20.67 66.27, 39.07 48.01, 72.42 7.91 M7.43 83.54 C33.14 52.61, 59.62 21.68, 74.89 6.65 M11.3 85.94 C25.56 69.52, 37.47 56.03, 72.48 12.31 M11.8 84.36 C33.62 59.51, 56.5 32.83, 74.42 12.39 M15.25 86.55 C34.68 61.65, 59.73 36.05, 75.43 17.73 M16.19 86.77 C28.66 69.84, 42.91 54.41, 73.37 18.88 M17.59 85.47 C38.59 65.61, 53.81 46.7, 73.09 25.89 M20.47 86.55 C33.56 71.46, 45.73 56.35, 73.04 25.08 M26.25 88.73 C36.61 76.92, 45.44 64.13, 75.36 30.62 M24.91 86.99 C43.25 65.46, 61.66 44.2, 74.74 31.04 M31.52 86.77 C42.93 74.17, 54.09 59.45, 76.12 37.34 M28.82 87.97 C44.23 70.25, 58.5 54.02, 73.52 36.12 M35.77 89.32 C45.17 75.42, 60.82 61.6, 73.03 44.51 M34.13 87.7 C49.32 70.08, 65.04 52.77, 74.74 42.13 M39.31 88.67 C45.41 79.54, 54.87 72.34, 75.31 48.25 M39.94 87.57 C49.05 79.55, 55.29 70.9, 73.59 48.73 M46.22 87.02 C52.85 79.75, 57.17 72.28, 75.58 55.85 M46.19 88.32 C54.88 77.52, 63.42 68.24, 73.75 54.57 M52.13 85.48 C59.62 77.38, 68.34 70.23, 75.67 61.16 M52.18 86.71 C56.65 80.83, 60.43 76.63, 73 61.51 M55.37 85.99 C63.71 81.8, 67.71 73.6, 73.08 66.54 M57.56 86.14 C62.41 82.12, 65.37 77.59, 74.41 66.17 M62.12 87.24 C65.2 84, 70.45 79.32, 75.33 74.02 M62.18 86.44 C63.9 84.41, 66.71 81.55, 74.6 73.91 M1.07 81.08 C1.07 81.08, 1.07 81.08, 1.07 81.08 M1.07 81.08 C1.07 81.08, 1.07 81.08, 1.07 81.08 M9.2 82.76 C6.6 80.93, 5.03 79.64, 2.68 77.72 M9.97 83 C6.51 80.76, 4.24 77.8, 2.33 77.2 M18.33 86.29 C11.58 80.66, 6.85 75.49, -0.01 72.61 M17.84 84.5 C11.13 80.59, 6.58 74.96, 2.72 70.65 M25.46 86.71 C15.58 78.16, 8.68 71.47, 1.79 67.62 M24.06 85.82 C18.57 80.13, 12.37 74.47, 2.71 66.58 M30.2 84.63 C20.73 76.14, 6.53 66.79, 3.42 62.3 M31.41 85.41 C23.95 78.38, 15.77 73.11, 1.16 60.25 M36.58 85 C25.32 77.58, 13.21 68.16, 0.44 55.68 M36.37 84.72 C26 76.3, 16.23 66.71, 2.6 55.26 M39.55 85.15 C31.95 73.68, 20.83 63.25, 0.9 49.15 M40.23 83.14 C27.38 71.4, 14.82 59.92, 1.95 49.63 M47.11 85.17 C33.09 73.78, 23.86 62.11, 3.22 44.98 M46.01 84.14 C31.34 71.2, 16.09 57.35, 2.17 45 M52.84 83.24 C30.86 65.35, 10.44 49.49, -0.08 40.16 M52.66 83.31 C39.19 71.39, 27.72 61.69, 0.78 38.28 M58.7 86.73 C39.93 65.78, 16.66 49.21, 3.5 32.9 M60.78 85.17 C38.16 65.4, 15.16 46.58, 1.53 34.76 M62.82 82.88 C52.27 73.19, 37.32 60.73, 2.23 28.54 M64.12 82.56 C42.23 62.53, 19.38 42.2, 0.94 27.85 M67.42 81.68 C41.71 58.6, 16.17 36.07, 1.94 22 M68.26 81.29 C42.53 58.73, 15.78 36.16, 1.92 24.13 M73 81.33 C50.6 60.22, 26.24 38.27, 1.87 19.72 M72.64 80.23 C51.8 60.89, 33.32 44.59, 2.35 17.12 M72.2 75.37 C52.39 57.06, 31.54 38.19, 0.46 14.08 M73.16 74.26 C50.86 55.44, 28.23 35.28, 2.69 12.34 M72.14 67.07 C53.58 51.18, 34.15 37.08, 3.93 6.01 M72.34 69.3 C54.15 53.2, 36.6 37.21, 3.29 7.68 M71.98 65.42 C45.45 40.24, 20.62 16.39, 0.29 4.15 M73.58 64.05 C55.43 49.53, 40.83 37.09, 2.28 3.26 M73.15 56.97 C53.66 43.2, 36.39 27.17, 3.49 -2.01 M73.29 58.55 C50.79 40.06, 31.13 21.69, 2.38 -1.71 M71.27 54.28 C53.97 36.64, 31.17 19.08, 6.92 -6.92 M73.48 54.36 C46.31 29.74, 19.99 6.95, 4.28 -4.97 M73.88 47.88 C58.38 36.95, 42.65 23.66, 12.5 -6.4 M73.36 47.18 C54.38 31.75, 37.99 18.32, 10.42 -6.98 M72.32 42.66 C55.17 28.34, 37.45 9.88, 15.43 -7.11 M71.92 43.07 C58.85 30.58, 47.09 20.35, 15.63 -5.61 M71.49 37.87 C59.11 27.98, 50.64 16.67, 20.08 -6.09 M71.54 37.03 C60.21 25.91, 47.04 14.02, 21.72 -8.03 M73.69 31.49 C56.6 17.81, 36.45 0.92, 27.81 -9.6 M72.56 31.22 C57.36 18.95, 41.2 3.95, 27.07 -8.74 M73.17 28.89 C63.85 21.48, 55.45 11.44, 34.19 -9.86 M73.66 26.24 C61.19 15.65, 48.05 4.53, 32.73 -8.67 M72.2 19.93 C63.12 11.19, 54.08 4.54, 39.15 -9.86 M72.67 22 C64.74 13.67, 55.63 6.11, 38.24 -9.25 M71.12 18.15 C66.13 10.4, 57.73 3.92, 43.78 -9.62 M72.44 15.62 C63.32 7.17, 52.9 -0.94, 43.27 -8.93 M72.94 11.36 C67.71 5.2, 61.84 -2.09, 52.1 -10.16 M72.14 11.71 C66.16 5.2, 58.71 -0.2, 51.15 -8.46 M73.1 4.04 C67.48 3.6, 64.18 -2.92, 59.14 -8.43 M72.92 5.58 C69.65 1.64, 64.22 -0.65, 57.77 -8.08 M71.99 -0.21 C69.49 -2.53, 67.86 -3.2, 64.21 -7.23 M72.56 0.53 C70.09 -2.25, 67.04 -3.92, 65.39 -5.98" stroke="#228be6" stroke-width="0.5" fill="none"></path><path d="M0.91 0.16 C0.7 11.97, -0.39 57.44, -0.68 70.51 C-0.97 83.58, -1.74 76.75, -0.85 78.57 C0.05 80.4, 1.88 80.29, 4.7 81.47 C7.52 82.65, 10.62 84.86, 16.1 85.64 C21.58 86.43, 30.18 86.36, 37.59 86.17 C45 85.97, 55.19 85.34, 60.59 84.49 C65.98 83.64, 67.92 82.08, 69.97 81.07 C72.02 80.05, 72.23 79.85, 72.87 78.37 C73.51 76.9, 73.79 84.34, 73.82 72.23 C73.86 60.12, 73.55 17.95, 73.09 5.71 C72.64 -6.53, 72.19 0.39, 71.08 -1.23 C69.97 -2.85, 68.86 -3.2, 66.43 -4.01 C64.01 -4.81, 61.91 -5.36, 56.55 -6.05 C51.19 -6.73, 40.91 -7.95, 34.27 -8.11 C27.62 -8.27, 22.02 -7.9, 16.7 -7 C11.39 -6.11, 5.28 -3.82, 2.38 -2.76 C-0.52 -1.7, -0.14 -1.17, -0.68 -0.64 C-1.23 -0.1, -0.86 0.53, -0.9 0.44 M-0.07 -0.8 C0.04 11.2, 1.27 58.42, 1.55 71.83 C1.83 85.25, 0.95 77.96, 1.6 79.66 C2.24 81.37, 2.72 80.96, 5.45 82.04 C8.17 83.12, 12.46 85.64, 17.95 86.14 C23.44 86.64, 31.73 84.95, 38.41 85.02 C45.09 85.1, 52.4 87.33, 58.02 86.59 C63.64 85.84, 69.9 82.16, 72.13 80.56 C74.36 78.95, 71.52 78.4, 71.42 76.97 C71.32 75.53, 71.15 83.68, 71.54 71.94 C71.92 60.21, 73.51 18.31, 73.72 6.57 C73.93 -5.17, 74.06 3.43, 72.8 1.51 C71.53 -0.41, 68.44 -3.64, 66.14 -4.96 C63.83 -6.27, 64.29 -5.71, 58.96 -6.38 C53.62 -7.05, 41.02 -9.05, 34.1 -9 C27.19 -8.94, 22.4 -7.22, 17.45 -6.03 C12.5 -4.85, 7.08 -2.77, 4.4 -1.86 C1.72 -0.95, 1.94 -1.04, 1.36 -0.58 C0.77 -0.12, 1.28 0.81, 0.91 0.92" stroke="#0a11d3" stroke-width="1" fill="none"></path></g></g><g stroke-linecap="round"><g transform="translate(50.951777408012504 222.73965878537751) rotate(0 35.6244515927323 3.40779681335934)"><path d="M0.16 -0.92 C0.46 -0.68, -0.09 1.06, 1.51 2.36 C3.11 3.66, 6.65 6.12, 9.76 6.88 C12.87 7.63, 15.36 6.96, 20.17 6.91 C24.98 6.86, 32.27 6.47, 38.63 6.57 C45 6.68, 53.14 8.3, 58.35 7.53 C63.56 6.76, 67.54 3.22, 69.89 1.97 C72.24 0.73, 71.99 0.25, 72.47 0.05 M-1.22 1.21 C-1.08 1.5, -1.32 2.81, 0.34 3.45 C2.01 4.08, 5.51 4.33, 8.77 5.03 C12.03 5.74, 15.13 7.45, 19.88 7.67 C24.63 7.9, 30.64 6.49, 37.27 6.37 C43.9 6.25, 54.15 7.37, 59.66 6.94 C65.17 6.52, 68.38 4.98, 70.32 3.81 C72.26 2.64, 71.15 0.56, 71.27 -0.07" stroke="#0a11d3" stroke-width="1" fill="none"></path></g></g><g stroke-linecap="round"><g transform="translate(50.05031212582821 195.47983391221402) rotate(0 36.143179252315406 3.6882021407893006)"><path d="M-0.92 -0.41 C-0.89 0.03, -0.95 1.91, 1.06 2.79 C3.07 3.68, 7.89 4.07, 11.14 4.9 C14.39 5.73, 16.19 7.32, 20.55 7.76 C24.9 8.19, 30.82 7.76, 37.3 7.51 C43.78 7.26, 54.06 7.08, 59.41 6.26 C64.76 5.43, 67.09 3.67, 69.39 2.56 C71.69 1.45, 72.45 0.02, 73.21 -0.42 M0.8 -1.67 C1.12 -1.08, 1.64 2.88, 3.32 4.1 C5 5.33, 8.02 4.87, 10.88 5.68 C13.73 6.49, 15.78 8.62, 20.45 8.97 C25.12 9.32, 32.7 8.46, 38.89 7.8 C45.09 7.14, 52.51 6.13, 57.62 5 C62.73 3.88, 67.1 2.01, 69.56 1.05 C72.03 0.08, 71.85 -0.4, 72.4 -0.78" stroke="#0a11d3" stroke-width="1" fill="none"></path></g></g><g stroke-linecap="round" transform="translate(49.12652645259817 162.31334414970289) rotate(0 36.12101383327544 7.305203298234844)"><path d="M-0.53 6.17 C-0.53 6.17, -0.53 6.17, -0.53 6.17 M-0.53 6.17 C-0.53 6.17, -0.53 6.17, -0.53 6.17 M2.25 8.87 C3.7 6.92, 5.58 6.15, 7.75 3.46 M2.52 8.72 C4.5 6.59, 5.76 4.96, 7.7 3.14 M6.55 11.53 C9.21 7.61, 10.44 4.25, 12.78 2.15 M6.1 11.04 C7.82 8.6, 9.59 6.31, 12.87 1.9 M9.65 11.47 C13.6 10.3, 15.48 6.84, 20.41 1.65 M9.52 12.75 C13.21 9.15, 16.27 5.8, 20.23 0.88 M14.46 13.35 C17.93 7.84, 21.15 4.81, 24.77 -0.25 M14.41 13.16 C18.64 8.05, 23.34 3.57, 26.04 0.82 M17.66 13.79 C21.55 12.11, 26.34 8.76, 29.3 2.04 M19.97 13.76 C22.63 10.91, 24.09 8.01, 30.94 1.18 M22.72 15.15 C27.11 9.57, 31.74 5.45, 34.8 1.35 M24.38 13.68 C29.02 8.46, 32.43 4.23, 34.89 1.73 M30.75 16 C33.87 11.32, 35.3 7.31, 42.04 2.78 M28.7 15.62 C33.36 8.65, 38.67 4.33, 41.36 0.36 M32.14 17.37 C35.7 13.8, 40.4 9.45, 45.67 2.13 M33.33 15.95 C37.3 11.58, 42.77 5.66, 45.63 2.07 M39.9 16.81 C40.17 11.09, 46.25 8.62, 50.01 0 M38.18 16.37 C42.24 11.43, 46.28 6.55, 51.04 2.19 M44.12 14.56 C46.91 12.76, 52.51 5.91, 54.39 3.09 M44.17 15.44 C47.94 11.91, 50.59 7.66, 55.54 2.86 M48.82 15.19 C51.74 13.61, 56.21 9.64, 59.85 3.34 M49.81 15 C53.7 11.15, 57.62 7.27, 59.99 4.6 M55.48 13.55 C57.49 12.53, 59.97 9.33, 64.63 4.79 M55.73 14.36 C59.09 10.87, 61.75 7.48, 64.22 4.5 M62.59 12.46 C63.92 11.19, 65.12 9.63, 69.1 4.8 M63.18 12.38 C64.57 9.73, 66.84 7.84, 69 5.45 M-0.59 6.77 C-0.59 6.77, -0.59 6.77, -0.59 6.77 M-0.59 6.77 C-0.59 6.77, -0.59 6.77, -0.59 6.77 M9.49 11.49 C8.13 9.69, 7.28 8.71, 2.72 4.31 M10.6 10.65 C7.6 8.8, 4.05 5.77, 2.93 4.8 M18.49 13.05 C15.13 9.95, 13.31 6.67, 7.43 3.54 M16.99 11.78 C13.87 9.62, 11.18 5.91, 6.26 3.11 M25 13.11 C21.45 8.11, 16.51 9.07, 7.82 -0.61 M24.07 12.65 C20.8 10.34, 16.05 6.67, 9.01 -0.65 M29.91 12.58 C28.68 11.85, 24.68 8.11, 16.4 -0.4 M32.67 14.38 C27.62 9.66, 21 4.93, 15.48 -1.38 M36.92 14.79 C32.49 9.6, 22.97 3.44, 21.51 -0.65 M37.71 13.46 C32.51 8.31, 27.3 4.84, 20.01 -1.27 M43.28 13.2 C40.42 10.13, 35.08 3.44, 27.96 0.46 M43.93 12.22 C37.68 7.1, 29.76 1.28, 26.03 -1.6 M47.6 12.43 C42.69 7.98, 40.46 2.86, 30.6 -1.78 M48.83 13.09 C43.41 8.16, 38.2 4.68, 31.85 -3.19 M53.58 12.79 C49.23 7.24, 41.17 1.74, 37.34 -3.51 M55.06 11.9 C50.72 9.22, 46.55 5.33, 37.37 -1.52 M60.93 13.35 C57.41 8.44, 49.42 4.52, 43.49 -0.37 M59.09 12.71 C54.39 7.6, 48.29 2.82, 43.21 -2.09 M64.78 8.93 C59.85 5.9, 56.95 4.57, 54.79 -0.08 M63.8 9.41 C61 7.43, 57.12 4.83, 53.8 0.55 M70.2 9.56 C66.03 6.92, 63.72 3.7, 62.35 2.66 M69.26 9.78 C67.18 7.04, 63.14 3.95, 61.6 2.34 M70.78 5.34 C70.41 5.03, 69.97 4.55, 69.44 3.88 M70.96 5.4 C70.56 5.05, 70.08 4.57, 69.37 4" stroke="#fff" stroke-width="0.5" fill="none"></path><path d="M29.17 0.29 C36.04 0.04, 46.19 0.11, 53.12 0.8 C60.04 1.49, 68.03 2.99, 70.74 4.44 C73.44 5.89, 72.04 7.99, 69.36 9.51 C66.68 11.04, 61.05 12.7, 54.65 13.58 C48.25 14.45, 38.55 15.06, 30.95 14.76 C23.34 14.47, 14.34 13.19, 9.04 11.82 C3.74 10.45, -0.6 8.11, -0.85 6.54 C-1.1 4.98, 2.22 3.55, 7.53 2.43 C12.83 1.31, 26.67 0.3, 30.96 -0.17 C35.25 -0.63, 33.1 -0.45, 33.24 -0.37 M24.51 -0.78 C31.41 -1.37, 43.45 -1.42, 50.48 -0.57 C57.5 0.28, 63.16 2.83, 66.66 4.32 C70.16 5.81, 72.69 6.74, 71.47 8.38 C70.24 10.02, 65.37 12.92, 59.31 14.16 C53.25 15.4, 43.05 15.86, 35.12 15.8 C27.2 15.75, 17.5 15.31, 11.78 13.84 C6.05 12.36, 1.98 8.85, 0.77 6.96 C-0.44 5.08, 0.53 3.53, 4.54 2.55 C8.54 1.57, 21.45 1.52, 24.79 1.08 C28.13 0.64, 24.22 0.18, 24.55 -0.07" stroke="#0a11d3" stroke-width="1" fill="none"></path></g><g stroke-linecap="round" transform="translate(108.06507847460716 182.56880015208552) rotate(0 5.293880827008536 5.745481273067654)"><path d="M5.85 0.47 C6.81 0.89, 7.96 2.15, 8.78 3.09 C9.59 4.03, 10.78 5.01, 10.74 6.11 C10.69 7.22, 9.31 8.87, 8.51 9.7 C7.72 10.54, 7.06 10.94, 5.99 11.14 C4.91 11.33, 2.86 11.52, 2.05 10.89 C1.25 10.25, 1.38 8.5, 1.17 7.31 C0.96 6.12, 0.64 4.95, 0.78 3.77 C0.92 2.6, 1.04 0.89, 2.03 0.26 C3.01 -0.37, 5.75 -0.07, 6.69 0 C7.63 0.06, 7.76 0.38, 7.68 0.65 M5.69 -1.18 C6.8 -1.38, 8.39 0.41, 9.16 1.7 C9.92 2.99, 10.43 5.31, 10.29 6.55 C10.14 7.79, 8.97 8.39, 8.27 9.15 C7.56 9.9, 6.67 10.61, 6.06 11.09 C5.44 11.58, 5.42 12.39, 4.59 12.04 C3.76 11.69, 1.74 10.06, 1.09 8.98 C0.44 7.89, 0.41 6.83, 0.68 5.53 C0.96 4.23, 2.15 2.14, 2.74 1.17 C3.34 0.2, 3.9 -0.09, 4.25 -0.31 C4.6 -0.53, 4.78 -0.42, 4.83 -0.15" stroke="none" stroke-width="0" fill="#fff"></path><path d="M7.52 -0.49 C8.65 0.1, 9.41 2.72, 9.84 3.84 C10.27 4.97, 10.39 5.13, 10.12 6.27 C9.85 7.41, 9.08 9.64, 8.23 10.67 C7.38 11.7, 6.04 12.48, 4.99 12.45 C3.95 12.41, 2.81 11.6, 1.96 10.46 C1.1 9.32, 0.16 7.06, -0.16 5.61 C-0.48 4.17, -0.56 2.84, 0.05 1.8 C0.67 0.76, 2.29 -0.3, 3.53 -0.62 C4.77 -0.94, 6.84 -0.33, 7.5 -0.14 C8.16 0.05, 7.58 0.4, 7.5 0.51 M4.79 0.58 C5.81 0.52, 6.99 -0.51, 8.02 0.3 C9.05 1.12, 10.8 3.81, 10.97 5.49 C11.14 7.17, 9.6 9.3, 9.03 10.37 C8.47 11.44, 8.4 11.81, 7.58 11.9 C6.76 12, 5.12 11.5, 4.12 10.93 C3.12 10.36, 2.44 9.81, 1.58 8.48 C0.71 7.16, -1.07 4.32, -1.07 2.98 C-1.08 1.65, 0.27 1.13, 1.55 0.49 C2.84 -0.16, 6.02 -0.9, 6.65 -0.88 C7.28 -0.86, 5.72 0.15, 5.35 0.58" stroke="#0a11d3" stroke-width="1" fill="none"></path></g><g stroke-linecap="round" transform="translate(108.06507847460716 207.79144133317573) rotate(0 5.293880827008536 5.7454812730676394)"><path d="M5.76 -0.63 C7.11 -0.58, 8.9 0.78, 9.74 1.57 C10.58 2.35, 10.75 2.92, 10.79 4.09 C10.84 5.25, 10.69 7.48, 10.01 8.58 C9.33 9.68, 7.79 10.1, 6.72 10.67 C5.65 11.24, 4.66 12.27, 3.6 11.99 C2.54 11.7, 0.92 10.29, 0.35 8.95 C-0.22 7.6, -0.01 5.26, 0.19 3.93 C0.38 2.61, 0.49 1.59, 1.51 0.98 C2.54 0.37, 5.29 0.42, 6.31 0.28 C7.34 0.14, 7.51 0.04, 7.68 0.14 M4.14 0.18 C5.01 0.07, 7.51 0.57, 8.81 1.1 C10.11 1.63, 11.71 2.24, 11.92 3.38 C12.12 4.53, 10.88 6.43, 10.04 7.96 C9.2 9.5, 7.81 11.99, 6.89 12.61 C5.96 13.23, 5.4 12.27, 4.49 11.69 C3.58 11.1, 1.94 10.17, 1.41 9.1 C0.87 8.03, 1.17 6.79, 1.27 5.26 C1.37 3.73, 1.37 0.91, 2 -0.1 C2.62 -1.12, 4.5 -0.69, 5.01 -0.83 C5.52 -0.96, 4.88 -1.25, 5.05 -0.93" stroke="none" stroke-width="0" fill="#fff"></path><path d="M2.17 0.35 C3.33 -0.29, 6.32 -0.44, 7.45 -0.12 C8.57 0.19, 8.34 1.18, 8.91 2.24 C9.49 3.31, 10.74 4.96, 10.91 6.27 C11.09 7.59, 10.74 9.28, 9.95 10.12 C9.17 10.95, 7.62 11.36, 6.19 11.27 C4.76 11.19, 2.5 10.34, 1.36 9.62 C0.21 8.9, -0.39 8.06, -0.67 6.97 C-0.96 5.87, -1.01 4.26, -0.35 3.04 C0.3 1.81, 2.45 0.19, 3.28 -0.37 C4.11 -0.93, 4.56 -0.54, 4.61 -0.33 M4.44 -0.92 C5.33 -1.05, 5.05 0.3, 6.01 0.91 C6.96 1.53, 9.22 1.55, 10.16 2.78 C11.09 4, 11.81 6.79, 11.61 8.26 C11.4 9.74, 10.04 10.91, 8.92 11.63 C7.81 12.36, 6.06 13.13, 4.92 12.62 C3.77 12.1, 3.03 9.73, 2.03 8.54 C1.03 7.34, -0.83 6.33, -1.09 5.45 C-1.35 4.56, -0.2 4.18, 0.48 3.22 C1.16 2.25, 2.33 0.38, 2.97 -0.34 C3.62 -1.06, 3.99 -1.04, 4.35 -1.09" stroke="#0a11d3" stroke-width="1" fill="none"></path></g><g stroke-linecap="round" transform="translate(108.06507847460716 235.2051009463421) rotate(0 5.293880827008536 5.7454812730676394)"><path d="M3.01 1.25 C4.12 0.8, 6.39 0.35, 7.41 0.68 C8.44 1.01, 8.7 2.23, 9.19 3.22 C9.67 4.22, 10.53 5.43, 10.34 6.64 C10.15 7.85, 8.77 9.72, 8.05 10.48 C7.33 11.24, 6.98 11.24, 6.01 11.18 C5.03 11.12, 3.3 10.96, 2.19 10.11 C1.08 9.27, -0.37 7.39, -0.65 6.1 C-0.93 4.82, -0.37 3.42, 0.5 2.41 C1.37 1.4, 3.88 0.28, 4.59 0.03 C5.29 -0.22, 4.71 0.81, 4.73 0.92 M7.73 0.63 C8.69 1.5, 9.62 3.61, 9.83 4.74 C10.04 5.88, 9.36 6.51, 8.99 7.44 C8.62 8.36, 8.07 9.44, 7.62 10.29 C7.17 11.13, 7.19 12.48, 6.26 12.51 C5.34 12.55, 3.05 11.36, 2.09 10.51 C1.14 9.66, 0.64 8.74, 0.54 7.4 C0.45 6.07, 1.2 3.76, 1.53 2.5 C1.86 1.25, 1.66 0.24, 2.53 -0.13 C3.39 -0.51, 6.07 0.02, 6.72 0.27 C7.38 0.52, 6.27 1.27, 6.47 1.37" stroke="none" stroke-width="0" fill="#fff"></path><path d="M3.72 0.93 C4.66 0.58, 6.14 -0.68, 7.16 -0.23 C8.17 0.22, 9.27 2.23, 9.81 3.63 C10.35 5.03, 10.58 6.94, 10.38 8.15 C10.18 9.37, 9.57 10.51, 8.62 10.92 C7.67 11.34, 5.98 10.94, 4.67 10.62 C3.36 10.3, 1.6 9.87, 0.79 9 C-0.02 8.13, -0.16 6.63, -0.18 5.41 C-0.19 4.19, 0.08 2.66, 0.71 1.7 C1.35 0.75, 3.1 0.04, 3.66 -0.32 C4.21 -0.68, 3.9 -0.51, 4.05 -0.43 M2.88 -1.32 C4.16 -1.76, 6.87 -0.33, 7.99 0.65 C9.11 1.64, 9.04 3.38, 9.62 4.59 C10.19 5.79, 11.47 6.89, 11.45 7.88 C11.42 8.88, 10.39 9.88, 9.47 10.55 C8.54 11.23, 7.44 12.24, 5.9 11.92 C4.35 11.6, 1.32 9.67, 0.2 8.63 C-0.92 7.6, -1.07 6.9, -0.82 5.7 C-0.56 4.51, 1.03 2.31, 1.74 1.46 C2.46 0.61, 3.31 0.62, 3.46 0.61 C3.6 0.6, 2.74 1.2, 2.62 1.4" stroke="#0a11d3" stroke-width="1" fill="none"></path></g><g transform="translate(10 95) rotate(0 77 25)"><text x="77" y="18" font-family="Virgil, Segoe UI Emoji" font-size="20px" fill="#000000" text-anchor="middle" style="white-space: pre;" direction="ltr">Base de Datos</text><text x="77" y="43" font-family="Virgil, Segoe UI Emoji" font-size="20px" fill="#000000" text-anchor="middle" style="white-space: pre;" direction="ltr">Red Sensores</text></g><g stroke-linecap="round" transform="translate(361.2741010488645 163.64524667022) rotate(0 27.553511801951572 51.43322203030945)"><path d="M0 0 C0 0, 0 0, 0 0 M0 0 C0 0, 0 0, 0 0 M-0.4 6 C2.23 5.67, 1.64 3.94, 3.77 -0.96 M-0.19 6.19 C0.95 4.28, 2.54 3.16, 5.47 0.14 M-2.24 10.86 C4.08 6.76, 7.95 5.31, 10.05 -0.66 M1.46 12.29 C2.51 9.03, 6.18 7.87, 10.27 -0.4 M-0.01 20.19 C1.18 16.13, 3.57 8.5, 13.42 0.44 M-2.13 16.74 C5.61 14.44, 9.07 7.17, 15.39 1.29 M4.13 22.84 C6.84 19.77, 10.53 13.47, 17.44 -3.74 M0.36 24.51 C2.91 18.18, 11.13 12.85, 19.74 -1.42 M1.25 29.16 C4.1 21.01, 12.42 19.9, 22.95 -2.49 M-1.86 29.79 C6.82 21.91, 15.24 10.74, 24.54 1.8 M-1.35 36.88 C8.32 25.43, 21.18 13, 35.85 -1.17 M0.57 37.9 C13.52 22.98, 23.19 8.94, 32.96 -1.9 M-3.11 39.56 C10.25 33.92, 19.33 26.43, 37.31 3 M0.72 41.42 C12.56 28.34, 24.85 15.69, 35.89 1.25 M3.5 47.14 C14.01 28.76, 34.32 13.99, 40.66 -2.67 M0.59 50.28 C16.67 28.81, 31.8 11.52, 42.44 -0.64 M1.17 55.09 C12.41 40.57, 23.43 24.34, 45.78 2.04 M0.86 56.28 C19.32 35.48, 39.81 13.29, 45.88 0.81 M-1.9 60.78 C14.09 47.54, 29.45 32.2, 55.95 -1.37 M-1.14 58.96 C20.06 39.18, 36.64 19.32, 54.03 -2.05 M-3.73 64.61 C14.59 52.51, 28.84 35.82, 54.93 3.74 M-1.66 66.1 C20.81 44.52, 42.98 19.82, 57.91 2.48 M-2.95 74.63 C23.3 50.97, 36.81 28.42, 55.81 5.58 M-1.31 71.79 C10.35 62.06, 22.77 46.08, 58.19 9.25 M2.9 83.17 C19.76 61.52, 38.3 36.94, 55.3 11.18 M-1.84 80.57 C12.13 65.69, 23.97 51.3, 54.99 13.03 M-2.46 87.97 C20.83 58.86, 44.74 40.64, 55.41 19.66 M1.61 85.89 C13.87 64.81, 29.36 50.7, 55.16 21.14 M0.36 88.53 C9.82 74.69, 26.04 61.79, 57.07 22.26 M0.53 89.98 C21.47 71.37, 38.74 47.69, 57.44 26.94 M-1.36 99.26 C20.38 75.39, 32.6 52.51, 53.78 35.03 M0.72 98.4 C20.63 77.5, 38.2 56.29, 55.68 33.99 M-2.83 102.11 C12.55 92.63, 22.92 76.09, 59.8 39.88 M1.58 104.11 C19.97 78.24, 44.24 53.72, 58.6 38.51 M5.87 100.37 C25.48 78.01, 44.01 57.91, 60.58 45.04 M7.19 102.72 C23.87 85.39, 40.42 66.39, 57.78 45.27 M12.92 101.71 C26.53 89.58, 36.57 78.4, 56.93 50.13 M9.11 102.95 C24.91 87.2, 41.11 67.48, 55.38 50.09 M18.13 100.14 C26.39 90.09, 35.09 86.46, 58.71 54.77 M15.24 102.06 C28.17 91.88, 35.29 80.59, 55.39 55.95 M18.74 101.71 C31.37 93.66, 40.8 80.78, 58.46 63.28 M21.18 102.95 C35.54 89.34, 45.68 71.84, 56.85 63.03 M30.26 104.88 C35.03 91.51, 50.33 74.87, 55.64 69.71 M26.68 103.96 C36.43 92.55, 43.93 82.24, 55.64 69.29 M28.85 104.86 C38.52 100.17, 44.24 90.71, 58.97 74.3 M31.56 102.72 C41.99 93.66, 46.89 85.32, 58.37 76.25 M36.23 106.05 C42.45 97.16, 54.3 85.29, 54.72 84.54 M36.14 101.94 C42.9 98.34, 48.34 90.78, 56.23 81.58 M46.02 102.35 C50.37 99.62, 48.23 92.59, 60.27 87.84 M41.22 105.2 C46.53 96.14, 54.33 91.17, 58.15 85.16 M45.91 104.64 C50.92 101.19, 52.33 95.21, 54.9 92.48 M48.41 102.85 C51.8 100.52, 55.77 96.75, 57.63 93.14 M52.18 102.85 C53.71 102.87, 55.77 100.28, 57.68 98.84 M53.02 103.39 C54.49 101.61, 56.31 100.65, 57.65 99.29 M-0.37 102.55 C-0.37 102.55, -0.37 102.55, -0.37 102.55 M-0.37 102.55 C-0.37 102.55, -0.37 102.55, -0.37 102.55 M5.83 104.39 C5.26 101.44, 2.05 99.19, -0.06 98.54 M5.42 102.83 C3.35 100.56, 1.68 98.32, -0.37 97.33 M14.06 103.47 C11.61 102.82, 8.97 101.49, -0.97 91.19 M11.27 103.04 C8.27 100.15, 8.22 99.66, -0.66 94.03 M15.54 106.6 C15.19 96.29, 5.3 91.22, 3.77 90.71 M17.51 103.65 C12.24 97.18, 9.75 92.99, -1.04 85.74 M24.41 105.77 C18.69 99.75, 15.39 95.6, 0.97 78.88 M22.51 104.12 C17.63 95.64, 11.56 91.09, 2.11 83.12 M33.3 101.88 C14.52 95.62, 8.93 79.38, 1.3 78.92 M29.91 101.62 C18.08 91.3, 5.87 80.7, 0.16 76.74 M32.59 106.29 C23.95 95.85, 9.28 83.31, 2.6 74.28 M38.45 104.14 C23.42 94.1, 13.56 84.35, 0.21 69.96 M41.18 102.63 C25.42 94.84, 11.94 76.42, -0.94 69.47 M41.54 103.74 C23.82 88.45, 8.62 75.56, -2.02 65.82 M52.37 99.21 C38.85 92.43, 28.07 85.59, -1.03 61.61 M48.74 102.3 C36.83 93.61, 23.57 80.93, 1.04 62.16 M55.79 105.33 C29.38 87.75, 14.57 69.23, 2.23 53.63 M53.18 103.31 C34.28 86.79, 13.74 67.99, -2.05 54.11 M60.66 102.44 C36.14 83.61, 13.29 58.85, 2.05 49.85 M58.5 100.47 C38.93 83.96, 16.21 65.82, 1.49 49.22 M55.54 93.02 C40.69 83.48, 22.31 64.48, 2.54 45.12 M56.05 94 C37.76 79.66, 17.55 61.68, 1.82 46 M57.91 89.69 C32.82 69.42, 10.72 47.36, -3.64 36.44 M58.08 89.19 C33.23 72.58, 12.11 51.79, 1.68 40.95 M61.75 81.62 C40.55 71.05, 24.98 50.94, -1.7 36.09 M58.92 86.22 C36.93 64.69, 19.67 49.14, 1.56 35.17 M58.23 82.24 C38.07 60.11, 23.02 46.71, -1.03 27.25 M59.12 77.37 C43.23 64.92, 29.19 54.4, -1.08 29.41 M61.27 76.89 C43.54 63.69, 32.22 52.29, -1.63 25.13 M56.74 74.05 C45.69 60.78, 31.9 49.44, 1.35 22.59 M61.23 67.93 C35.91 50.45, 24.21 37.69, -0.46 16.59 M56.44 69.37 C40.73 54.65, 22.3 39.29, 1.76 18.95 M58.49 62.37 C45.35 49.05, 26.07 40.97, 2.18 13.27 M56.71 61.21 C44.95 52.68, 32.91 39.69, -0.41 14.51 M57.09 61.02 C38.51 37.98, 20.14 25.78, -3.72 7.2 M59.05 58.79 C42.59 41.83, 24.86 29.23, -0.03 8.21 M58.36 54.07 C44.5 36.07, 22.24 19.21, -4.28 -0.04 M59.19 53.71 C36.54 35.38, 18.13 19.66, -1.08 0.44 M54.54 50.25 C38.51 28.47, 16.19 16.11, 1.45 -0.42 M56.22 46.54 C44.51 32.16, 31.38 22.78, 0.04 -2.58 M54.42 40.42 C42.19 31.93, 30.94 15.22, 11.84 2.34 M55.81 41.85 C46.14 28.37, 30.58 16.85, 8.46 -1.58 M60.9 34.75 C45.3 24.47, 28.65 16.23, 11.46 1.22 M55.39 34.8 C42.44 23.55, 27.06 12.01, 13.21 -0.35 M56.73 34.28 C43.1 24.66, 37.56 14.96, 17.12 0.79 M59.38 30.2 C42.65 19.59, 32.46 10.07, 20.76 -1.41 M54.03 28.11 C43.06 12.48, 28.9 4.22, 23.63 -1 M56.27 25.04 C47.94 14.8, 34.34 7.89, 26.36 -0.8 M55.96 20.97 C50.73 16.32, 41.32 5.41, 33.48 -5.18 M57.95 19.61 C49.8 13.72, 46.31 10.1, 31.31 -2.96 M58.34 14.37 C52.73 13.02, 49.24 8.95, 39.18 -1.94 M56.76 16 C51.59 8.04, 47.72 4.77, 38.86 -3.53 M59.14 10.2 C51.37 3.13, 50.48 -2.15, 41.44 1.29 M56.87 9.28 C53.67 5.56, 50.05 3.86, 43.67 -3.4 M58.87 5.93 C54.44 0.84, 50.97 -1.64, 51.88 -1.81 M58.03 4.9 C56.36 2.11, 54.25 1.94, 50.74 -1.72" stroke="#868e96" stroke-width="0.5" fill="none"></path><path d="M1.26 -3.2 C22.78 3.46, 39.52 1.77, 58.16 3.09 M-1.39 -0.73 C21.72 -1.14, 43.5 0.59, 54.08 0.27 M55.82 1.32 C56.87 42.81, 55.03 76.43, 58.51 99.13 M54.61 0.29 C51.46 33.08, 52.32 64.34, 57.07 103.23 M53.92 100.28 C42.53 103.71, 33.92 103.65, 2.83 100.8 M54.35 101.67 C34.22 102.33, 15.82 104.19, 0.36 103.81 M-1.29 102.52 C2.77 65.71, 3.22 24.98, -1.96 2.69 M1.87 103.62 C2.05 74.74, 1.41 48.28, 0.53 0.37" stroke="#000000" stroke-width="1" fill="none"></path></g><g transform="translate(331 98.3715736270756) rotate(0 61 25)"><text x="61" y="18" font-family="Virgil, Segoe UI Emoji" font-size="20px" fill="#000000" text-anchor="middle" style="white-space: pre;" direction="ltr">Servidor de </text><text x="61" y="43" font-family="Virgil, Segoe UI Emoji" font-size="20px" fill="#000000" text-anchor="middle" style="white-space: pre;" direction="ltr">Paginas Web</text></g><g stroke-linecap="round"><g transform="translate(367.9052113748909 175.02489780158058) rotate(0 21.124359048162773 1.7053025658242404e-13)"><path d="M0 0 C7.04 0, 35.21 0, 42.25 0 M0 0 C7.04 0, 35.21 0, 42.25 0" stroke="#000000" stroke-width="2" fill="none"></path></g></g><g stroke-linecap="round"><g transform="translate(367.7032538026524 184.49390140984576) rotate(0 21.124359048162773 1.7053025658242404e-13)"><path d="M0 0 C7.04 0, 35.21 0, 42.25 0 M0 0 C7.04 0, 35.21 0, 42.25 0" stroke="#000000" stroke-width="2" fill="none"></path></g></g><g stroke-linecap="round"><g transform="translate(367.65758506875807 193.96290501811228) rotate(0 21.124359048162773 1.7053025658242404e-13)"><path d="M0 0 C7.04 0, 35.21 0, 42.25 0 M0 0 C7.04 0, 35.21 0, 42.25 0" stroke="#000000" stroke-width="2" fill="none"></path></g></g><g stroke-linecap="round"><g transform="translate(367.65758506875807 203.43190862637812) rotate(0 21.124359048162773 1.7053025658242404e-13)"><path d="M0 0 C7.04 0, 35.21 0, 42.25 0 M0 0 C7.04 0, 35.21 0, 42.25 0" stroke="#000000" stroke-width="2" fill="none"></path></g></g><g stroke-linecap="round"><g transform="translate(142.5 190.25000000000003) rotate(0 84.80999545687314 0.26780397429830316)"><path d="M1.43 2.68 C29.72 2.13, 142.62 -1.74, 170.86 -2.15 M-1.24 1.67 C26.62 1.42, 140.5 2.02, 168.94 1" stroke="#000000" stroke-width="1" fill="none"></path></g><g transform="translate(142.5 190.25000000000003) rotate(0 84.80999545687314 0.26780397429830316)"><path d="M33.14 -7.57 C18.62 -3.46, 12.53 -4.15, -1.99 4.54 M30.61 -8.5 C25.15 -5.78, 17.58 -2.77, 2 1.85" stroke="#000000" stroke-width="1" fill="none"></path></g><g transform="translate(142.5 190.25000000000003) rotate(0 84.80999545687314 0.26780397429830316)"><path d="M33.74 12.94 C18.85 10.07, 12.55 2.39, -1.99 4.54 M31.22 12.01 C25.96 10.39, 18.26 9.08, 2 1.85" stroke="#000000" stroke-width="1" fill="none"></path></g><g transform="translate(142.5 190.25000000000003) rotate(0 84.80999545687314 0.26780397429830316)"><path d="M144.71 12.44 C149.08 8.59, 162.05 0.5, 165.52 2.85 M142.19 11.51 C148.88 10.48, 153.11 8.92, 169.51 0.16" stroke="#000000" stroke-width="1" fill="none"></path></g><g transform="translate(142.5 190.25000000000003) rotate(0 84.80999545687314 0.26780397429830316)"><path d="M144.46 -8.08 C149.08 -4.94, 162.14 -6.04, 165.52 2.85 M141.93 -9 C148.35 -5.71, 152.63 -2.94, 169.51 0.16" stroke="#000000" stroke-width="1" fill="none"></path></g></g><g stroke-linecap="round" transform="translate(755.8581144921948 140.1064830501112) rotate(0 85.56080112466111 51.207174844886)"><path d="M-1.84 0.27 C36.7 1.35, 71.75 -0.68, 172.33 1.84 M-0.84 -0.49 C50.59 0.47, 101.67 -0.14, 170.64 -0.66 M173.06 0.01 C172.03 21.88, 169.44 40.72, 170.62 102.86 M172.1 0.41 C169.67 27.67, 170.69 53.07, 170.64 102.96 M169.74 100.71 C119.02 101.43, 70 100.41, 1.86 104.19 M170.94 103.31 C131.91 102.11, 94.21 103.04, 0.78 102.1 M-0.45 100.77 C-2.94 61.81, 0 19.6, -1.76 -1.84 M0.98 102.74 C0.91 68.73, 0.45 35.58, -0.49 0.6" stroke="#000000" stroke-width="1" fill="none"></path></g><g stroke-linecap="round"><g transform="translate(754.4188551092147 154.44629797091062) rotate(0 86.13629686681338 -0.07498394838687261)"><path d="M-1.1 0.16 C27.81 0.3, 144.3 0.93, 173.37 0.84 M0.52 -0.8 C29.37 -1, 144.17 -1.1, 172.94 -0.84" stroke="#000000" stroke-width="1" fill="none"></path></g></g><g stroke-linecap="round" transform="translate(761.8635632340356 145.82227867129012) rotate(0 3.3465614642605033 3.346561464260546)"><path d="M6.69 3.35 C6.69 3.54, 6.68 3.74, 6.64 3.93 C6.61 4.12, 6.56 4.31, 6.49 4.49 C6.43 4.67, 6.34 4.85, 6.24 5.02 C6.15 5.19, 6.03 5.35, 5.91 5.5 C5.79 5.65, 5.65 5.79, 5.5 5.91 C5.35 6.03, 5.19 6.15, 5.02 6.24 C4.85 6.34, 4.67 6.43, 4.49 6.49 C4.31 6.56, 4.12 6.61, 3.93 6.64 C3.74 6.68, 3.54 6.69, 3.35 6.69 C3.15 6.69, 2.96 6.68, 2.77 6.64 C2.57 6.61, 2.38 6.56, 2.2 6.49 C2.02 6.43, 1.84 6.34, 1.67 6.24 C1.51 6.15, 1.34 6.03, 1.2 5.91 C1.05 5.79, 0.91 5.65, 0.78 5.5 C0.66 5.35, 0.55 5.19, 0.45 5.02 C0.35 4.85, 0.27 4.67, 0.2 4.49 C0.14 4.31, 0.08 4.12, 0.05 3.93 C0.02 3.74, 0 3.54, 0 3.35 C0 3.15, 0.02 2.96, 0.05 2.77 C0.08 2.57, 0.14 2.38, 0.2 2.2 C0.27 2.02, 0.35 1.84, 0.45 1.67 C0.55 1.51, 0.66 1.34, 0.78 1.2 C0.91 1.05, 1.05 0.91, 1.2 0.78 C1.34 0.66, 1.51 0.55, 1.67 0.45 C1.84 0.35, 2.02 0.27, 2.2 0.2 C2.38 0.14, 2.57 0.08, 2.77 0.05 C2.96 0.02, 3.15 0, 3.35 0 C3.54 0, 3.74 0.02, 3.93 0.05 C4.12 0.08, 4.31 0.14, 4.49 0.2 C4.67 0.27, 4.85 0.35, 5.02 0.45 C5.19 0.55, 5.35 0.66, 5.5 0.78 C5.65 0.91, 5.79 1.05, 5.91 1.2 C6.03 1.34, 6.15 1.51, 6.24 1.67 C6.34 1.84, 6.43 2.02, 6.49 2.2 C6.56 2.38, 6.61 2.57, 6.64 2.77 C6.68 2.96, 6.68 3.25, 6.69 3.35 C6.7 3.44, 6.7 3.25, 6.69 3.35" stroke="none" stroke-width="0" fill="#fa5252"></path><path d="M6.69 3.35 C6.69 3.54, 6.68 3.74, 6.64 3.93 C6.61 4.12, 6.56 4.31, 6.49 4.49 C6.43 4.67, 6.34 4.85, 6.24 5.02 C6.15 5.19, 6.03 5.35, 5.91 5.5 C5.79 5.65, 5.65 5.79, 5.5 5.91 C5.35 6.03, 5.19 6.15, 5.02 6.24 C4.85 6.34, 4.67 6.43, 4.49 6.49 C4.31 6.56, 4.12 6.61, 3.93 6.64 C3.74 6.68, 3.54 6.69, 3.35 6.69 C3.15 6.69, 2.96 6.68, 2.77 6.64 C2.57 6.61, 2.38 6.56, 2.2 6.49 C2.02 6.43, 1.84 6.34, 1.67 6.24 C1.51 6.15, 1.34 6.03, 1.2 5.91 C1.05 5.79, 0.91 5.65, 0.78 5.5 C0.66 5.35, 0.55 5.19, 0.45 5.02 C0.35 4.85, 0.27 4.67, 0.2 4.49 C0.14 4.31, 0.08 4.12, 0.05 3.93 C0.02 3.74, 0 3.54, 0 3.35 C0 3.15, 0.02 2.96, 0.05 2.77 C0.08 2.57, 0.14 2.38, 0.2 2.2 C0.27 2.02, 0.35 1.84, 0.45 1.67 C0.55 1.51, 0.66 1.34, 0.78 1.2 C0.91 1.05, 1.05 0.91, 1.2 0.78 C1.34 0.66, 1.51 0.55, 1.67 0.45 C1.84 0.35, 2.02 0.27, 2.2 0.2 C2.38 0.14, 2.57 0.08, 2.77 0.05 C2.96 0.02, 3.15 0, 3.35 0 C3.54 0, 3.74 0.02, 3.93 0.05 C4.12 0.08, 4.31 0.14, 4.49 0.2 C4.67 0.27, 4.85 0.35, 5.02 0.45 C5.19 0.55, 5.35 0.66, 5.5 0.78 C5.65 0.91, 5.79 1.05, 5.91 1.2 C6.03 1.34, 6.15 1.51, 6.24 1.67 C6.34 1.84, 6.43 2.02, 6.49 2.2 C6.56 2.38, 6.61 2.57, 6.64 2.77 C6.68 2.96, 6.68 3.25, 6.69 3.35 C6.7 3.44, 6.7 3.25, 6.69 3.35" stroke="#000000" stroke-width="1" fill="none"></path></g><g stroke-linecap="round" transform="translate(775.5960952246305 145.82227867129012) rotate(0 3.3465614642605033 3.346561464260546)"><path d="M6.69 3.35 C6.69 3.54, 6.68 3.74, 6.64 3.93 C6.61 4.12, 6.56 4.31, 6.49 4.49 C6.43 4.67, 6.34 4.85, 6.24 5.02 C6.15 5.19, 6.03 5.35, 5.91 5.5 C5.79 5.65, 5.65 5.79, 5.5 5.91 C5.35 6.03, 5.19 6.15, 5.02 6.24 C4.85 6.34, 4.67 6.43, 4.49 6.49 C4.31 6.56, 4.12 6.61, 3.93 6.64 C3.74 6.68, 3.54 6.69, 3.35 6.69 C3.15 6.69, 2.96 6.68, 2.77 6.64 C2.57 6.61, 2.38 6.56, 2.2 6.49 C2.02 6.43, 1.84 6.34, 1.67 6.24 C1.51 6.15, 1.34 6.03, 1.2 5.91 C1.05 5.79, 0.91 5.65, 0.78 5.5 C0.66 5.35, 0.55 5.19, 0.45 5.02 C0.35 4.85, 0.27 4.67, 0.2 4.49 C0.14 4.31, 0.08 4.12, 0.05 3.93 C0.02 3.74, 0 3.54, 0 3.35 C0 3.15, 0.02 2.96, 0.05 2.77 C0.08 2.57, 0.14 2.38, 0.2 2.2 C0.27 2.02, 0.35 1.84, 0.45 1.67 C0.55 1.51, 0.66 1.34, 0.78 1.2 C0.91 1.05, 1.05 0.91, 1.2 0.78 C1.34 0.66, 1.51 0.55, 1.67 0.45 C1.84 0.35, 2.02 0.27, 2.2 0.2 C2.38 0.14, 2.57 0.08, 2.77 0.05 C2.96 0.02, 3.15 0, 3.35 0 C3.54 0, 3.74 0.02, 3.93 0.05 C4.12 0.08, 4.31 0.14, 4.49 0.2 C4.67 0.27, 4.85 0.35, 5.02 0.45 C5.19 0.55, 5.35 0.66, 5.5 0.78 C5.65 0.91, 5.79 1.05, 5.91 1.2 C6.03 1.34, 6.15 1.51, 6.24 1.67 C6.34 1.84, 6.43 2.02, 6.49 2.2 C6.56 2.38, 6.61 2.57, 6.64 2.77 C6.68 2.96, 6.68 3.25, 6.69 3.35 C6.7 3.44, 6.7 3.25, 6.69 3.35" stroke="none" stroke-width="0" fill="#fab005"></path><path d="M6.69 3.35 C6.69 3.54, 6.68 3.74, 6.64 3.93 C6.61 4.12, 6.56 4.31, 6.49 4.49 C6.43 4.67, 6.34 4.85, 6.24 5.02 C6.15 5.19, 6.03 5.35, 5.91 5.5 C5.79 5.65, 5.65 5.79, 5.5 5.91 C5.35 6.03, 5.19 6.15, 5.02 6.24 C4.85 6.34, 4.67 6.43, 4.49 6.49 C4.31 6.56, 4.12 6.61, 3.93 6.64 C3.74 6.68, 3.54 6.69, 3.35 6.69 C3.15 6.69, 2.96 6.68, 2.77 6.64 C2.57 6.61, 2.38 6.56, 2.2 6.49 C2.02 6.43, 1.84 6.34, 1.67 6.24 C1.51 6.15, 1.34 6.03, 1.2 5.91 C1.05 5.79, 0.91 5.65, 0.78 5.5 C0.66 5.35, 0.55 5.19, 0.45 5.02 C0.35 4.85, 0.27 4.67, 0.2 4.49 C0.14 4.31, 0.08 4.12, 0.05 3.93 C0.02 3.74, 0 3.54, 0 3.35 C0 3.15, 0.02 2.96, 0.05 2.77 C0.08 2.57, 0.14 2.38, 0.2 2.2 C0.27 2.02, 0.35 1.84, 0.45 1.67 C0.55 1.51, 0.66 1.34, 0.78 1.2 C0.91 1.05, 1.05 0.91, 1.2 0.78 C1.34 0.66, 1.51 0.55, 1.67 0.45 C1.84 0.35, 2.02 0.27, 2.2 0.2 C2.38 0.14, 2.57 0.08, 2.77 0.05 C2.96 0.02, 3.15 0, 3.35 0 C3.54 0, 3.74 0.02, 3.93 0.05 C4.12 0.08, 4.31 0.14, 4.49 0.2 C4.67 0.27, 4.85 0.35, 5.02 0.45 C5.19 0.55, 5.35 0.66, 5.5 0.78 C5.65 0.91, 5.79 1.05, 5.91 1.2 C6.03 1.34, 6.15 1.51, 6.24 1.67 C6.34 1.84, 6.43 2.02, 6.49 2.2 C6.56 2.38, 6.61 2.57, 6.64 2.77 C6.68 2.96, 6.68 3.25, 6.69 3.35 C6.7 3.44, 6.7 3.25, 6.69 3.35" stroke="#000000" stroke-width="1" fill="none"></path></g><g stroke-linecap="round" transform="translate(789.9317380428943 146.42538949895857) rotate(0 3.3465614642605033 3.346561464260546)"><path d="M6.69 3.35 C6.69 3.54, 6.68 3.74, 6.64 3.93 C6.61 4.12, 6.56 4.31, 6.49 4.49 C6.43 4.67, 6.34 4.85, 6.24 5.02 C6.15 5.19, 6.03 5.35, 5.91 5.5 C5.79 5.65, 5.65 5.79, 5.5 5.91 C5.35 6.03, 5.19 6.15, 5.02 6.24 C4.85 6.34, 4.67 6.43, 4.49 6.49 C4.31 6.56, 4.12 6.61, 3.93 6.64 C3.74 6.68, 3.54 6.69, 3.35 6.69 C3.15 6.69, 2.96 6.68, 2.77 6.64 C2.57 6.61, 2.38 6.56, 2.2 6.49 C2.02 6.43, 1.84 6.34, 1.67 6.24 C1.51 6.15, 1.34 6.03, 1.2 5.91 C1.05 5.79, 0.91 5.65, 0.78 5.5 C0.66 5.35, 0.55 5.19, 0.45 5.02 C0.35 4.85, 0.27 4.67, 0.2 4.49 C0.14 4.31, 0.08 4.12, 0.05 3.93 C0.02 3.74, 0 3.54, 0 3.35 C0 3.15, 0.02 2.96, 0.05 2.77 C0.08 2.57, 0.14 2.38, 0.2 2.2 C0.27 2.02, 0.35 1.84, 0.45 1.67 C0.55 1.51, 0.66 1.34, 0.78 1.2 C0.91 1.05, 1.05 0.91, 1.2 0.78 C1.34 0.66, 1.51 0.55, 1.67 0.45 C1.84 0.35, 2.02 0.27, 2.2 0.2 C2.38 0.14, 2.57 0.08, 2.77 0.05 C2.96 0.02, 3.15 0, 3.35 0 C3.54 0, 3.74 0.02, 3.93 0.05 C4.12 0.08, 4.31 0.14, 4.49 0.2 C4.67 0.27, 4.85 0.35, 5.02 0.45 C5.19 0.55, 5.35 0.66, 5.5 0.78 C5.65 0.91, 5.79 1.05, 5.91 1.2 C6.03 1.34, 6.15 1.51, 6.24 1.67 C6.34 1.84, 6.43 2.02, 6.49 2.2 C6.56 2.38, 6.61 2.57, 6.64 2.77 C6.68 2.96, 6.68 3.25, 6.69 3.35 C6.7 3.44, 6.7 3.25, 6.69 3.35" stroke="none" stroke-width="0" fill="#40c057"></path><path d="M6.69 3.35 C6.69 3.54, 6.68 3.74, 6.64 3.93 C6.61 4.12, 6.56 4.31, 6.49 4.49 C6.43 4.67, 6.34 4.85, 6.24 5.02 C6.15 5.19, 6.03 5.35, 5.91 5.5 C5.79 5.65, 5.65 5.79, 5.5 5.91 C5.35 6.03, 5.19 6.15, 5.02 6.24 C4.85 6.34, 4.67 6.43, 4.49 6.49 C4.31 6.56, 4.12 6.61, 3.93 6.64 C3.74 6.68, 3.54 6.69, 3.35 6.69 C3.15 6.69, 2.96 6.68, 2.77 6.64 C2.57 6.61, 2.38 6.56, 2.2 6.49 C2.02 6.43, 1.84 6.34, 1.67 6.24 C1.51 6.15, 1.34 6.03, 1.2 5.91 C1.05 5.79, 0.91 5.65, 0.78 5.5 C0.66 5.35, 0.55 5.19, 0.45 5.02 C0.35 4.85, 0.27 4.67, 0.2 4.49 C0.14 4.31, 0.08 4.12, 0.05 3.93 C0.02 3.74, 0 3.54, 0 3.35 C0 3.15, 0.02 2.96, 0.05 2.77 C0.08 2.57, 0.14 2.38, 0.2 2.2 C0.27 2.02, 0.35 1.84, 0.45 1.67 C0.55 1.51, 0.66 1.34, 0.78 1.2 C0.91 1.05, 1.05 0.91, 1.2 0.78 C1.34 0.66, 1.51 0.55, 1.67 0.45 C1.84 0.35, 2.02 0.27, 2.2 0.2 C2.38 0.14, 2.57 0.08, 2.77 0.05 C2.96 0.02, 3.15 0, 3.35 0 C3.54 0, 3.74 0.02, 3.93 0.05 C4.12 0.08, 4.31 0.14, 4.49 0.2 C4.67 0.27, 4.85 0.35, 5.02 0.45 C5.19 0.55, 5.35 0.66, 5.5 0.78 C5.65 0.91, 5.79 1.05, 5.91 1.2 C6.03 1.34, 6.15 1.51, 6.24 1.67 C6.34 1.84, 6.43 2.02, 6.49 2.2 C6.56 2.38, 6.61 2.57, 6.64 2.77 C6.68 2.96, 6.68 3.25, 6.69 3.35 C6.7 3.44, 6.7 3.25, 6.69 3.35" stroke="#000000" stroke-width="1" fill="none"></path></g><g stroke-opacity="0.9" fill-opacity="0.9" stroke-linecap="round" transform="translate(811.3775786387077 167.90509462804775) rotate(0 28.581991872160984 28.581991872160998)"><path d="M23.61 0.14 C29 -1.47, 37.08 -0.19, 42.42 3.07 C47.75 6.33, 53.6 13.9, 55.62 19.7 C57.65 25.5, 56.9 32.19, 54.56 37.87 C52.22 43.56, 46.81 50.67, 41.58 53.8 C36.35 56.92, 28.87 57.76, 23.17 56.62 C17.47 55.48, 11.11 51.75, 7.4 46.95 C3.68 42.15, 0.89 34.02, 0.89 27.81 C0.89 21.61, 2.29 14.23, 7.38 9.73 C12.47 5.22, 26.19 1.84, 31.42 0.8 C36.65 -0.24, 38.71 3.02, 38.78 3.49 M36.52 0.6 C42.25 2.07, 47.93 7.42, 51.29 12.83 C54.66 18.23, 57.2 27.15, 56.69 33.04 C56.18 38.94, 52.55 44.27, 48.25 48.21 C43.94 52.16, 36.77 56.42, 30.84 56.74 C24.92 57.06, 17.54 53.58, 12.72 50.13 C7.9 46.67, 3.36 41.9, 1.95 36 C0.54 30.09, 1.57 20.19, 4.27 14.71 C6.97 9.23, 12.66 5.22, 18.15 3.12 C23.63 1.03, 33.91 2.49, 37.19 2.14 C40.47 1.8, 38.23 0.79, 37.82 1.03" stroke="none" stroke-width="0" fill="#04aaf7"></path><path d="M37.42 1.26 C42.79 2.57, 48.52 7.42, 51.8 12.65 C55.07 17.88, 57.58 26.51, 57.07 32.63 C56.56 38.76, 53.34 45.42, 48.74 49.39 C44.13 53.37, 35.86 56.23, 29.44 56.47 C23.03 56.71, 15.01 54.28, 10.27 50.84 C5.53 47.4, 2.16 41.61, 0.98 35.83 C-0.2 30.05, 0.32 21.87, 3.19 16.17 C6.06 10.47, 12 3.91, 18.21 1.62 C24.42 -0.67, 36.17 1.93, 40.46 2.43 C44.75 2.94, 44.24 4.09, 43.96 4.64 M43.32 3.81 C48.4 6.28, 52.09 11.57, 54.3 17.17 C56.51 22.76, 58.26 31.56, 56.58 37.4 C54.9 43.23, 49.73 49.13, 44.23 52.16 C38.72 55.2, 29.85 56.38, 23.55 55.61 C17.25 54.83, 10.27 52.02, 6.44 47.53 C2.61 43.03, 0.38 34.5, 0.55 28.63 C0.72 22.76, 3.97 17.07, 7.46 12.3 C10.96 7.54, 15.76 1.56, 21.52 0.03 C27.29 -1.51, 38.46 2.65, 42.05 3.08 C45.64 3.51, 43.4 2.18, 43.09 2.61" stroke="#000000" stroke-width="1" fill="none"></path></g><g stroke-linecap="round"><g transform="translate(847.6109211383866 189.6149307839033) rotate(0 -4.635304913766049 8.671504654026762)" fill-rule="evenodd"><path d="M0 0 L-2.45 -0.55 L-10.13 -8.39 L-13.04 -8.16 L-15.2 -5.82 L-16.47 -1.53 L-16.88 3.18 L-15.08 9.02 L-23.32 11.89 L-24.09 15.28 L-23.02 18.26 L-20.08 18.78 L-16.57 17.86 L-12.96 12.94 L-11.64 12.68 L-4.84 23.91 L-1.99 25.93 L-0.56 24.31 L-4.53 10.11 L-5.05 6.42 L-4.02 4.99 L1.86 5.82 L4.23 7.85 L8.31 8.42 L12.36 7.85 L14.46 4.31 L14.45 0.85 L5.65 1.49 L5.47 -0.35 L7.34 -7.71 L5.66 -8.37 L3.31 -7.15 L1.22 -4.24 L-0.32 -1.24 L0 0" stroke="none" stroke-width="0" fill="#40c057" fill-rule="evenodd"></path><path d="M0 0 C-0.41 -0.09, -0.76 0.84, -2.45 -0.55 C-4.14 -1.95, -8.01 -7.51, -10.13 -8.39 C-12.26 -9.27, -14.07 -7.75, -15.2 -5.82 C-16.32 -3.89, -16.9 0.7, -16.88 3.18 C-16.86 5.65, -14.01 7.57, -15.08 9.02 C-16.15 10.47, -21.99 10.35, -23.32 11.89 C-24.64 13.43, -24.14 17.26, -23.02 18.26 C-21.89 19.25, -18.46 18.79, -16.57 17.86 C-14.67 16.93, -13.59 11.67, -11.64 12.68 C-9.68 13.69, -6.69 21.97, -4.84 23.91 C-3 25.85, -0.52 27.23, -0.56 24.31 C-0.59 21.4, -5.46 9.51, -5.05 6.42 C-4.65 3.34, 0.31 5.58, 1.86 5.82 C3.4 6.06, 2.48 7.51, 4.23 7.85 C5.98 8.19, 10.66 9.02, 12.36 7.85 C14.06 6.68, 15.57 1.91, 14.45 0.85 C13.34 -0.21, 6.83 2.91, 5.65 1.49 C4.46 0.06, 7.73 -6.27, 7.34 -7.71 C6.95 -9.15, 4.59 -8.23, 3.31 -7.15 C2.03 -6.07, 0.23 -2.43, -0.32 -1.24 C-0.87 -0.04, -0.05 -0.21, 0 0 M0 0 C-0.41 -0.09, -0.76 0.84, -2.45 -0.55 C-4.14 -1.95, -8.01 -7.51, -10.13 -8.39 C-12.26 -9.27, -14.07 -7.75, -15.2 -5.82 C-16.32 -3.89, -16.9 0.7, -16.88 3.18 C-16.86 5.65, -14.01 7.57, -15.08 9.02 C-16.15 10.47, -21.99 10.35, -23.32 11.89 C-24.64 13.43, -24.14 17.26, -23.02 18.26 C-21.89 19.25, -18.46 18.79, -16.57 17.86 C-14.67 16.93, -13.59 11.67, -11.64 12.68 C-9.68 13.69, -6.69 21.97, -4.84 23.91 C-3 25.85, -0.52 27.23, -0.56 24.31 C-0.59 21.4, -5.46 9.51, -5.05 6.42 C-4.65 3.34, 0.31 5.58, 1.86 5.82 C3.4 6.06, 2.48 7.51, 4.23 7.85 C5.98 8.19, 10.66 9.02, 12.36 7.85 C14.06 6.68, 15.57 1.91, 14.45 0.85 C13.34 -0.21, 6.83 2.91, 5.65 1.49 C4.46 0.06, 7.73 -6.27, 7.34 -7.71 C6.95 -9.15, 4.59 -8.23, 3.31 -7.15 C2.03 -6.07, 0.23 -2.43, -0.32 -1.24 C-0.87 -0.04, -0.05 -0.21, 0 0" stroke="#087f5b" stroke-width="1" fill="none"></path></g></g><g stroke-linecap="round"><g stroke-opacity="0.9" fill-opacity="0.9" transform="translate(812.7947121364653 195.95555535550915) rotate(0 27.95568463198697 -0.18669531565493003)"><path d="M0.72 1.11 C9.94 1.24, 47 0.76, 56.27 0.41 M-0.35 0.64 C8.62 0.44, 45.98 -1.36, 55.28 -1.5" stroke="#000000" stroke-width="1" fill="none"></path></g></g><g stroke-linecap="round"><g stroke-opacity="0.9" fill-opacity="0.9" transform="translate(819.612781539613 175.30258303242303) rotate(0 19.615641449309805 3.5160166791791028)"><path d="M0 0 C0.17 0.51, 0.12 2.11, 1.03 3.05 C1.95 3.98, 3.76 4.92, 5.49 5.6 C7.22 6.29, 8.88 6.87, 11.42 7.15 C13.96 7.43, 17.36 7.43, 20.71 7.29 C24.07 7.15, 28.7 7.07, 31.56 6.31 C34.42 5.54, 36.61 3.83, 37.89 2.72 C39.17 1.61, 39.01 0.16, 39.23 -0.35 M0 0 C0.17 0.51, 0.12 2.11, 1.03 3.05 C1.95 3.98, 3.76 4.92, 5.49 5.6 C7.22 6.29, 8.88 6.87, 11.42 7.15 C13.96 7.43, 17.36 7.43, 20.71 7.29 C24.07 7.15, 28.7 7.07, 31.56 6.31 C34.42 5.54, 36.61 3.83, 37.89 2.72 C39.17 1.61, 39.01 0.16, 39.23 -0.35" stroke="#000000" stroke-width="1" fill="none"></path></g></g><g stroke-opacity="0.9" fill-opacity="0.9" stroke-linecap="round" transform="translate(830.4165036943134 166.05512911818772) rotate(0 10.389313675633048 29.988404761103396)"><path d="M10.36 0.42 C12.74 -0.02, 16.08 2.63, 17.71 6.5 C19.33 10.36, 19.98 17.36, 20.11 23.62 C20.24 29.88, 19.43 38.17, 18.48 44.06 C17.53 49.95, 16.31 56.46, 14.39 58.96 C12.48 61.45, 9.05 61.39, 7 59.04 C4.96 56.68, 3.32 50.49, 2.13 44.83 C0.95 39.16, -0.36 31.34, -0.09 25.03 C0.19 18.72, 1.91 11, 3.8 6.96 C5.69 2.92, 9.46 1.52, 11.27 0.79 C13.07 0.06, 14.65 1.99, 14.63 2.56 M12.8 0.31 C15.13 0.88, 17.56 4.93, 18.72 9.56 C19.87 14.19, 19.93 21.56, 19.74 28.07 C19.56 34.58, 18.73 43.54, 17.6 48.6 C16.47 53.67, 14.75 56.97, 12.94 58.47 C11.14 59.97, 9.01 60.64, 6.78 57.61 C4.55 54.57, 0.6 46.51, -0.43 40.25 C-1.46 33.99, -0.54 26.26, 0.59 20.06 C1.72 13.87, 4.53 6.42, 6.34 3.09 C8.16 -0.24, 10.39 0.26, 11.47 0.1 C12.55 -0.06, 12.85 1.34, 12.83 2.12" stroke="#000000" stroke-width="1" fill="none"></path></g><g stroke-linecap="round"><g stroke-opacity="0.9" fill-opacity="0.9" transform="translate(821.6412791192663 217.7700458879322) rotate(0 19.615641449309805 -3.6298239151570613)"><path d="M0 0 C0.92 -0.96, 3.59 -4.55, 5.49 -5.78 C7.39 -7.01, 8.88 -7.09, 11.42 -7.38 C13.96 -7.67, 17.36 -7.67, 20.71 -7.53 C24.07 -7.38, 28.7 -7.3, 31.56 -6.51 C34.42 -5.72, 36.61 -3.95, 37.89 -2.81 C39.17 -1.66, 39.01 -0.17, 39.23 0.36 M0 0 C0.92 -0.96, 3.59 -4.55, 5.49 -5.78 C7.39 -7.01, 8.88 -7.09, 11.42 -7.38 C13.96 -7.67, 17.36 -7.67, 20.71 -7.53 C24.07 -7.38, 28.7 -7.3, 31.56 -6.51 C34.42 -5.72, 36.61 -3.95, 37.89 -2.81 C39.17 -1.66, 39.01 -0.17, 39.23 0.36" stroke="#000000" stroke-width="1" fill="none"></path></g></g><g stroke-linecap="round" transform="translate(493.0241010488644 162.70361449126278) rotate(0 27.553511801951572 51.43322203030945)"><path d="M0 0 C0 0, 0 0, 0 0 M0 0 C0 0, 0 0, 0 0 M1.07 4.95 C2.62 3.4, 2.62 1.6, 6.27 0.75 M-0.56 5.96 C0.79 4.34, 2.74 2.5, 5.75 0.84 M0.47 13.68 C2.26 8.41, 5.29 3.46, 11.92 -0.33 M0.1 12.34 C4.39 7.48, 5.05 7.08, 12.12 0.39 M-3.04 17.71 C1.45 14.86, 9.24 10.84, 12.31 -0.86 M1.6 19.96 C4.27 14.28, 10.52 5.15, 15.18 1.67 M-1.91 21.11 C2.85 15.51, 10.73 8.86, 19.18 -2.12 M1.59 23.84 C7.82 13.11, 18.19 7.3, 20.92 1.87 M3.25 32.56 C4.2 21.7, 10.58 11.93, 26.53 3.13 M-0.44 32.46 C4.79 25.7, 11 15.56, 27.44 1.06 M0.26 39.46 C15.42 22.49, 27 7.72, 34.59 -2.75 M-1.1 36.55 C7.22 28.42, 14.97 18.47, 33.31 1.48 M-2.16 46.25 C12.03 29.62, 31.31 6.92, 35.23 -0.75 M0.67 40.71 C13.26 28.89, 24.68 14.29, 38.49 0.91 M-1.99 52.3 C13.14 36, 30.26 18.79, 43.59 -1.58 M-0.48 48.79 C14.94 34.16, 27.7 16.92, 41.39 -0.18 M3.08 58.24 C11.87 46.02, 20.37 34.18, 51.21 -0.02 M0.03 55.85 C13.78 40.39, 23.57 28.89, 47.44 -1.42 M0.74 63.62 C17.98 35.11, 33.91 19.53, 49.69 -1.34 M1.29 61.34 C13.39 43.68, 27.49 29.45, 54.14 0.63 M3.08 65.28 C19.73 44.44, 39.02 24.69, 54.42 1.88 M1.34 69 C16.56 48.73, 34.36 25.98, 58.35 3.18 M2.94 75.22 C7.39 59.74, 23.82 49.88, 56.29 3.34 M0.96 72.39 C11.25 58.6, 23.36 45.65, 57.29 8.4 M-1.64 78.47 C14.78 61.42, 30.73 37.09, 54.65 11.63 M1.57 78.23 C12.12 62.15, 29.42 46.91, 57.02 15.57 M3.54 83.47 C14.89 66.13, 30.18 48.67, 53.77 20.61 M-0.42 84.39 C10.99 71.51, 25.58 58.48, 58.35 21.04 M-2.06 91.7 C7.75 81.76, 24.41 67, 55.21 22.82 M0.99 91.07 C17.42 70.99, 39.7 46.64, 56.59 27.21 M1.27 100.05 C17.52 75.29, 39.44 51.17, 58.22 31.36 M-0.2 98.74 C18.08 75.98, 35.09 54.16, 55.42 33.91 M1.89 106.68 C13.53 79.96, 35.38 60.82, 54.67 34.21 M-0.17 103.55 C15.32 84.83, 29.48 68.06, 57.28 36.35 M7.13 106.15 C23.65 83.72, 33.27 73.17, 58.24 43.9 M4.46 104.02 C20.26 85.57, 33.93 67.06, 57.95 44.35 M7.23 101.61 C24.93 84.18, 38.19 74.87, 59.35 51.85 M10.06 102.81 C23.27 85.95, 39.41 69.56, 56.94 52.22 M15.42 100.08 C27.32 91.36, 41.95 74.57, 57.57 58.28 M17.46 101.57 C31.23 88.46, 43.18 73.23, 55.35 58.21 M20.44 103.38 C35.76 91.32, 45.77 75.45, 58.02 66.09 M21.97 105.4 C31.53 91.55, 37.46 84.44, 55.69 61.98 M30.21 101.73 C32.14 96.05, 37.69 84.12, 54.35 71.18 M28.39 104.01 C35.4 93.29, 40.26 85.52, 58.3 68.51 M28.92 99.4 C35.64 98.64, 40.95 90.18, 53.87 76.12 M33.62 102.97 C42.72 95.1, 47.35 84.41, 57.93 73.3 M36.64 100.3 C42.91 95.01, 50.59 87.03, 60.5 80.53 M37.69 104.84 C43.7 94.28, 51.38 86.4, 56.11 82.29 M42.5 101.63 C42.32 98.79, 53.01 97.26, 55.21 82.92 M42.34 104.41 C48.81 97.85, 52.41 89.2, 57.03 85.3 M48.27 103.31 C50.79 97.25, 56.38 96.66, 59.14 94.09 M49.46 102.22 C51.58 100.38, 53.11 95.49, 57.16 92.08 M52.15 103.09 C54.63 102.47, 55.9 100.57, 56.5 99.76 M53.74 102.87 C54.42 101.74, 55.53 101.26, 57.05 98.94 M-0.37 102.55 C-0.37 102.55, -0.37 102.55, -0.37 102.55 M-0.37 102.55 C-0.37 102.55, -0.37 102.55, -0.37 102.55 M4.66 102.84 C4.35 100.29, 2.48 99.6, 0.17 97.88 M6.37 103.33 C3.92 100.4, 1.49 98.68, -0.32 96.8 M10.74 103.68 C8.51 102.25, 9.05 100.67, -0.83 95.68 M11.57 104.23 C9.62 99.67, 6.78 99.15, -0.98 92.05 M16.33 101.01 C13.38 99.32, 8.51 91.47, -3.67 84.38 M19.07 104.59 C14.38 99.52, 9.16 93.6, 1.63 85.96 M24.63 100.94 C15.76 96.01, 11.86 90.02, 0.31 84.56 M23.64 104.53 C18.44 98.01, 7.86 88.75, 2.3 82.14 M26.87 102.79 C21.77 94.92, 13.23 86.68, 3.32 72.75 M30.51 100.68 C19.69 92.95, 7.48 84.27, 1.12 75.61 M38.74 103.28 C27.4 90.26, 8.67 78.59, -0.71 74.84 M36.76 101.87 C25.64 93.57, 13.57 85.45, -1.53 70.68 M41.04 103.67 C25.93 90.29, 14.27 80.55, -0.09 65.28 M41.69 102.03 C33.35 95.25, 24.03 87.77, -1.54 66.83 M52.38 103.39 C37.37 89.62, 22.99 79.16, 3.03 63.9 M46.84 101.38 C34.83 88.83, 19.92 79.17, -1.17 61.1 M53.77 105.65 C39.56 91.24, 22.87 78.68, 1.02 58.33 M54.12 101.52 C40.37 89.49, 28.69 81.48, -1.33 54.06 M58.72 101.78 C46.12 86.52, 27.74 73.15, -2.82 52.87 M59.28 101.49 C45.79 87.54, 29.32 76.33, 0.32 48.21 M55.68 93.42 C39.23 79.47, 19.79 65.71, -1.96 46.84 M59.82 93.36 C47.32 80.81, 31.55 69.91, 1.09 45.95 M56.35 86.86 C44.26 75.48, 31.46 69.11, -2.17 35.47 M58.74 88.24 C38.22 70.03, 15.76 51.12, -0.84 40.01 M58.13 80.69 C41.41 68.77, 23.81 58.82, 2.77 36.28 M56.4 85.42 C44.05 70.12, 26.47 58.27, 1.32 35.38 M55.38 78.76 C37.13 61.82, 14.62 41.23, -0.5 25.96 M57.26 76.99 C36.1 64.08, 20.44 47.01, 0.84 27.74 M55.92 75.1 C39.3 56.3, 17.92 37.04, 3.45 22.71 M59.76 74.2 C41.23 59.57, 27.38 49.16, 1.24 21.43 M57.3 64.27 C43.16 57.35, 22.13 37.22, 3.17 15.17 M56.09 69.46 C42.9 54.72, 30.1 43.46, -1.86 19.85 M55.27 66.23 C37.42 44.18, 19.46 31.59, 0.76 12.75 M58.05 62.76 C43.45 51.3, 32.13 40.81, -0.98 11.42 M60.05 56.75 C34.75 38.83, 11.08 21.65, -3.78 6.51 M56.78 55.6 C40.38 42.79, 22.42 27.23, 1.11 8.01 M56.82 56.23 C34.59 30.45, 10.03 14.69, -4.17 3.57 M56.69 53.41 C41.4 38.79, 24.52 22.57, -0.89 2.88 M54 44.13 C33.92 34.01, 16.91 13.22, -1.98 -2.76 M59.16 47.54 C34.82 26.11, 13.46 6.94, 0.6 -1.58 M59.67 39.81 C38.61 22.89, 17.81 7.35, 10.51 2.12 M56.41 41.65 C39.05 25.79, 17.7 9.93, 6.54 -3.24 M57.95 32.91 C37.06 23.09, 22.1 3.6, 13.88 -4.24 M59.31 37.66 C39.91 20.99, 22.18 7.66, 12.29 -0.94 M57.34 32.23 C45.66 17.33, 36 9.56, 22.28 -5.22 M59.19 30.21 C45.71 21.36, 31.46 10.7, 19.78 -2.89 M59.15 28.13 C50.19 18.86, 31.67 8.53, 27.97 -6.03 M55.64 24.56 C48.35 19.25, 41.99 12.91, 27.51 -1.94 M57.8 17.34 C47.32 9.77, 37.38 8.81, 29.78 -4.87 M58.32 19.06 C50.77 12.66, 41.23 6.86, 30.37 -3.19 M57.28 13.41 C49.95 12.99, 42.89 0.82, 38.18 -1.85 M58.8 15.05 C51.86 9.24, 47.21 7.3, 38.2 -3.37 M55.67 7.76 C54.06 4.17, 49.06 -0.17, 43.92 -5.06 M56.48 11.2 C53.08 4.59, 49.7 0.66, 43.89 -1.73 M58.7 3.65 C57.71 3.07, 55.38 0.73, 48.73 -2.16 M57.48 5.1 C54.98 3.76, 54.11 2.17, 49.95 -1.26" stroke="#868e96" stroke-width="0.5" fill="none"></path><path d="M-1.62 -3.86 C25.31 -3.91, 46.92 1.05, 52.43 -3.46 M-1.11 0.81 C22.6 -1.06, 42.89 0.54, 55.48 -1.24 M52.74 -2.32 C55.92 22.11, 54.59 43.75, 58.39 99.86 M56.62 1.58 C54.5 33.44, 55.18 69.14, 55.7 102.18 M52.34 100.74 C42.58 103.28, 21.34 98.71, 2.32 105.09 M54.34 103.99 C42.52 104.85, 26.96 104.46, 1.73 101.27 M0.53 101.99 C-0.4 75.12, -3.27 38.18, 3.91 -2.03 M1.6 102.28 C-0.25 69.09, 2 39.51, -0.34 1.44" stroke="#000000" stroke-width="1" fill="none"></path></g><g transform="translate(484.75 97.42994144811834) rotate(0 39 25)"><text x="39" y="18" font-family="Virgil, Segoe UI Emoji" font-size="20px" fill="#000000" text-anchor="middle" style="white-space: pre;" direction="ltr">Servidor</text><text x="39" y="43" font-family="Virgil, Segoe UI Emoji" font-size="20px" fill="#000000" text-anchor="middle" style="white-space: pre;" direction="ltr">Sockets</text></g><g stroke-linecap="round"><g transform="translate(499.65521137489077 174.08326562262334) rotate(0 21.124359048162773 1.7053025658242404e-13)"><path d="M0 0 C7.04 0, 35.21 0, 42.25 0 M0 0 C7.04 0, 35.21 0, 42.25 0" stroke="#000000" stroke-width="2" fill="none"></path></g></g><g stroke-linecap="round"><g transform="translate(499.4532538026524 183.55226923088856) rotate(0 21.124359048162773 1.7053025658242404e-13)"><path d="M0 0 C7.04 0, 35.21 0, 42.25 0 M0 0 C7.04 0, 35.21 0, 42.25 0" stroke="#000000" stroke-width="2" fill="none"></path></g></g><g stroke-linecap="round"><g transform="translate(499.4075850687582 193.02127283915502) rotate(0 21.124359048162773 1.7053025658242404e-13)"><path d="M0 0 C7.04 0, 35.21 0, 42.25 0 M0 0 C7.04 0, 35.21 0, 42.25 0" stroke="#000000" stroke-width="2" fill="none"></path></g></g><g stroke-linecap="round"><g transform="translate(499.4075850687582 202.4902764474209) rotate(0 21.124359048162773 1.7053025658242404e-13)"><path d="M0 0 C7.04 0, 35.21 0, 42.25 0 M0 0 C7.04 0, 35.21 0, 42.25 0" stroke="#000000" stroke-width="2" fill="none"></path></g></g><g stroke-linecap="round"><g transform="translate(594.5328947368421 189.76426071156504) rotate(0 75.66574547893106 1.269682755717497)"><path d="M-0.85 -1.47 C23.46 -1.31, 121.96 -0.19, 147.27 0.28 M3.89 3.91 C28.88 4.42, 127.88 2.74, 152.18 2.74" stroke="#000000" stroke-width="1" fill="none"></path></g><g transform="translate(594.5328947368421 189.76426071156504) rotate(0 75.66574547893106 1.269682755717497)"><path d="M25.36 -15.34 C14.39 -6.74, 5.99 -3.35, -4.25 1.27 M26.88 -10.59 C17.08 -10.04, 9.07 -6.58, 1.08 -1.35" stroke="#000000" stroke-width="1" fill="none"></path></g><g transform="translate(594.5328947368421 189.76426071156504) rotate(0 75.66574547893106 1.269682755717497)"><path d="M25.14 5.18 C14.34 6.58, 6.02 2.76, -4.25 1.27 M26.66 9.93 C17.12 3.29, 9.18 -0.45, 1.08 -1.35" stroke="#000000" stroke-width="1" fill="none"></path></g><g transform="translate(594.5328947368421 189.76426071156504) rotate(0 75.66574547893106 1.269682755717497)"><path d="M121.99 9.34 C130.93 11.09, 142.33 7.29, 148.78 5.48 M123.51 14.09 C133.66 7.78, 145.41 4.06, 154.11 2.86" stroke="#000000" stroke-width="1" fill="none"></path></g><g transform="translate(594.5328947368421 189.76426071156504) rotate(0 75.66574547893106 1.269682755717497)"><path d="M121.8 -11.18 C130.71 -2.22, 142.18 1.19, 148.78 5.48 M123.32 -6.43 C133.36 -5.54, 145.18 -2.07, 154.11 2.86" stroke="#000000" stroke-width="1" fill="none"></path></g></g><g transform="translate(803.25 97.5) rotate(0 33 12.5)"><text x="33" y="18" font-family="Virgil, Segoe UI Emoji" font-size="20px" fill="#000000" text-anchor="middle" style="white-space: pre;" direction="ltr">Cliente</text></g><g transform="translate(390.25 10) rotate(0 68.5 25)"><text x="68.5" y="18" font-family="Virgil, Segoe UI Emoji" font-size="20px" fill="#000000" text-anchor="middle" style="white-space: pre;" direction="ltr">Aplicacin Web</text><text x="68.5" y="43" font-family="Virgil, Segoe UI Emoji" font-size="20px" fill="#000000" text-anchor="middle" style="white-space: pre;" direction="ltr">Node JS</text></g><g transform="translate(774.25 250) rotate(0 74.5 12.5)"><text x="74.5" y="18" font-family="Virgil, Segoe UI Emoji" font-size="20px" fill="#000000" text-anchor="middle" style="white-space: pre;" direction="ltr">Navegador Web</text></g><g transform="translate(48.25 270) rotate(0 43 12.5)"><text x="43" y="18" font-family="Virgil, Segoe UI Emoji" font-size="20px" fill="#000000" text-anchor="middle" style="white-space: pre;" direction="ltr">MariaDB</text></g></svg>