<?xml version="1.0"?>
<svg xmlns="http://www.w3.org/2000/svg" xmlns:xlink="http://www.w3.org/1999/xlink" xmlns:svgjs="http://svgjs.com/svgjs" version="1.1" width="512" height="512" x="0" y="0" viewBox="0 0 24 24" style="enable-background:new 0 0 512 512" xml:space="preserve"><g><path xmlns="http://www.w3.org/2000/svg" d="M14.414,0H5c-1.654,0-3,1.346-3,3V24H22V7.586L14.414,0Zm.586,3.414l3.586,3.586h-3.586V3.414Zm5,18.586H4V3c0-.552,.449-1,1-1H13v7h7v13Zm-7-12H6v10h12v-6h-5v-4Zm-2,8h-3v-2h3v2Zm0-4h-3v-2h3v2Zm5,2v2h-3v-2h3Z" fill="#84fab0" data-original="#000000"/></g></svg>
