<svg version="1.1" xmlns="http://www.w3.org/2000/svg" viewBox="0 0 594.8453490058927 207.59196054986018" width="594.8453490058927" height="207.59196054986018">
  <!-- svg-source:excalidraw -->
  
  <defs>
    <style>
      @font-face {
        font-family: "Virgil";
        src: url("https://excalidraw.com/Virgil.woff2");
      }
      @font-face {
        font-family: "Cascadia";
        src: url("https://excalidraw.com/Cascadia.woff2");
      }
    </style>
  </defs>
  <g stroke-linecap="round"><g transform="translate(382.0102407075516 165.71855507729435) rotate(0 5.222073494572783 0.4677320336260493)"><path d="M1.6 0.55 C3.35 0.39, 7.58 0.03, 7.87 1.68 M0.5 -0.74 C3.34 0.04, 5.83 -0.19, 9.94 0.08" stroke="#000000" stroke-width="4" fill="none"></path></g></g><g stroke-linecap="round"><g transform="translate(460.2670797847161 165.04969320484003) rotate(0 4.453721925303853 -0.49145468182544505)"><path d="M-0.23 0.22 C2.37 -0.19, 2.45 1.63, 9.07 -1.38 M0.68 -0.13 C2.47 -0.21, 4.53 0.22, 9.14 -0.7" stroke="#000000" stroke-width="4" fill="none"></path></g></g><g stroke-linecap="round"><g transform="translate(420.1353674374559 165.04969320484042) rotate(0 4.948396243038189 0.3164790814498417)"><path d="M0.4 -0.14 C1.59 1.66, 5.88 -1.4, 7.7 1.01 M0.5 -0.36 C2.64 0.1, 3.91 -0.68, 9.5 -0.23" stroke="#000000" stroke-width="4" fill="none"></path></g></g><g stroke-linecap="round"><g transform="translate(498.39220651461585 164.38083133238553) rotate(0 3.69945643762037 0.6931832891486351)"><path d="M-1.49 1.68 C2.63 -1.36, 4.17 1.02, 7.87 1.35 M0.58 0.08 C2.46 -0.63, 5.49 -0.16, 8.89 0.14" stroke="#000000" stroke-width="4" fill="none"></path></g></g><g stroke-linecap="round"><g transform="translate(401.4072350087289 165.7185550772944) rotate(0 4.719451176420989 -0.16762607430061394)"><path d="M-0.29 -1.38 C1.07 0.84, 3.99 1.19, 9.1 1 M-0.22 -0.7 C2.58 -0.25, 4.42 0.12, 9.73 -0.74" stroke="#000000" stroke-width="4" fill="none"></path></g></g><g stroke-linecap="round"><g transform="translate(479.66407408589134 165.04969320483985) rotate(0 4.035410746252978 0.2615694223007097)"><path d="M-1.67 1.01 C2.16 1.49, 7.04 1.14, 8.64 1.15 M0.13 -0.23 C2.41 0.28, 6.14 -0.6, 9.74 -0.74" stroke="#000000" stroke-width="4" fill="none"></path></g></g><g stroke-linecap="round"><g transform="translate(439.53236173862797 165.04969320484014) rotate(0 4.013244403383965 0.43646841419476345)"><path d="M-1.49 1.35 C1.86 0.9, 3.52 1.05, 9.52 -0.44 M-0.47 0.14 C2.47 -0.69, 4.59 -0.69, 8.75 0.16" stroke="#000000" stroke-width="4" fill="none"></path></g></g><g stroke-linecap="round"><g transform="translate(517.7892008157911 164.3808313323861) rotate(0 4.328683725096539 0.11865601491109601)"><path d="M-0.26 1 C2.59 1.02, 6.78 -0.58, 7.96 0.26 M0.37 -0.74 C2.95 -0.77, 4.54 0.13, 8.92 -0.76" stroke="#000000" stroke-width="4" fill="none"></path></g></g><g stroke-linecap="round"><g transform="translate(536.517333244515 165.04969320483968) rotate(0 4.735631540930456 0.10565113117297642)"><path d="M-0.72 1.15 C3.64 -0.54, 5.57 0.16, 8.9 -0.94 M0.37 -0.74 C2.34 0.31, 5.45 -0.61, 10.19 0.64" stroke="#000000" stroke-width="4" fill="none"></path></g></g><g stroke-linecap="round"><g transform="translate(392.04316879437295 175.75148316410986) rotate(0 4.516608115295867 0.14410436907880353)"><path d="M0.15 -0.44 C1.9 0.15, 6.15 -1.06, 9.64 0.73 M-0.61 0.16 C1.63 -0.61, 4.98 0.79, 8.72 -0.28" stroke="#000000" stroke-width="4" fill="none"></path></g></g><g stroke-linecap="round"><g transform="translate(375.32162198300944 175.75148316410946) rotate(0 3.8708316431821004 -0.005992934787144577)"><path d="M-1.41 0.26 C2.92 -0.9, 7.05 0.78, 7.89 0.75 M-0.45 -0.76 C2.9 0.61, 3.49 -0.32, 9.15 0.16" stroke="#000000" stroke-width="4" fill="none"></path></g></g><g stroke-linecap="round"><g transform="translate(470.3000078715361 175.08262129165593) rotate(0 4.725459671007286 -0.29056085208841864)"><path d="M-0.47 -0.94 C2.87 0.71, 3.7 0.72, 7.88 -1.22 M0.83 0.64 C2.32 -0.13, 5.72 0.31, 9.92 0.2" stroke="#000000" stroke-width="4" fill="none"></path></g></g><g stroke-linecap="round"><g transform="translate(430.16829552426725 175.08262129165558) rotate(0 4.66162641678352 -0.08801120845927812)"><path d="M0.28 0.73 C1.47 0.84, 4.4 -1.13, 9.68 -0.89 M-0.65 -0.28 C1.83 0.03, 4.65 0.07, 9.97 0.38" stroke="#000000" stroke-width="4" fill="none"></path></g></g><g stroke-linecap="round"><g transform="translate(508.42513460143334 174.41375941920188) rotate(0 3.755615692849233 0.39554874941720186)"><path d="M-1.47 0.75 C0.86 -1.29, 5 -0.97, 7.84 1.66 M-0.22 0.16 C4 0.26, 7.5 0.44, 8.98 -0.87" stroke="#000000" stroke-width="4" fill="none"></path></g></g><g stroke-linecap="round"><g transform="translate(411.4401630955483 175.75148316410974) rotate(0 4.57954181231554 -0.39455205373047875)"><path d="M-1.48 -1.22 C3.49 -0.97, 4.83 1.59, 10.64 -1.3 M0.55 0.2 C3.13 0.35, 4.67 -0.9, 8.49 0.51" stroke="#000000" stroke-width="4" fill="none"></path></g></g><g stroke-linecap="round"><g transform="translate(489.6970021727134 175.08262129165638) rotate(0 5.27842960163224 -0.2296940409816841)"><path d="M0.32 -0.89 C1.66 1.78, 7.64 -1.17, 8.79 -0.43 M0.61 0.38 C2.59 -0.91, 5.06 0.47, 10.24 0.43" stroke="#000000" stroke-width="4" fill="none"></path></g></g><g stroke-linecap="round"><g transform="translate(449.56528982544444 175.0826212916558) rotate(0 4.1399085592900065 0.39554874941720186)"><path d="M-1.52 1.66 C3.48 -1.21, 3.83 -0.34, 9.68 1.11 M-0.38 -0.87 C2.14 0.43, 6.89 0.36, 9.8 0.06" stroke="#000000" stroke-width="4" fill="none"></path></g></g><g stroke-linecap="round"><g transform="translate(527.8221289026086 174.4137594192016) rotate(0 4.5343875749280755 -0.040813380794219256)"><path d="M1.28 -1.3 C1.79 -0.6, 5.04 0.94, 9.76 1.21 M-0.87 0.51 C4.06 0.61, 6.82 0.24, 9.94 -0.52" stroke="#000000" stroke-width="4" fill="none"></path></g></g><g stroke-linecap="round"><g transform="translate(546.5502613313337 175.0826212916565) rotate(0 4.778860291440026 0.02907195124450368)"><path d="M-0.57 -0.43 C3.95 1.24, 7.68 1.34, 10.13 -0.76 M0.87 0.43 C2.38 -0.04, 4.45 -0.62, 8.59 -0.15" stroke="#000000" stroke-width="4" fill="none"></path></g></g><g stroke-linecap="round"><g transform="translate(402.0760968811866 185.78441125092593) rotate(0 4.386374772699185 -0.31386598452843373)"><path d="M0.31 1.11 C2.56 1.26, 5.09 -0.72, 7.62 -1.74 M0.44 0.06 C3.89 -0.61, 5.86 -0.24, 8.46 0.87" stroke="#000000" stroke-width="4" fill="none"></path></g></g><g stroke-linecap="round"><g transform="translate(385.35455006982886 185.7844112509265) rotate(0 5.387719922691986 0.4437597160006419)"><path d="M0.4 1.21 C3.36 -0.87, 3.44 -1.85, 10.38 1.75 M0.58 -0.52 C2.47 -0.16, 5.58 0.85, 8.8 -0.86" stroke="#000000" stroke-width="4" fill="none"></path></g></g><g stroke-linecap="round"><g transform="translate(518.4580626882475 184.44668750601778) rotate(0 4.728598144436262 0.0035381322317959985)"><path d="M0.76 -0.76 C1.62 -1.86, 7.74 1.63, 10.23 0.88 M-0.77 -0.15 C1.97 0.97, 5.18 -0.76, 9.34 0.64" stroke="#000000" stroke-width="4" fill="none"></path></g></g><g stroke-linecap="round"><g transform="translate(430.76541821171463 186.71719032155977) rotate(0 33.07135762091036 -0.9339255904778838)"><path d="M-3.72 -3.72 C27.46 3.77, 52.46 1.38, 69.63 1.01 M-1.93 1.85 C15.77 -1.97, 33.9 0.87, 69.86 -0.72" stroke="#000000" stroke-width="4" fill="none"></path></g></g><g stroke-linecap="round"><g transform="translate(537.8550569894277 184.44668750601699) rotate(0 4.223261731643333 0.09894053601215091)"><path d="M1.01 1.75 C3.3 1.05, 4.98 1.33, 8.32 -1.55 M-0.57 -0.86 C2.64 0.46, 5.55 0.17, 9.01 0.31" stroke="#000000" stroke-width="4" fill="none"></path></g></g><g stroke-linecap="round"><g transform="translate(352.86370115433033 194.16990666370413) rotate(0 115.97223396127015 -17.877069147697853)" fill-rule="evenodd"><path d="M21.17 -37.24 C21.17 -37.24, 21.17 -37.24, 21.17 -37.24 M21.17 -37.24 C21.17 -37.24, 21.17 -37.24, 21.17 -37.24 M7.83 -21.83 C12.08 -22.21, 21.89 -27.27, 28.65 -40.67 M11.85 -20.29 C14.82 -23.03, 19.27 -28.2, 28.11 -35.02 M1.75 -2.49 C8.38 -13.06, 15.86 -23.58, 35.49 -39.63 M0.76 -2.48 C9.12 -9.75, 15.36 -18.04, 32.58 -35.64 M1.6 -1.18 C12.62 -9.78, 13.85 -11.81, 40.57 -33.44 M3.86 3.19 C13.58 -10.84, 24.28 -22.28, 37.71 -36.77 M8.36 4.92 C21.08 -13.24, 34.9 -23.49, 44.34 -34.79 M9.22 1.09 C16.45 -6.02, 27.08 -17.3, 43.97 -36.17 M16.71 -0.03 C27.97 -9.09, 35.2 -24.63, 49.78 -40.59 M14.03 2.09 C22.24 -5.86, 28.7 -17.74, 48.81 -38.63 M20.77 2.42 C23.67 -6.84, 30.14 -12.43, 49.34 -37.58 M19.92 1.95 C30.8 -11.86, 40.69 -24.78, 53.02 -38.05 M21.81 -0.89 C34.35 -12.59, 49.31 -22.28, 57.41 -36.47 M24.01 3.1 C36.53 -9.24, 45.11 -22.29, 58.6 -38.03 M25.42 2.93 C42.17 -7.65, 54.94 -19.93, 66.67 -38.06 M29.5 1.79 C40.75 -10.79, 51.08 -21.37, 64.6 -38.38 M37.04 -1.57 C42.25 -10.06, 52.27 -13.67, 71.07 -34.88 M32.74 1.27 C44.75 -8.95, 53.06 -21.26, 67.53 -35.23 M43.16 -0.58 C44.84 -3.32, 52.12 -14.73, 74.98 -37.51 M37.78 3 C51.38 -10.8, 60.8 -20.19, 73.91 -35.79 M46.93 2.65 C51.31 -5.9, 60.86 -14.77, 76.78 -37.04 M43.45 3.82 C53.97 -7.67, 64.53 -17.86, 77.35 -35.24 M49.26 5.4 C55.08 -5.27, 64.44 -15.41, 86.01 -39.36 M49.9 3.17 C61.02 -8.54, 68.04 -16.73, 83.09 -35.44 M52.49 -0.91 C65.69 -9.38, 77.79 -27.09, 91 -35.62 M57.66 0.23 C66.24 -12.34, 77.8 -23.01, 89.09 -37.86 M57.45 2.95 C72.89 -13.17, 88.7 -27.72, 91.96 -36.51 M62.23 1.15 C71.65 -8.72, 79.17 -19.9, 94.56 -38.27 M67.15 1.61 C74.08 -3.31, 77.27 -18.41, 99.98 -33.97 M65.14 0.19 C77.7 -11.59, 86.23 -20.73, 100.4 -34.91 M67.86 2.72 C81.43 -4.67, 85.66 -14.23, 109.43 -39.27 M72.48 2.97 C79.91 -9.88, 93.44 -21.96, 105.01 -34.99 M80.78 -1.37 C86.64 -11.15, 94.84 -17.53, 114.37 -37.14 M77.99 3.59 C83.73 -6.91, 89.27 -11.98, 110.17 -35.27 M79.1 -0.07 C93.04 -4.51, 102.48 -22.52, 119.49 -39.41 M81.6 3.89 C90.4 -9.51, 103.76 -23.56, 115.42 -36.12 M87.69 5.14 C102.11 -13.79, 110.55 -27.26, 121.28 -35.36 M88.54 2.57 C96.8 -12.13, 108.17 -24.2, 120.63 -38.32 M92.18 2.33 C109.15 -13.01, 117.4 -30.69, 127.63 -38.13 M91.84 2.41 C101.2 -9.29, 113.57 -19, 125.06 -37.93 M98.62 2.7 C111.68 -10.38, 125.31 -25.43, 130.94 -35.05 M99.44 3.45 C112.38 -13.19, 126.66 -29.52, 129.92 -35 M106.57 2.26 C111.27 -8.87, 120.84 -17.88, 135.13 -33.31 M104.73 2.21 C113.11 -10.93, 125.33 -23.62, 136.8 -35.73 M112.75 -0.58 C122.65 -11.92, 131.59 -26.04, 140 -38.05 M109.6 0.81 C117.97 -9.49, 127.25 -20.82, 141.48 -37 M116.17 4.62 C125.07 -13.59, 136.32 -24.2, 145.67 -34.52 M115.06 2.22 C123.26 -9.38, 133.92 -20.46, 145.79 -36.89 M121.06 2.73 C130.48 -5.8, 139.64 -16.42, 151.53 -37.67 M119.57 4.17 C126.36 -6.19, 134.62 -15.7, 154.01 -34.81 M121.32 -1.13 C131.67 -4.02, 140.92 -12.6, 157.4 -38.53 M124.93 2.58 C139.4 -12.09, 151.39 -29.41, 157.46 -34.26 M128.91 4.35 C139.19 -14.13, 150.06 -26.16, 163.08 -38.62 M128.13 1.02 C136 -5.56, 143.97 -16.22, 163.52 -35.7 M132.8 3.02 C141.74 -9.22, 152.13 -23.3, 169.57 -36.28 M133.71 2.64 C149.5 -12.88, 161.88 -26.85, 168.22 -35.27 M140.13 4.86 C156.66 -14.63, 167.68 -30.2, 170.6 -37.09 M138.39 3.34 C148.26 -4.45, 157.28 -15.01, 173.28 -37.72 M143.82 3.66 C151.54 -11.36, 169.42 -25.51, 177.85 -40.17 M144.06 2.98 C157.1 -8.27, 165.47 -21.07, 178.71 -35.1 M147.67 -1.39 C160.98 -13.21, 174.68 -23.59, 187.84 -31.9 M150.39 2.56 C163.34 -12.2, 173.72 -24.07, 183.19 -34.94 M158.02 -0.07 C164.49 -12.41, 175.26 -18.18, 186.38 -40 M155.89 3.39 C163.82 -7, 169.33 -13.92, 191.9 -34.72 M160.88 2.53 C173.06 -9.19, 183.78 -23.92, 196.95 -39.63 M162.45 4.33 C170.44 -6.23, 179.95 -16.04, 194.4 -34.49 M169.51 -0.45 C172.71 -6.24, 187.94 -14.87, 203.7 -39.05 M168.43 0.89 C175.72 -8.48, 189.51 -23.13, 199 -34.89 M169.59 4.1 C182.21 -8, 193.3 -22.86, 204.55 -37.99 M173.18 2.53 C184.87 -13.34, 195.04 -26.77, 207.37 -34 M174.81 -1.22 C181.87 -7.47, 192.88 -19.39, 211.54 -30.24 M178.17 3.72 C188.79 -8.17, 195.96 -19.6, 206.26 -34.37 M180.03 5.38 C186.33 -7.52, 197.13 -15.57, 210.45 -30.11 M183.47 1.24 C192.88 -7.94, 199.92 -18.44, 208.6 -27.86 M184.87 2.46 C189.38 -5.6, 200.05 -11.05, 215.98 -24.46 M188.88 1.3 C198.78 -9.22, 208.42 -18.84, 212.11 -24.21 M194.88 2.99 C194.51 -2.36, 204.6 -6.59, 212.71 -20.13 M194.47 0.78 C198.71 -2.26, 202.27 -7.07, 213.68 -20.82 M197.11 3.98 C201.46 -1.6, 204.22 -5.54, 217.51 -20.3 M197.63 2.33 C206.02 -3.49, 208.13 -11.86, 219.26 -19.55 M201.27 0.1 C211.83 -2.83, 218.1 -13.62, 217.91 -12.85 M205.64 3.67 C207.34 -2.76, 213.12 -4.82, 219.58 -17.6 M207.47 5.13 C212.43 -2.52, 217.1 -4.83, 218.63 -10.84 M208.79 0.76 C213.86 -1.24, 215.73 -6.26, 223.95 -12.26 M214.73 2.43 C220.59 -3.43, 223.55 -4.11, 226.42 -8.6 M213.18 1.1 C217.71 1.04, 218.67 -2.49, 224.51 -8.03 M221.08 3.47 C223.42 0.08, 224.52 -1.44, 228.18 -5.93 M220.06 1.74 C221.85 -0.23, 224.98 -2.54, 225.98 -4.77 M225.88 3.55 C227.36 0.78, 228.08 0.89, 229.94 -1.14 M225.38 1.87 C226.75 0.99, 226.79 0.32, 229.45 -2.58" stroke="#868e96" stroke-width="0.5" fill="none"></path><path d="M1.57 1.59 C47.99 -1.57, 93.65 -6.46, 230.22 -3.28 M-0.04 1.15 C91.01 4.22, 180.55 4.17, 231.98 1.06 M231.4 -1.25 C220.57 -8.84, 215.72 -20.34, 204.38 -39.18 M228.76 1.5 C225.03 -6.67, 221.31 -13.79, 203.5 -36.39 M207.48 -34.52 C153.04 -36.14, 99.68 -34.89, 24.41 -38.34 M202.8 -36.38 C160.77 -35.44, 117.92 -33.67, 21.26 -36.21 M18.13 -34.56 C12.21 -27.56, 12.52 -17.37, 0.36 1.88 M22.43 -37.13 C15.16 -25.2, 6.47 -10.94, 1.29 -0.21 M0 0 C0 0, 0 0, 0 0 M0 0 C0 0, 0 0, 0 0" stroke="#000000" stroke-width="1" fill="none"></path></g></g><g stroke-linecap="round" transform="translate(351.5770255108806 192.473029975469) rotate(0 115.3786729983803 2.3410165535902934)"><path d="M0 0 C0 0, 0 0, 0 0 M0 0 C0 0, 0 0, 0 0 M0.32 6.23 C2.55 2.97, 4.5 3.67, 4.39 0.58 M0.54 5.42 C1.72 3.99, 4.31 2.13, 4.58 0.55 M5.15 5.74 C8.58 4.11, 9.38 1.23, 9.7 -1.23 M6.01 5.45 C7.73 3.45, 9.54 2.64, 10.37 -0.35 M10.67 5.03 C12.03 2.79, 15.47 1.15, 14.23 -0.22 M11.62 5.43 C13.25 3.2, 14.51 2.52, 14.97 0.63 M17.79 3.83 C17.18 4.44, 20.82 3.29, 21.8 0.94 M16.64 5.22 C17.61 4.3, 19.58 2.18, 21.6 0.06 M22.16 4.7 C23.78 4.74, 24.39 4, 25.88 1.18 M21.58 6.21 C23 4.89, 24.33 3.5, 26.38 0.46 M28.68 5.44 C28.39 3.19, 30.21 1.46, 31.06 0.52 M27.67 5.64 C28.41 3.2, 30.53 1.4, 31.22 -0.25 M31.67 4.97 C32.72 4.35, 33.71 2.25, 37.44 -1.09 M32.33 5.16 C33.09 3.69, 35.29 1.75, 37.07 0.5 M37.76 4.24 C40.13 4.29, 39.72 3.14, 42.5 -1.47 M38.51 5.26 C39.4 3.08, 41.03 1.39, 42.85 -0.55 M43.25 6.44 C44.6 5.83, 46.14 2.85, 47.88 -0.13 M43.08 5.35 C44.24 4.47, 46.37 1.54, 47.1 0.91 M48.62 3.92 C50.11 4.99, 51.21 3.78, 52.87 1.14 M49.03 5.18 C50.31 2.9, 51.49 2.05, 52.51 -0.72 M52.69 6.42 C54.33 3.43, 57.25 1.41, 58.4 -0.01 M53.84 4.99 C54.46 4.87, 55.81 3.36, 57.73 0.89 M58.72 5.55 C60.5 4.18, 60.98 1.94, 63.3 -1.43 M58.85 5.5 C61.27 3.42, 62.22 1.47, 63.32 -0.55 M62.96 5.9 C64.79 3.96, 67.47 1.37, 68.28 -0.41 M64.69 5.22 C65.42 4.33, 66.61 2.57, 69.22 0.75 M69.15 6.22 C70.91 3.05, 73.83 1.54, 75.04 0.17 M69.42 4.67 C70.57 4.26, 72.05 1.84, 75.01 -0.49 M74.34 5.38 C77.1 3.58, 77.32 1.48, 79.03 -0.84 M75.14 5.12 C75.61 3.68, 76.96 2.21, 78.81 -0.15 M80.48 5.99 C80.38 2.1, 83.11 2.8, 85.32 -0.63 M80.57 4.36 C80.94 4.34, 82.83 3.14, 84.58 -0.87 M85.9 6.28 C86.43 4.12, 90.39 0.45, 90.22 0.83 M84.8 5.27 C86.95 3.92, 87.63 3.16, 89.78 0.05 M91.31 3.74 C92.05 3.93, 94.44 2.35, 94.31 0.29 M91.14 4.56 C92.04 3.86, 93.67 2.11, 95.46 0.12 M96.85 6.66 C98.5 2.41, 100.28 1.04, 100.88 1.29 M95.46 5.59 C97.97 3.12, 99 1.85, 100.96 -0.53 M102.51 4.13 C103.08 2.1, 104.98 1.52, 106.54 -0.43 M101.16 4.29 C102.84 2.63, 104.4 0.88, 106.96 0.19 M107.96 5.54 C107.96 2.69, 110.6 0.69, 110.88 -1.16 M106.2 4.73 C108.35 3.9, 108.12 2.62, 111.61 0.13 M112.33 5.78 C114 4.06, 113.3 3.93, 117.63 -0.31 M111.82 5.85 C113.83 3.44, 114.39 2.17, 115.74 -0.03 M117.33 4.18 C119.07 2.79, 118.82 3.76, 122.36 0.38 M116.94 4.86 C118.24 3.78, 119.2 3.17, 122.18 0.29 M123.26 5.24 C123.57 3.48, 123.84 2.28, 126.72 -1.05 M121.83 5.5 C123.13 3.8, 124.82 2.2, 127.51 0.71 M127.45 4.79 C128.02 4.83, 129.73 2.93, 132.7 0.41 M127.66 5.48 C129.4 3.83, 130.73 1.06, 132.13 -0.69 M133.86 5.72 C135.15 4.14, 134.37 2.87, 136.75 0.24 M132.61 5.71 C133.7 4.34, 135.54 3.49, 137.05 -0.3 M138.13 6.23 C140.43 4.49, 141.78 0.61, 144.33 -0.78 M139.16 5.42 C140.45 2.66, 141.55 2.18, 143.48 -0.17 M142.8 4.28 C143.7 3.4, 145.71 2.11, 147.25 0.96 M143.15 5.79 C144.37 4.02, 145.91 3.26, 148.24 0.54 M147.96 5.49 C149.71 2.79, 152.97 1.23, 154.96 -1.3 M149.51 5.02 C150.85 3.64, 151.94 2.24, 154.5 -0.04 M155.22 5.17 C156.08 3.12, 156.45 1.23, 157.92 0.83 M154.3 6.2 C155.89 4.38, 156.28 2.4, 158.81 0.62 M158.45 4.63 C163.01 1.66, 162.94 -0.37, 164.51 0.92 M160.41 5.38 C160.87 3.81, 161.76 3.16, 164.62 -0.33 M164.5 4.43 C167.12 3.49, 169.27 3.39, 170 0.45 M165.26 5.02 C166.53 3.61, 167.68 2.12, 169.34 0.2 M169.9 3.84 C171.58 4.22, 171.85 0.78, 173.8 1.18 M170.85 4.88 C172.1 3.22, 174.67 1.59, 175.09 0.04 M176.06 5.31 C177.45 2.9, 178.53 1.46, 179.29 -0.07 M175.68 5.65 C177.42 3.91, 177.88 2.81, 179.86 0.31 M179.93 5.57 C182.98 5.16, 184.08 1.93, 185.86 0.56 M180.62 5.47 C182.98 3.15, 183.01 2.71, 185.54 -0.2 M186.4 5.66 C188.88 2.11, 189.35 0.59, 191.54 0.28 M186.36 4.93 C187.43 3.04, 190.25 1.98, 190.46 0.68 M190.55 4.8 C192.79 2.64, 195.36 3.29, 196.21 -1.08 M192.38 5 C193.25 2.78, 194.05 0.97, 196.02 0.17 M195.66 4.9 C198.88 2.74, 200.53 0.77, 201.45 -0.81 M197.14 5.02 C197.62 3.65, 198.17 3.52, 200.64 0.4 M201.08 4.39 C204.86 2.52, 206.97 1.61, 208.19 -0.86 M202.63 4.86 C204.18 3.6, 205.15 2.14, 206.35 0.03 M206.22 5.48 C209.39 4.37, 209.07 3.2, 210.89 0.86 M207.62 5.7 C208.64 4.29, 209.9 2.46, 211.39 0.03 M212.43 5.28 C213.33 3.99, 215.71 1.47, 217.62 0.1 M213.55 5.16 C213.48 3.24, 215.84 2.34, 218.19 -0.62 M218.55 5.83 C219.69 3.39, 219.42 4.05, 221.86 0.58 M217.83 5.09 C219.84 4.24, 220.72 1.27, 223.13 -0.49 M222.84 5.15 C223.8 5.16, 224.25 3.26, 228.16 0.85 M223.91 5.34 C224.99 3.16, 227.74 1.1, 228.75 0.02 M229.41 4.77 C230.25 4.72, 231.42 2.9, 231.27 1.61 M228.87 5.74 C229.54 4.3, 230.81 3.21, 232.13 1.7" stroke="#868e96" stroke-width="0.5" fill="none"></path><path d="M0.23 2.09 C88.88 -4.65, 180.98 -5.12, 233.9 -2.05 M0.42 0.62 C47.39 -2.09, 97.28 -1.6, 229.98 0.66 M229.99 -0.01 C230.42 1.19, 230.7 2.76, 229.85 5.11 M230.73 0.19 C231.01 1.51, 230.39 2.46, 230.66 4.88 M230.53 5.66 C165.19 8.52, 106.34 5.21, -2 3.41 M231.04 4.49 C155.84 5.7, 78.13 4.95, -0.04 5.41 M-0.68 4.42 C0.93 3.24, 0.15 3.17, 0.36 0.57 M0.18 4.49 C-0.25 3.29, 0.24 1.45, -0.28 -0.12" stroke="#000000" stroke-width="1" fill="none"></path></g><g stroke-linecap="round" transform="translate(381.50859430321316 24.421484521306866) rotate(0 81.76836390754784 46.653115603692896)"><path d="M0 0 C0 0, 0 0, 0 0 M0 0 C0 0, 0 0, 0 0 M0.61 5.22 C3.27 5.48, 3.04 2.02, 6.47 1.2 M-0.75 6.89 C1.73 5.33, 2.45 2.96, 4.67 -0.29 M3.02 12.46 C4.82 6.01, 3.25 3.37, 11.01 1.22 M0.82 11.62 C4.45 10.31, 5.03 4.93, 11.36 0.28 M-1.75 15.56 C8.1 11.09, 4.9 6.77, 17.58 -0.1 M1.61 16.74 C4.53 15.34, 6.09 9.74, 15.71 -0.21 M-2.36 26.24 C8.12 22.85, 10.32 17.13, 20.8 2.3 M-0.64 25.94 C8.4 15.94, 15.65 7.88, 19.81 0.28 M3.15 31.68 C11.03 22.58, 17.4 11.88, 23.9 3.39 M0.91 31.96 C7.39 24.49, 12.03 17.19, 24.99 1.99 M0.02 34.61 C9.14 24.18, 12.19 20.64, 32.01 1.35 M-0.93 35.76 C10.05 24.07, 16.06 14.61, 31.48 1.13 M-2.11 43.32 C8.25 29.4, 23.73 14.1, 37.42 3.52 M-1.44 41.88 C10.43 30.25, 20.1 21.21, 35.15 -0.8 M3.2 49.48 C8.79 39.13, 18.81 23.96, 43.2 0.01 M-0.06 47.91 C14.2 30.94, 29.19 14.02, 40.58 -1.89 M2.17 58.56 C18.19 35.76, 30.16 19.47, 48.32 1.38 M-0.05 56.34 C13.78 38.96, 23.29 28.64, 45.61 1.46 M1.94 63.45 C13.24 51.48, 20.96 40.55, 55.28 -3.83 M0.12 59.84 C11.42 47.24, 24.14 28.48, 54.42 1.63 M-2.5 66.81 C14.77 50.88, 27.13 36.34, 55.22 -3.35 M-0.88 69.13 C18.15 47.49, 35.45 27.09, 58.07 1.05 M0.12 74.96 C17.93 49.78, 38.91 23.47, 67.57 -3.7 M0.66 74.45 C23.17 46.11, 48.1 15.38, 63.59 -0.67 M-2.23 79.77 C28.55 46.86, 51.02 18.5, 69.17 -0.42 M-0.68 81.01 C20.32 54.83, 45.63 29.04, 70.51 -1.52 M-1.95 84.99 C18.7 66.22, 36.01 46.87, 73.86 3.42 M-1.07 86.87 C15.5 67.67, 33.17 50.34, 75.96 -1.92 M1.35 91.95 C22.34 63.29, 48.94 31.95, 77.67 2.96 M-0.84 90.21 C17.15 69.38, 34.23 48.98, 79.19 0.46 M-1.56 90.84 C26.13 68.75, 50.61 38.03, 82.37 -2.9 M0.53 96.17 C19.35 78.46, 34.37 55.95, 86.67 -2.07 M4.93 97.4 C35.91 62.49, 57.89 38.02, 88.65 2.16 M8.38 95.13 C35.35 66.35, 62 33.65, 88.65 1.93 M13.03 95.06 C34.15 75.2, 44.1 57.36, 95.74 1.49 M11.94 96.36 C43.48 61.2, 74.28 25.6, 96.17 -1.8 M20.47 91.53 C39.82 68.42, 56.74 52.03, 102.49 -0.89 M18.84 94.22 C49.66 59.8, 82.05 22.07, 101.71 0.03 M22.26 92.91 C53.42 61.39, 85.42 23.93, 107.06 1.3 M22.17 93.79 C51.08 63.94, 80.65 36.14, 108.16 -0.61 M27.03 93.58 C52.35 65.2, 74.99 34.81, 107.99 -1.71 M30.35 94.39 C52.97 66.86, 80.44 39.79, 109.47 0.15 M37.5 94.11 C58.07 66.6, 89.01 33.07, 119.2 2.56 M35 94.95 C62.09 61.15, 93.16 23.18, 114.99 1.99 M41.39 91.57 C62.14 70.91, 89.61 41, 118.39 2.76 M39.3 94 C64.4 68.68, 89.25 41.44, 121.33 1.87 M44.58 93.21 C60.01 71.91, 81.42 47.07, 127.44 1.59 M42.56 94.81 C64.52 72.29, 87.16 50.91, 126.23 1.44 M46.75 98.07 C78.32 63.24, 110.01 29.01, 135.38 2.14 M49.31 96.62 C73.33 65.77, 98.07 36.76, 130.95 1 M58.45 94.59 C76.94 65.53, 101.08 37.89, 135.53 1.54 M53.86 95.8 C87.57 61.36, 116.09 22.39, 138.8 -1.33 M60.77 98.25 C78.16 71.09, 99.8 51.12, 145.08 0.59 M61.34 93.05 C84.29 66.58, 111.66 34.61, 142.27 -0.43 M62.46 93.17 C94.22 62.28, 120.51 33.75, 146.29 -2.63 M64.25 94.58 C84.48 74.99, 102.87 54.17, 149.53 -0.94 M67.54 93.79 C100.07 64.22, 128.82 30.61, 154.05 -3.14 M71.58 95.3 C96.19 65.99, 124.95 35, 155.53 -0.16 M76.43 94.44 C100.43 61.44, 131.06 29.77, 157.02 -3.41 M77.32 96.02 C102.55 60.73, 131.35 31.03, 160.54 -0.78 M85.59 90.98 C109.71 59.95, 138.9 35.3, 160.62 -3 M81.54 94.61 C107.28 63.7, 136.04 30.25, 164.57 -0.99 M88.61 94.45 C106.24 82.61, 119.84 61.49, 166.17 5.33 M86.96 95.21 C107.63 70.75, 131.58 43.24, 163.98 7.01 M91.87 96.65 C106.92 72.45, 124.25 60.09, 167.05 11.45 M91.99 95.42 C119.18 67.33, 142.99 36.87, 163.01 12.34 M99.67 91.81 C118.58 68.89, 134.18 49.12, 163.24 21 M99.33 95.46 C122.1 66.72, 147.81 36.11, 161.87 20.23 M105.8 98.19 C121.65 75.22, 133.31 63.72, 163.03 27.3 M104.99 93.4 C116.86 78.99, 132.38 61.04, 165.77 23.42 M110.73 91.71 C125.65 71.24, 148.02 51.92, 167.38 33.24 M106.89 94.31 C126.05 78.72, 140.31 59.11, 162.76 29.61 M113.21 91.56 C129.19 84.77, 136.15 67.52, 164.89 37.56 M113.88 93.44 C130.07 71.06, 149.99 52.06, 166.18 35.37 M119.36 93.87 C136.46 75.21, 153.54 54.13, 160.96 44.59 M118.35 93.49 C127.08 84.65, 137.55 71.81, 165.21 41.37 M126.37 93.28 C140.62 82.51, 152.98 65.54, 164.71 50.53 M125.27 95.66 C133.65 84.77, 142.69 72.32, 163.24 50.28 M131.55 96.61 C138.52 84.87, 148.7 72.3, 165.44 57.37 M128.74 96.97 C135.16 87.8, 142.41 77.42, 163.76 54.21 M132 96.44 C145.37 81.85, 155.37 72.74, 160.99 58.8 M133.07 93.36 C145.32 83.71, 154.2 72.95, 162.17 60.2 M141.72 92.79 C143.73 91.03, 149.39 83.01, 164.73 70.49 M141.35 96.94 C148.67 83.24, 159.2 73.55, 162.21 66.06 M142.6 99.43 C148.75 88.61, 159.5 82.18, 166.69 71.82 M143.81 95.86 C151.1 90.21, 155.09 86.17, 164.51 73.67 M152.76 97.83 C156.87 91.11, 155.71 86.55, 164.5 76.16 M149.73 95.81 C153.26 92.81, 156.94 89.17, 163 80.81 M155.22 97.73 C160.38 91.23, 161.58 87.44, 166.53 85.1 M156.65 95.42 C156.83 93.76, 159.59 89.53, 164.5 86.31 M161.73 95.59 C162.66 94.56, 162.86 93.16, 164.41 92.21 M160.89 95.28 C161.87 94.14, 162.31 93.94, 163.8 91.89" stroke="#868e96" stroke-width="0.5" fill="none"></path><path d="M-2.22 -3.31 C56.1 -5.87, 117.18 -4.43, 159.86 -0.09 M-0.75 0.67 C61.61 0.06, 119.42 -0.42, 164.96 0.32 M162.04 -2.35 C161.71 22.02, 158.13 51.99, 162.31 89.31 M165.02 1.04 C162.27 34.74, 163.03 70.89, 163.05 94.71 M161.25 95.99 C111.29 93.03, 50.01 92.75, 1.24 89.57 M165.28 95.1 C116.77 93.85, 69.57 93.8, -1.83 91.84 M3.68 91.33 C1.72 61.21, 2.91 27.81, 1.61 2.73 M-0.78 94.17 C0.57 65.13, -1.94 36.86, -0.81 -1.17" stroke="#000000" stroke-width="1" fill="none"></path></g><g stroke-linecap="round" transform="translate(372.47895902508003 12.381970817127979) rotate(0 90.79799918568193 57.689336499190205)"><path d="M0 0 C0 0, 0 0, 0 0 M0 0 C0 0, 0 0, 0 0 M1.27 7.81 C0.78 4.67, 4.74 3.19, 5.06 0.69 M0.15 7.13 C0.75 4.93, 2.31 2.44, 4.53 -0.15 M2.13 9.01 C1.3 5.23, 7.33 5.18, 9.4 -0.15 M1.69 13.53 C2.88 7.39, 7.67 4.46, 10.36 -0.44 M3.56 16.09 C0.11 12.44, 10.11 8.88, 14.26 3.7 M0.65 20.07 C2.01 14.6, 8.28 8.24, 13.87 1.93 M4.05 27.56 C6.34 21.88, 8.58 16.5, 22.98 -0.2 M1.18 24.23 C7.78 16.79, 11.68 9.49, 22.38 0.66 M1.91 33 C4.71 25.7, 9.67 19.07, 23.06 -0.14 M1.54 31.62 C10.39 18.78, 19 8.18, 25.09 2.27 M2.1 33.24 C7.55 27.24, 20.28 15.15, 31.48 2.04 M1.13 35.2 C9.82 23.3, 23.08 11.44, 31.77 -0.98 M-2.93 41.54 C11.76 27.55, 20.23 23.7, 35.48 0.54 M0.75 41.06 C10.4 33.04, 17.18 20.86, 35.3 0.02 M-0.76 49.44 C9.03 33.47, 19.8 25.87, 44.21 3.2 M0.42 47.87 C14.27 32.65, 24.89 16.55, 42.68 0.34 M3.9 53.13 C18.15 32.68, 35.23 14.9, 45.85 1.19 M1.83 52.81 C12.39 40.63, 24.74 24.82, 45.61 0.31 M2.4 63.11 C10.04 50.92, 24.36 30.4, 51.23 2.54 M-1.15 62.75 C14.55 41.08, 34.1 25.52, 51.57 -1.39 M1.06 66.51 C22.72 42.28, 40.5 14.61, 58.96 1.85 M-0.01 68.22 C12.54 52.75, 27.18 36.04, 58.37 -0.48 M-2.39 73.02 C20.03 44.45, 46.44 20, 67.04 -2.15 M-1.82 74.82 C21.41 44.68, 45.49 18.79, 65.21 -1.95 M1.6 76.73 C22.26 51.28, 46.98 25.94, 70.01 3.08 M-1.33 80.65 C20.18 58.64, 39.2 33.91, 67.23 -0.8 M1.33 86.51 C31.5 53.48, 57.62 23.21, 70.56 -2.51 M-0.58 84.27 C21.48 61.87, 39.68 39.77, 74.63 -0.91 M-2.96 91.66 C22.07 61.23, 45.11 39.51, 76.66 2.05 M-0.36 89.9 C19.78 67.86, 41.92 45.21, 79.14 0.17 M-0.18 100.24 C34.08 62.18, 62.18 24.24, 81.18 0.39 M0.23 99.3 C17.99 74.56, 38.69 54.06, 85.16 0.39 M4.02 100.97 C34.75 66.88, 65.62 29.1, 91 -3.55 M-0.4 105.25 C24.06 73.91, 49.06 46.31, 88.3 0.42 M3.71 109.14 C16.3 88.11, 40.54 64.83, 98.68 0.05 M-0.49 111.01 C23.58 83, 47.8 53.68, 94.41 0.81 M3.58 112.91 C39.13 75.25, 79.99 25.16, 103.55 -3.44 M-0.49 116.2 C34.01 75.86, 68.06 38.55, 102.2 1.2 M5.37 116.96 C30.85 88.8, 55.4 62.52, 107.33 -3.49 M4.72 113.99 C29.06 95.02, 50 69.12, 106.26 1.46 M11.72 114.19 C42.49 76.28, 72.18 41.31, 111.28 -2.79 M9.15 114.39 C31.76 91.33, 50.93 65.92, 111.63 0.95 M15.03 117.27 C48.51 78.93, 78.55 47.43, 119.14 1.14 M14.01 117.32 C45.61 77.41, 78.72 42.38, 116.22 0.39 M19.88 118.26 C43.94 92.63, 61.53 68.52, 121.58 -2.2 M21.55 115.83 C46.62 89.37, 69.65 62.35, 120.63 1.34 M24.09 114.27 C53.17 81.49, 81.59 55.22, 124.55 -2.39 M25.57 115.32 C58.62 84.83, 84.6 52.2, 128.04 -0.38 M30.41 117.04 C61.35 84.23, 90.71 54.08, 132.3 -1.73 M30.53 114.68 C65.32 73.29, 98.58 37.4, 132.56 1.26 M35.63 114.65 C63.92 80.25, 95.23 45.93, 140.47 -1.59 M38.1 117.51 C68.75 77.03, 103.23 40.52, 135.81 -0.34 M42.15 113.03 C83.48 68.61, 119.62 28.09, 143.72 3.17 M42.21 117.3 C76.07 78.73, 107.65 40.27, 144.02 -1.19 M47.17 113.7 C67.93 94.66, 89.66 65.64, 144.87 -2.15 M47.61 116.62 C82.92 78.79, 117.54 38.3, 148.54 -1.53 M54.31 115.28 C91.24 75.24, 120.64 38.27, 154.54 1.55 M52.96 116.29 C83.01 82.93, 110.83 50.34, 154.92 1.33 M54.69 115.23 C83.35 86.08, 111.67 49.01, 160.21 0.79 M57.37 114.6 C96.92 70.27, 138.48 22.32, 159.51 -1.76 M62.6 111.4 C88.64 89.82, 111.83 52.58, 165.92 3.09 M63.46 116.46 C98.57 76.34, 132.57 36.47, 162.44 -0.64 M72.59 119.66 C92.18 90.84, 115.1 63.29, 169.35 2.65 M67.94 116.63 C91.99 88.82, 115.42 62.68, 168.29 -0.62 M71.13 111.56 C92.5 94.03, 120.37 64.61, 177.45 1.97 M76.65 116.84 C102.25 84.34, 128.31 52.3, 175.05 0.66 M81.7 111.93 C105.31 83.17, 136.22 52.3, 183.59 1.43 M79.14 117.08 C109.87 77.91, 141.63 40.74, 178.75 -1.51 M88.45 112.51 C117.38 77.71, 149.03 39.97, 181.18 -0.77 M83.75 116.67 C117.98 76.1, 155.51 34.12, 184.52 2.48 M89.3 113.57 C121.05 83.42, 151.98 50.93, 184.12 9.22 M92.12 117.56 C112.55 93.12, 133.84 65.15, 182.45 5.98 M99.57 117.55 C120.83 85.56, 146.86 60.01, 187.02 17.76 M94.29 113.43 C120.89 87.7, 149.82 55.15, 185.31 12.55 M101.1 114.66 C122.96 88.24, 141.58 67.03, 181.09 22.88 M99.26 116.91 C119.83 94.2, 143.61 67.95, 183.78 18.64 M109.25 117.29 C128.58 91.83, 146.17 71.38, 182.4 27.65 M105.39 117.54 C125.32 90.87, 148.67 65.36, 184.26 24.51 M109.26 117.85 C129.96 91.57, 156.71 65.81, 180.37 34.04 M110.24 117.16 C135.76 84.98, 162.37 55.01, 184.69 31.71 M116.69 114.66 C139.65 91.39, 158.62 62.26, 184.66 41.33 M118.44 115.41 C141.93 90.44, 160.81 64.35, 182.97 38.97 M120.37 118.34 C140.29 93.89, 163.65 71.71, 186.36 43.7 M122.04 113.59 C139.3 93.86, 152.3 75.17, 185.5 43.44 M123.53 117.4 C145.63 97.66, 166.43 71.86, 180.92 52.6 M129.13 115.91 C149.71 93.39, 169.1 68.98, 183.63 52.55 M135.44 115.9 C142.45 100.5, 158.56 81.54, 180.56 58.66 M132.89 116.66 C154.3 92.81, 172.77 69.75, 185.47 57.54 M140.52 115.06 C152.86 96.47, 172.3 79.04, 182.7 61.53 M136.11 117.39 C150.08 98.67, 166.04 84.16, 185.73 64.83 M145.95 118.87 C151.77 105.05, 167.33 91.04, 180.9 72.28 M144.32 114.08 C155.48 103.12, 166.45 88.56, 184.14 69.96 M150.84 115.75 C159.42 104.14, 167.61 98.2, 186.01 75.01 M150.29 114.4 C155.66 106.34, 164.38 97.96, 184.03 76.84 M153.8 116.14 C158.93 106.62, 164.34 99.35, 181.1 85.24 M155.14 116.78 C163.21 105.9, 173.26 94.91, 182.68 79.6 M162.11 118.16 C167.21 106.73, 175.17 99.25, 185.92 83.76 M160.87 115.72 C166.44 106.65, 178.81 93.59, 185.24 86.1 M167.32 113.18 C169.05 110.17, 170.12 101.75, 181.26 90.53 M163.44 116.88 C171.8 107.94, 176.73 100.55, 184.5 95.33 M170.38 115.51 C176.04 107.27, 178.89 101.25, 187.96 99.04 M169.33 114.35 C173.43 111.95, 177.33 105.09, 185.36 97.35 M174.01 113.16 C175.53 111.97, 178.83 108.55, 181.35 105.8 M176.15 114.31 C177.15 111.9, 180.11 109.01, 184.83 106.15 M180.29 115.67 C180.8 114.97, 181.53 113.52, 184.57 111.3 M180.11 116.14 C181.51 114.87, 182.51 113.01, 183.47 112.26" stroke="#868e96" stroke-width="0.5" fill="none"></path><path d="M-0.64 -3.86 C69.34 0.59, 127.6 2.92, 184.31 0.98 M1.44 1.25 C60.18 -0.45, 123.62 -0.9, 180.97 -1.64 M181.3 -3.06 C176.86 36.34, 179.51 65.05, 184.61 115.17 M180.42 -0.27 C182.9 40.22, 182.82 80.12, 182.39 115.24 M184.94 114.16 C119.54 116.32, 63.44 114.08, -0.51 116.06 M181.79 116.29 C129.1 119.5, 74.87 117.17, 1.28 113.93 M0.36 117.26 C-0.57 86.41, -0.51 55.26, -0.01 1.54 M1.29 115.16 C-0.32 84.98, 0.09 54.45, 0.11 0.64" stroke="#000000" stroke-width="1" fill="none"></path></g><g stroke-linecap="round"><g transform="translate(451.2374445065826 128.59672115607594) rotate(0 0.9786552563419377 5.910959989307486)"><path d="M2.6 -1.7 C-2.63 2.99, 1.86 6.79, 1.02 12.99 M-0.64 0.54 C1.2 4.91, -0.24 8.22, -0.01 13.52" stroke="#000000" stroke-width="2" fill="none"></path></g></g><g stroke-linecap="round"><g transform="translate(472.641024425125 127.92785928362258) rotate(0 -0.6719733581520586 8.005392188521)"><path d="M-2.58 -0.06 C2.17 3.55, 1.28 4.66, 0.94 16.07 M1 0.23 C-0.57 3.94, -0.14 9.66, -0.82 13.94" stroke="#000000" stroke-width="2" fill="none"></path></g></g><g stroke-linecap="round"><g transform="translate(433.1400017783569 143.96723416034445) rotate(0 28.90640094865239 -0.4035854631792688)"><path d="M2.72 0.98 C14.85 -1.44, 28.14 2.98, 58.44 -1.69 M-0.62 -1.64 C18.92 -0.88, 36.71 -0.23, 54.4 -1.79" stroke="#000000" stroke-width="2" fill="none"></path></g></g><g stroke-linecap="round" transform="translate(13.390299964645806 10) rotate(0 107.38467439344606 64.26851694988883)"><path d="M-0.12 0.5 C58.22 0.42, 119.9 -1.28, 213.74 -0.65 M0.15 -0.1 C71.86 1.03, 142.28 0.64, 214.75 0.38 M213.32 -0.55 C215.66 25.84, 214.01 54.6, 215.54 129.76 M215.16 -0.41 C215.26 44.16, 216.29 87.35, 214.16 128.28 M215.33 130.01 C157.43 129.56, 103.12 129.29, -0.36 127.84 M215.64 128.68 C134.88 127.59, 54.91 127.02, -0.51 129.33 M-0.11 129.37 C1.49 88.85, 2.32 53.88, -0.86 0.32 M0.2 128.22 C-1.28 78.66, -0.16 28.48, -0.58 0.27" stroke="#000000" stroke-width="1" fill="none"></path></g><g stroke-linecap="round"><g transform="translate(11.583930714037251 27.99745135495803) rotate(0 108.23031144867986 -0.0746131605473721)"><path d="M-0.08 0.34 C35.73 0.4, 179.45 0.92, 215.69 0.81 M-1.58 -0.52 C34.54 -0.84, 181.59 -1.11, 218.04 -0.89" stroke="#000000" stroke-width="1" fill="none"></path></g></g><g stroke-linecap="round" transform="translate(20.927550075119882 17.173715575494697) rotate(0 4.200164192638596 4.2001641926385815)"><path d="M8.4 4.2 C8.4 4.44, 8.38 4.69, 8.34 4.93 C8.29 5.17, 8.23 5.41, 8.15 5.64 C8.06 5.87, 7.96 6.09, 7.84 6.3 C7.72 6.51, 7.57 6.71, 7.42 6.9 C7.26 7.09, 7.09 7.26, 6.9 7.42 C6.71 7.57, 6.51 7.72, 6.3 7.84 C6.09 7.96, 5.87 8.06, 5.64 8.15 C5.41 8.23, 5.17 8.29, 4.93 8.34 C4.69 8.38, 4.44 8.4, 4.2 8.4 C3.96 8.4, 3.71 8.38, 3.47 8.34 C3.23 8.29, 2.99 8.23, 2.76 8.15 C2.54 8.06, 2.31 7.96, 2.1 7.84 C1.89 7.72, 1.69 7.57, 1.5 7.42 C1.31 7.26, 1.14 7.09, 0.98 6.9 C0.83 6.71, 0.68 6.51, 0.56 6.3 C0.44 6.09, 0.34 5.87, 0.25 5.64 C0.17 5.41, 0.11 5.17, 0.06 4.93 C0.02 4.69, 0 4.44, 0 4.2 C0 3.96, 0.02 3.71, 0.06 3.47 C0.11 3.23, 0.17 2.99, 0.25 2.76 C0.34 2.54, 0.44 2.31, 0.56 2.1 C0.68 1.89, 0.83 1.69, 0.98 1.5 C1.14 1.31, 1.31 1.14, 1.5 0.98 C1.69 0.83, 1.89 0.68, 2.1 0.56 C2.31 0.44, 2.54 0.34, 2.76 0.25 C2.99 0.17, 3.23 0.11, 3.47 0.06 C3.71 0.02, 3.96 0, 4.2 0 C4.44 0, 4.69 0.02, 4.93 0.06 C5.17 0.11, 5.41 0.17, 5.64 0.25 C5.87 0.34, 6.09 0.44, 6.3 0.56 C6.51 0.68, 6.71 0.83, 6.9 0.98 C7.09 1.14, 7.26 1.31, 7.42 1.5 C7.57 1.69, 7.72 1.89, 7.84 2.1 C7.96 2.31, 8.06 2.54, 8.15 2.76 C8.23 2.99, 8.29 3.23, 8.34 3.47 C8.38 3.71, 8.39 4.08, 8.4 4.2 C8.41 4.32, 8.41 4.08, 8.4 4.2" stroke="none" stroke-width="0" fill="#fa5252"></path><path d="M8.4 4.2 C8.4 4.44, 8.38 4.69, 8.34 4.93 C8.29 5.17, 8.23 5.41, 8.15 5.64 C8.06 5.87, 7.96 6.09, 7.84 6.3 C7.72 6.51, 7.57 6.71, 7.42 6.9 C7.26 7.09, 7.09 7.26, 6.9 7.42 C6.71 7.57, 6.51 7.72, 6.3 7.84 C6.09 7.96, 5.87 8.06, 5.64 8.15 C5.41 8.23, 5.17 8.29, 4.93 8.34 C4.69 8.38, 4.44 8.4, 4.2 8.4 C3.96 8.4, 3.71 8.38, 3.47 8.34 C3.23 8.29, 2.99 8.23, 2.76 8.15 C2.54 8.06, 2.31 7.96, 2.1 7.84 C1.89 7.72, 1.69 7.57, 1.5 7.42 C1.31 7.26, 1.14 7.09, 0.98 6.9 C0.83 6.71, 0.68 6.51, 0.56 6.3 C0.44 6.09, 0.34 5.87, 0.25 5.64 C0.17 5.41, 0.11 5.17, 0.06 4.93 C0.02 4.69, 0 4.44, 0 4.2 C0 3.96, 0.02 3.71, 0.06 3.47 C0.11 3.23, 0.17 2.99, 0.25 2.76 C0.34 2.54, 0.44 2.31, 0.56 2.1 C0.68 1.89, 0.83 1.69, 0.98 1.5 C1.14 1.31, 1.31 1.14, 1.5 0.98 C1.69 0.83, 1.89 0.68, 2.1 0.56 C2.31 0.44, 2.54 0.34, 2.76 0.25 C2.99 0.17, 3.23 0.11, 3.47 0.06 C3.71 0.02, 3.96 0, 4.2 0 C4.44 0, 4.69 0.02, 4.93 0.06 C5.17 0.11, 5.41 0.17, 5.64 0.25 C5.87 0.34, 6.09 0.44, 6.3 0.56 C6.51 0.68, 6.71 0.83, 6.9 0.98 C7.09 1.14, 7.26 1.31, 7.42 1.5 C7.57 1.69, 7.72 1.89, 7.84 2.1 C7.96 2.31, 8.06 2.54, 8.15 2.76 C8.23 2.99, 8.29 3.23, 8.34 3.47 C8.38 3.71, 8.39 4.08, 8.4 4.2 C8.41 4.32, 8.41 4.08, 8.4 4.2" stroke="#000000" stroke-width="1" fill="none"></path></g><g stroke-linecap="round" transform="translate(38.16281969653295 17.173715575494697) rotate(0 4.200164192638596 4.2001641926385815)"><path d="M8.4 4.2 C8.4 4.44, 8.38 4.69, 8.34 4.93 C8.29 5.17, 8.23 5.41, 8.15 5.64 C8.06 5.87, 7.96 6.09, 7.84 6.3 C7.72 6.51, 7.57 6.71, 7.42 6.9 C7.26 7.09, 7.09 7.26, 6.9 7.42 C6.71 7.57, 6.51 7.72, 6.3 7.84 C6.09 7.96, 5.87 8.06, 5.64 8.15 C5.41 8.23, 5.17 8.29, 4.93 8.34 C4.69 8.38, 4.44 8.4, 4.2 8.4 C3.96 8.4, 3.71 8.38, 3.47 8.34 C3.23 8.29, 2.99 8.23, 2.76 8.15 C2.54 8.06, 2.31 7.96, 2.1 7.84 C1.89 7.72, 1.69 7.57, 1.5 7.42 C1.31 7.26, 1.14 7.09, 0.98 6.9 C0.83 6.71, 0.68 6.51, 0.56 6.3 C0.44 6.09, 0.34 5.87, 0.25 5.64 C0.17 5.41, 0.11 5.17, 0.06 4.93 C0.02 4.69, 0 4.44, 0 4.2 C0 3.96, 0.02 3.71, 0.06 3.47 C0.11 3.23, 0.17 2.99, 0.25 2.76 C0.34 2.54, 0.44 2.31, 0.56 2.1 C0.68 1.89, 0.83 1.69, 0.98 1.5 C1.14 1.31, 1.31 1.14, 1.5 0.98 C1.69 0.83, 1.89 0.68, 2.1 0.56 C2.31 0.44, 2.54 0.34, 2.76 0.25 C2.99 0.17, 3.23 0.11, 3.47 0.06 C3.71 0.02, 3.96 0, 4.2 0 C4.44 0, 4.69 0.02, 4.93 0.06 C5.17 0.11, 5.41 0.17, 5.64 0.25 C5.87 0.34, 6.09 0.44, 6.3 0.56 C6.51 0.68, 6.71 0.83, 6.9 0.98 C7.09 1.14, 7.26 1.31, 7.42 1.5 C7.57 1.69, 7.72 1.89, 7.84 2.1 C7.96 2.31, 8.06 2.54, 8.15 2.76 C8.23 2.99, 8.29 3.23, 8.34 3.47 C8.38 3.71, 8.39 4.08, 8.4 4.2 C8.41 4.32, 8.41 4.08, 8.4 4.2" stroke="none" stroke-width="0" fill="#fab005"></path><path d="M8.4 4.2 C8.4 4.44, 8.38 4.69, 8.34 4.93 C8.29 5.17, 8.23 5.41, 8.15 5.64 C8.06 5.87, 7.96 6.09, 7.84 6.3 C7.72 6.51, 7.57 6.71, 7.42 6.9 C7.26 7.09, 7.09 7.26, 6.9 7.42 C6.71 7.57, 6.51 7.72, 6.3 7.84 C6.09 7.96, 5.87 8.06, 5.64 8.15 C5.41 8.23, 5.17 8.29, 4.93 8.34 C4.69 8.38, 4.44 8.4, 4.2 8.4 C3.96 8.4, 3.71 8.38, 3.47 8.34 C3.23 8.29, 2.99 8.23, 2.76 8.15 C2.54 8.06, 2.31 7.96, 2.1 7.84 C1.89 7.72, 1.69 7.57, 1.5 7.42 C1.31 7.26, 1.14 7.09, 0.98 6.9 C0.83 6.71, 0.68 6.51, 0.56 6.3 C0.44 6.09, 0.34 5.87, 0.25 5.64 C0.17 5.41, 0.11 5.17, 0.06 4.93 C0.02 4.69, 0 4.44, 0 4.2 C0 3.96, 0.02 3.71, 0.06 3.47 C0.11 3.23, 0.17 2.99, 0.25 2.76 C0.34 2.54, 0.44 2.31, 0.56 2.1 C0.68 1.89, 0.83 1.69, 0.98 1.5 C1.14 1.31, 1.31 1.14, 1.5 0.98 C1.69 0.83, 1.89 0.68, 2.1 0.56 C2.31 0.44, 2.54 0.34, 2.76 0.25 C2.99 0.17, 3.23 0.11, 3.47 0.06 C3.71 0.02, 3.96 0, 4.2 0 C4.44 0, 4.69 0.02, 4.93 0.06 C5.17 0.11, 5.41 0.17, 5.64 0.25 C5.87 0.34, 6.09 0.44, 6.3 0.56 C6.51 0.68, 6.71 0.83, 6.9 0.98 C7.09 1.14, 7.26 1.31, 7.42 1.5 C7.57 1.69, 7.72 1.89, 7.84 2.1 C7.96 2.31, 8.06 2.54, 8.15 2.76 C8.23 2.99, 8.29 3.23, 8.34 3.47 C8.38 3.71, 8.39 4.08, 8.4 4.2 C8.41 4.32, 8.41 4.08, 8.4 4.2" stroke="#000000" stroke-width="1" fill="none"></path></g><g stroke-linecap="round" transform="translate(56.15503477662605 17.930661034174705) rotate(0 4.200164192638596 4.200164192638596)"><path d="M8.4 4.2 C8.4 4.44, 8.38 4.69, 8.34 4.93 C8.29 5.17, 8.23 5.41, 8.15 5.64 C8.06 5.87, 7.96 6.09, 7.84 6.3 C7.72 6.51, 7.57 6.71, 7.42 6.9 C7.26 7.09, 7.09 7.26, 6.9 7.42 C6.71 7.57, 6.51 7.72, 6.3 7.84 C6.09 7.96, 5.87 8.06, 5.64 8.15 C5.41 8.23, 5.17 8.29, 4.93 8.34 C4.69 8.38, 4.44 8.4, 4.2 8.4 C3.96 8.4, 3.71 8.38, 3.47 8.34 C3.23 8.29, 2.99 8.23, 2.76 8.15 C2.54 8.06, 2.31 7.96, 2.1 7.84 C1.89 7.72, 1.69 7.57, 1.5 7.42 C1.31 7.26, 1.14 7.09, 0.98 6.9 C0.83 6.71, 0.68 6.51, 0.56 6.3 C0.44 6.09, 0.34 5.87, 0.25 5.64 C0.17 5.41, 0.11 5.17, 0.06 4.93 C0.02 4.69, 0 4.44, 0 4.2 C0 3.96, 0.02 3.71, 0.06 3.47 C0.11 3.23, 0.17 2.99, 0.25 2.76 C0.34 2.54, 0.44 2.31, 0.56 2.1 C0.68 1.89, 0.83 1.69, 0.98 1.5 C1.14 1.31, 1.31 1.14, 1.5 0.98 C1.69 0.83, 1.89 0.68, 2.1 0.56 C2.31 0.44, 2.54 0.34, 2.76 0.25 C2.99 0.17, 3.23 0.11, 3.47 0.06 C3.71 0.02, 3.96 0, 4.2 0 C4.44 0, 4.69 0.02, 4.93 0.06 C5.17 0.11, 5.41 0.17, 5.64 0.25 C5.87 0.34, 6.09 0.44, 6.3 0.56 C6.51 0.68, 6.71 0.83, 6.9 0.98 C7.09 1.14, 7.26 1.31, 7.42 1.5 C7.57 1.69, 7.72 1.89, 7.84 2.1 C7.96 2.31, 8.06 2.54, 8.15 2.76 C8.23 2.99, 8.29 3.23, 8.34 3.47 C8.38 3.71, 8.39 4.08, 8.4 4.2 C8.41 4.32, 8.41 4.08, 8.4 4.2" stroke="none" stroke-width="0" fill="#40c057"></path><path d="M8.4 4.2 C8.4 4.44, 8.38 4.69, 8.34 4.93 C8.29 5.17, 8.23 5.41, 8.15 5.64 C8.06 5.87, 7.96 6.09, 7.84 6.3 C7.72 6.51, 7.57 6.71, 7.42 6.9 C7.26 7.09, 7.09 7.26, 6.9 7.42 C6.71 7.57, 6.51 7.72, 6.3 7.84 C6.09 7.96, 5.87 8.06, 5.64 8.15 C5.41 8.23, 5.17 8.29, 4.93 8.34 C4.69 8.38, 4.44 8.4, 4.2 8.4 C3.96 8.4, 3.71 8.38, 3.47 8.34 C3.23 8.29, 2.99 8.23, 2.76 8.15 C2.54 8.06, 2.31 7.96, 2.1 7.84 C1.89 7.72, 1.69 7.57, 1.5 7.42 C1.31 7.26, 1.14 7.09, 0.98 6.9 C0.83 6.71, 0.68 6.51, 0.56 6.3 C0.44 6.09, 0.34 5.87, 0.25 5.64 C0.17 5.41, 0.11 5.17, 0.06 4.93 C0.02 4.69, 0 4.44, 0 4.2 C0 3.96, 0.02 3.71, 0.06 3.47 C0.11 3.23, 0.17 2.99, 0.25 2.76 C0.34 2.54, 0.44 2.31, 0.56 2.1 C0.68 1.89, 0.83 1.69, 0.98 1.5 C1.14 1.31, 1.31 1.14, 1.5 0.98 C1.69 0.83, 1.89 0.68, 2.1 0.56 C2.31 0.44, 2.54 0.34, 2.76 0.25 C2.99 0.17, 3.23 0.11, 3.47 0.06 C3.71 0.02, 3.96 0, 4.2 0 C4.44 0, 4.69 0.02, 4.93 0.06 C5.17 0.11, 5.41 0.17, 5.64 0.25 C5.87 0.34, 6.09 0.44, 6.3 0.56 C6.51 0.68, 6.71 0.83, 6.9 0.98 C7.09 1.14, 7.26 1.31, 7.42 1.5 C7.57 1.69, 7.72 1.89, 7.84 2.1 C7.96 2.31, 8.06 2.54, 8.15 2.76 C8.23 2.99, 8.29 3.23, 8.34 3.47 C8.38 3.71, 8.39 4.08, 8.4 4.2 C8.41 4.32, 8.41 4.08, 8.4 4.2" stroke="#000000" stroke-width="1" fill="none"></path></g><g stroke-opacity="0.9" fill-opacity="0.9" stroke-linecap="round" transform="translate(83.07103578647843 44.8891643562018) rotate(0 35.87236036086483 35.872360360864846)"><path d="M34.12 0.97 C40.86 0.14, 51.06 1.87, 57.01 5.83 C62.96 9.8, 67.52 18.05, 69.82 24.75 C72.12 31.45, 72.79 39.5, 70.82 46.03 C68.84 52.57, 63.73 59.58, 57.98 63.97 C52.22 68.35, 43.26 71.94, 36.28 72.34 C29.31 72.75, 21.93 70.43, 16.13 66.4 C10.34 62.37, 4.02 55.1, 1.5 48.19 C-1.01 41.28, -0.93 31.84, 1.05 24.95 C3.04 18.05, 6.67 10.77, 13.4 6.83 C20.12 2.88, 35.82 1.9, 41.42 1.28 C47.03 0.66, 47.35 2.79, 47.04 3.12 M20.41 3.18 C26.33 -0.02, 36.53 -0.29, 43.45 1.36 C50.37 3.01, 57 8.11, 61.91 13.09 C66.82 18.07, 72.16 24.38, 72.91 31.24 C73.66 38.09, 70.06 48.04, 66.41 54.21 C62.77 60.38, 57.39 65.55, 51.05 68.25 C44.71 70.95, 35.39 71.94, 28.36 70.4 C21.32 68.87, 13.28 64.26, 8.82 59.04 C4.37 53.81, 2.56 45.96, 1.62 39.06 C0.67 32.16, -0.2 23.64, 3.15 17.64 C6.51 11.64, 18.78 5.15, 21.72 3.07 C24.66 0.99, 20.71 4.37, 20.78 5.15" stroke="none" stroke-width="0" fill="#04aaf7"></path><path d="M24.51 1.42 C30.85 -1.05, 40.84 -0.61, 47.78 1.86 C54.72 4.33, 62.16 10.39, 66.16 16.25 C70.17 22.1, 72.12 30.07, 71.83 37.02 C71.55 43.97, 68.87 52.53, 64.46 57.94 C60.05 63.35, 52 67.61, 45.39 69.46 C38.77 71.31, 31.31 71.07, 24.77 69.04 C18.24 67.02, 10.38 62.94, 6.17 57.32 C1.96 51.69, -0.75 42.39, -0.49 35.27 C-0.23 28.16, 2.58 20.35, 7.73 14.62 C12.88 8.9, 25.86 3.23, 30.39 0.92 C34.93 -1.39, 34.87 0.3, 34.93 0.75 M28.78 -0.23 C35.06 -2.26, 44.3 -0.4, 50.56 2.72 C56.81 5.84, 62.75 12.04, 66.32 18.49 C69.89 24.94, 72.88 34.32, 71.97 41.42 C71.05 48.51, 65.71 56.02, 60.83 61.05 C55.96 66.09, 49.44 70.5, 42.72 71.63 C36 72.75, 26.67 70.98, 20.49 67.82 C14.31 64.67, 9.22 58.48, 5.63 52.69 C2.05 46.9, -1.7 39.9, -1.01 33.08 C-0.31 26.26, 4.64 17.09, 9.81 11.77 C14.98 6.44, 26.8 2.99, 30.03 1.11 C33.26 -0.77, 29.03 0, 29.19 0.51" stroke="#000000" stroke-width="1" fill="none"></path></g><g stroke-linecap="round"><g transform="translate(128.5463660238056 72.136497902494) rotate(0 -5.817625622203764 10.88333315646716)" fill-rule="evenodd"><path d="M0 0 L-3.07 -0.7 L-12.72 -10.53 L-16.37 -10.24 L-19.07 -7.3 L-20.67 -1.91 L-21.18 3.99 L-18.93 11.32 L-29.26 14.92 L-30.23 19.17 L-28.89 22.91 L-25.21 23.57 L-20.79 22.42 L-16.27 16.24 L-14.6 15.92 L-12.56 18.31 L-6.08 30.01 L-2.5 32.54 L-1.19 32.32 L-0.7 30.51 L-6.34 8.06 L-5.05 6.27 L-2.55 6.12 L2.33 7.3 L5.31 9.85 L10.43 10.56 L15.51 9.85 L18.15 5.41 L18.14 1.07 L9.25 2.31 L7.09 1.86 L6.86 -0.44 L9.21 -9.67 L7.1 -10.51 L4.15 -8.98 L1.54 -5.32 L-0.4 -1.55 L0 0" stroke="none" stroke-width="0" fill="#40c057" fill-rule="evenodd"></path><path d="M0 0 C-0.51 -0.12, -0.95 1.06, -3.07 -0.7 C-5.19 -2.45, -10.05 -9.43, -12.72 -10.53 C-15.38 -11.63, -17.66 -9.72, -19.07 -7.3 C-20.48 -4.88, -21.21 0.88, -21.18 3.99 C-21.16 7.09, -17.58 9.5, -18.93 11.32 C-20.27 13.14, -27.6 12.99, -29.26 14.92 C-30.92 16.86, -30.3 21.66, -28.89 22.91 C-27.48 24.16, -23.17 23.59, -20.79 22.42 C-18.41 21.25, -17.05 14.65, -14.6 15.92 C-12.15 17.18, -8.4 27.57, -6.08 30.01 C-3.76 32.44, -0.65 34.17, -0.7 30.51 C-0.74 26.86, -6.85 11.93, -6.34 8.06 C-5.84 4.19, 0.39 7, 2.33 7.3 C4.27 7.6, 3.11 9.43, 5.31 9.85 C7.51 10.28, 13.37 11.32, 15.51 9.85 C17.65 8.39, 19.54 2.4, 18.14 1.07 C16.74 -0.27, 8.58 3.65, 7.09 1.86 C5.6 0.07, 9.7 -7.87, 9.21 -9.67 C8.72 -11.48, 5.75 -10.33, 4.15 -8.98 C2.55 -7.62, 0.29 -3.05, -0.4 -1.55 C-1.09 -0.05, -0.07 -0.26, 0 0 M0 0 C-0.51 -0.12, -0.95 1.06, -3.07 -0.7 C-5.19 -2.45, -10.05 -9.43, -12.72 -10.53 C-15.38 -11.63, -17.66 -9.72, -19.07 -7.3 C-20.48 -4.88, -21.21 0.88, -21.18 3.99 C-21.16 7.09, -17.58 9.5, -18.93 11.32 C-20.27 13.14, -27.6 12.99, -29.26 14.92 C-30.92 16.86, -30.3 21.66, -28.89 22.91 C-27.48 24.16, -23.17 23.59, -20.79 22.42 C-18.41 21.25, -17.05 14.65, -14.6 15.92 C-12.15 17.18, -8.4 27.57, -6.08 30.01 C-3.76 32.44, -0.65 34.17, -0.7 30.51 C-0.74 26.86, -6.85 11.93, -6.34 8.06 C-5.84 4.19, 0.39 7, 2.33 7.3 C4.27 7.6, 3.11 9.43, 5.31 9.85 C7.51 10.28, 13.37 11.32, 15.51 9.85 C17.65 8.39, 19.54 2.4, 18.14 1.07 C16.74 -0.27, 8.58 3.65, 7.09 1.86 C5.6 0.07, 9.7 -7.87, 9.21 -9.67 C8.72 -11.48, 5.75 -10.33, 4.15 -8.98 C2.55 -7.62, 0.29 -3.05, -0.4 -1.55 C-1.09 -0.05, -0.07 -0.26, 0 0" stroke="#087f5b" stroke-width="1" fill="none"></path></g></g><g stroke-linecap="round"><g stroke-opacity="0.9" fill-opacity="0.9" transform="translate(84.84963553342334 80.09441667046974) rotate(0 35.17987684382754 -0.9512382231093852)"><path d="M-0.71 -0.45 C10.97 -0.57, 59.19 -1.23, 71.07 -1.12 M1.12 -1.73 C12.59 -1.72, 58.89 -0.73, 70.32 -0.17" stroke="#000000" stroke-width="1" fill="none"></path></g></g><g stroke-linecap="round"><g stroke-opacity="0.9" fill-opacity="0.9" transform="translate(93.40678031497112 54.17351972912235) rotate(0 24.61897553978821 4.412842111020709)"><path d="M0 0 C0.22 0.64, 0.15 2.65, 1.3 3.82 C2.45 5, 4.72 6.17, 6.89 7.03 C9.06 7.89, 11.15 8.62, 14.34 8.97 C17.52 9.33, 21.79 9.33, 26 9.15 C30.21 8.97, 36.01 8.87, 39.61 7.91 C43.2 6.96, 45.95 4.81, 47.56 3.41 C49.16 2.02, 48.96 0.2, 49.24 -0.44 M0 0 C0.22 0.64, 0.15 2.65, 1.3 3.82 C2.45 5, 4.72 6.17, 6.89 7.03 C9.06 7.89, 11.15 8.62, 14.34 8.97 C17.52 9.33, 21.79 9.33, 26 9.15 C30.21 8.97, 36.01 8.87, 39.61 7.91 C43.2 6.96, 45.95 4.81, 47.56 3.41 C49.16 2.02, 48.96 0.2, 49.24 -0.44" stroke="#000000" stroke-width="1" fill="none"></path></g></g><g stroke-opacity="0.9" fill-opacity="0.9" stroke-linecap="round" transform="translate(106.96619269271946 42.56733074426563) rotate(0 13.03930131046502 37.637505008374404)"><path d="M13.07 0.97 C15.7 0.1, 18.75 3.07, 20.86 7.77 C22.96 12.47, 25.19 21.53, 25.69 29.17 C26.18 36.8, 24.94 46.55, 23.81 53.59 C22.69 60.63, 21.37 67.86, 18.92 71.38 C16.46 74.89, 11.97 76.81, 9.1 74.68 C6.23 72.55, 3.12 65.4, 1.7 58.6 C0.27 51.8, 0.06 41.85, 0.55 33.88 C1.04 25.92, 2.5 16.47, 4.65 10.82 C6.8 5.17, 11.93 1.75, 13.44 0.01 C14.95 -1.74, 13.87 -0.35, 13.7 0.35 M16.78 1.33 C19.23 3.47, 21.66 10.85, 23.27 18.04 C24.88 25.22, 26.9 36.35, 26.42 44.44 C25.93 52.53, 22.53 61.36, 20.35 66.59 C18.16 71.82, 15.92 75.83, 13.3 75.82 C10.68 75.81, 6.62 71.73, 4.62 66.51 C2.63 61.29, 2.07 52.07, 1.35 44.51 C0.64 36.96, -0.88 28.12, 0.31 21.19 C1.5 14.26, 5.5 6.06, 8.49 2.92 C11.48 -0.22, 16.81 2.56, 18.26 2.37 C19.71 2.18, 17.23 1.27, 17.2 1.78" stroke="#000000" stroke-width="1" fill="none"></path></g><g stroke-linecap="round"><g stroke-opacity="0.9" fill-opacity="0.9" transform="translate(95.95268392077787 107.47309863804628) rotate(0 24.61897553978821 -4.555677998699053)"><path d="M0 0 C1.15 -1.21, 4.5 -5.71, 6.89 -7.26 C9.28 -8.8, 11.15 -8.9, 14.34 -9.26 C17.52 -9.63, 21.79 -9.63, 26 -9.45 C30.21 -9.26, 36.01 -9.16, 39.61 -8.17 C43.2 -7.18, 45.95 -4.96, 47.56 -3.53 C49.16 -2.09, 48.96 -0.21, 49.24 0.46 M0 0 C1.15 -1.21, 4.5 -5.71, 6.89 -7.26 C9.28 -8.8, 11.15 -8.9, 14.34 -9.26 C17.52 -9.63, 21.79 -9.63, 26 -9.45 C30.21 -9.26, 36.01 -9.16, 39.61 -8.17 C43.2 -7.18, 45.95 -4.96, 47.56 -3.53 C49.16 -2.09, 48.96 -0.21, 49.24 0.46" stroke="#000000" stroke-width="1" fill="none"></path></g></g><g stroke-linecap="round"><g transform="translate(363.06364745555436 74.7685169498888) rotate(0 -55.66679041422901 0.7456301561264809)"><path d="M2.59 -1.95 C-16.01 -1.62, -94.69 -0.77, -113.92 -0.33 M0.55 3.16 C-16.95 4.07, -89.3 2.5, -108.56 2.58" stroke="#000000" stroke-width="1" fill="none"></path></g><g transform="translate(363.06364745555436 74.7685169498888) rotate(0 -55.66679041422901 0.7456301561264809)"><path d="M-83.07 -10.17 C-88.47 -5.86, -93.15 -2.26, -104.96 -1.02 M-79.91 -7.82 C-92.16 -4.44, -103.03 -1.08, -106.66 3.15" stroke="#000000" stroke-width="1" fill="none"></path></g><g transform="translate(363.06364745555436 74.7685169498888) rotate(0 -55.66679041422901 0.7456301561264809)"><path d="M-83.26 10.35 C-88.27 10.21, -92.91 9.37, -104.96 -1.02 M-80.09 12.7 C-92.07 8.24, -102.87 3.76, -106.66 3.15" stroke="#000000" stroke-width="1" fill="none"></path></g></g></svg>